<svg width="50" height="51" viewBox="0 0 50 51" fill="none" xmlns="http://www.w3.org/2000/svg">
<path d="M43.5944 2.44048H38.7443C38.4266 2.44082 38.122 2.56717 37.8973 2.79181C37.6726 3.01645 37.5463 3.32103 37.5459 3.63874V8.90079L26.2184 0.409612C25.8679 0.143846 25.44 0 25.0001 0C24.5602 0 24.1323 0.143846 23.7817 0.409612L1.47362 17.1321C0.700101 17.7169 0.186094 18.5812 0.0415122 19.5401C-0.10307 20.4989 0.13325 21.4763 0.699938 22.2633L0.771189 22.3621C1.05667 22.7622 1.42062 23.1 1.84086 23.355C2.26109 23.61 2.72883 23.7767 3.21558 23.8451C3.88977 23.9514 4.58025 23.8651 5.20756 23.5962V46.6432C5.20857 47.5441 5.56687 48.4077 6.20386 49.0447C6.84086 49.6818 7.70452 50.0401 8.60538 50.0411H41.3949C42.2957 50.0401 43.1594 49.6818 43.7964 49.0447C44.4334 48.4077 44.7917 47.5441 44.7927 46.6432V23.5969C45.2411 23.7903 45.7244 23.8895 46.2127 23.8884C46.4041 23.8883 46.5953 23.8739 46.7846 23.8454C47.2714 23.7769 47.7392 23.61 48.1595 23.3549C48.5797 23.0997 48.9437 22.7617 49.2291 22.3614L49.3 22.2636C49.8667 21.4768 50.1031 20.4994 49.9585 19.5405C49.814 18.5816 49.3 17.7173 48.5265 17.1325L44.793 14.3335V3.63874C44.7926 3.32098 44.6662 3.01635 44.4415 2.79171C44.2168 2.56706 43.9121 2.44074 43.5944 2.44048ZM39.1097 4.00427H43.2289V13.1608L39.1097 10.073V4.00427ZM43.2289 46.6432C43.2284 47.1295 43.035 47.5956 42.6911 47.9395C42.3473 48.2833 41.8811 48.4768 41.3949 48.4773H8.60538C8.11912 48.4768 7.65294 48.2833 7.30911 47.9395C6.96529 47.5956 6.77189 47.1295 6.77135 46.6432V22.5507L24.7188 9.03078C24.7989 8.96735 24.898 8.93284 25.0001 8.93284C25.1023 8.93284 25.2014 8.96735 25.2814 9.03078L43.2289 22.5507V46.6432ZM47.5887 18.3834C48.0351 18.721 48.3317 19.2198 48.415 19.7732C48.4984 20.3266 48.3619 20.8907 48.0348 21.3448L47.9639 21.4426C47.7973 21.6717 47.5868 21.8653 47.3446 22.0122C47.1024 22.1592 46.8334 22.2564 46.5533 22.2982C46.2731 22.3401 45.9874 22.3257 45.7129 22.256C45.4383 22.1863 45.1804 22.0626 44.9542 21.8922L26.2223 7.7818C25.8712 7.51394 25.4418 7.36885 25.0001 7.36885C24.5585 7.36885 24.1291 7.51394 23.7779 7.7818L5.0461 21.8929C4.82261 22.0684 4.56485 22.1952 4.28942 22.2651C4.01399 22.335 3.72697 22.3465 3.44683 22.2988C3.1651 22.2625 2.89408 22.1676 2.65121 22.0203C2.40833 21.8729 2.19898 21.6764 2.03659 21.4433L1.96524 21.345C1.63808 20.8909 1.5016 20.3268 1.585 19.7734C1.6684 19.22 1.96505 18.7211 2.4115 18.3836L24.7195 1.66142C24.7995 1.5984 24.8983 1.56412 25.0001 1.56412C25.1019 1.56412 25.2007 1.5984 25.2806 1.66142L47.5887 18.3834ZM13.2585 33.4496C13.2585 35.7719 13.9472 38.0421 15.2374 39.973C16.5276 41.9039 18.3614 43.4089 20.5069 44.2976C22.6524 45.1862 25.0133 45.4188 27.291 44.9657C29.5686 44.5126 31.6608 43.3943 33.3029 41.7522C34.945 40.1101 36.0633 38.0179 36.5163 35.7403C36.9694 33.4626 36.7368 31.1017 35.8481 28.9562C34.9594 26.8107 33.4544 24.9769 31.5235 23.6867C29.5926 22.3965 27.3224 21.7079 25.0001 21.7079C21.8871 21.7114 18.9026 22.9496 16.7014 25.1509C14.5002 27.3521 13.262 30.3366 13.2585 33.4496ZM25.0001 43.6275C22.6089 43.6296 20.294 42.7859 18.465 41.2456C19.0081 39.9627 19.9181 38.8689 21.0808 38.1016C22.2435 37.3342 23.607 36.9275 25.0001 36.9325C26.3908 36.9382 27.7497 37.3491 28.9104 38.115C30.0712 38.8809 30.9836 39.9685 31.5359 41.2448C29.7068 42.7855 27.3916 43.6295 25.0001 43.6275ZM21.8797 31.9551C21.8797 31.338 22.0627 30.7347 22.4056 30.2215C22.7485 29.7083 23.2358 29.3084 23.806 29.0722C24.3762 28.836 25.0036 28.7742 25.6089 28.8946C26.2142 29.015 26.7702 29.3122 27.2066 29.7486C27.643 30.185 27.9402 30.7411 28.0606 31.3464C28.181 31.9517 28.1192 32.5791 27.883 33.1493C27.6469 33.7195 27.2469 34.2068 26.7338 34.5497C26.2206 34.8926 25.6173 35.0756 25.0001 35.0756C24.1728 35.0746 23.3797 34.7455 22.7947 34.1606C22.2097 33.5756 21.8806 32.7824 21.8797 31.9551ZM35.178 33.4496C35.1801 35.884 34.3058 38.2377 32.7151 40.0804C31.6683 38.0432 29.8592 36.5019 27.6816 35.7921C28.4987 35.2215 29.1124 34.4052 29.4337 33.4619C29.755 32.5186 29.7671 31.4974 29.4682 30.5468C29.1694 29.5961 28.5751 28.7656 27.7718 28.1758C26.9685 27.5861 25.9981 27.2678 25.0016 27.2674C24.0051 27.267 23.0344 27.5844 22.2306 28.1735C21.4268 28.7626 20.8319 29.5926 20.5322 30.543C20.2326 31.4934 20.2438 32.5146 20.5643 33.4582C20.8848 34.4018 21.4979 35.2186 22.3144 35.7898C21.2346 36.1382 20.2343 36.6966 19.3711 37.433C18.5079 38.1693 17.7988 39.0691 17.2846 40.0805C16.2149 38.8359 15.4621 37.3512 15.0904 35.7528C14.7186 34.1544 14.739 32.4898 15.1497 30.9009C15.5604 29.3121 16.3492 27.8462 17.449 26.6282C18.5488 25.4101 19.9268 24.4762 21.4656 23.9059C23.0044 23.3357 24.6583 23.146 26.2862 23.3532C27.9142 23.5603 29.4678 24.1581 30.8148 25.0956C32.1617 26.0331 33.2619 27.2824 34.0216 28.737C34.7813 30.1917 35.1779 31.8085 35.1776 33.4495L35.178 33.4496Z" fill="white"/>
</svg>
