<svg width="50" height="50" viewBox="0 0 50 50" fill="none" xmlns="http://www.w3.org/2000/svg">
<path d="M29.1667 18.5613L47.5208 22.2071C49 22.5196 50 23.7696 50 25.2488V46.4988C50 48.2279 48.6042 49.6238 46.875 49.6238H28.125C28.7083 49.6238 29.1667 49.1654 29.1667 48.5821V47.5404H46.875C47.4375 47.5404 47.9167 47.0821 47.9167 46.4988V25.2488C47.9167 24.7696 47.5833 24.3321 47.1042 24.2279L29.1667 20.6863V18.5613Z" fill="#FF6600"/>
<path d="M40.6276 28.7906C41.2109 28.7906 41.6693 29.249 41.6693 29.8323C41.6693 30.4156 41.2109 30.874 40.6276 30.874H36.4609C35.8776 30.874 35.4193 30.4156 35.4193 29.8323C35.4193 29.249 35.8776 28.7906 36.4609 28.7906H40.6276ZM40.6276 35.0406C41.2109 35.0406 41.6693 35.499 41.6693 36.0823C41.6693 36.6656 41.2109 37.124 40.6276 37.124H36.4609C35.8776 37.124 35.4193 36.6656 35.4193 36.0823C35.4193 35.499 35.8776 35.0406 36.4609 35.0406H40.6276ZM40.6276 41.2906C41.2109 41.2906 41.6693 41.749 41.6693 42.3323C41.6693 42.9156 41.2109 43.374 40.6276 43.374H36.4609C35.8776 43.374 35.4193 42.9156 35.4193 42.3323C35.4193 41.749 35.8776 41.2906 36.4609 41.2906H40.6276ZM29.1693 48.5823C29.1693 49.1656 28.7109 49.624 28.1276 49.624C27.5443 49.624 27.0859 49.1656 27.0859 48.5823V19.4156C27.0859 19.1031 27.2318 18.8115 27.4609 18.6031C27.7109 18.4156 28.0234 18.3323 28.3359 18.3948L29.1693 18.5615V47.5406V48.5823Z" fill="#FF6600"/>
<path d="M27.0833 47.5405V48.5822C27.0833 49.1655 27.5417 49.6239 28.125 49.6239H19.7917C20.375 49.6239 20.8333 49.1655 20.8333 48.5822V47.5405H27.0833ZM21.875 10.0405C22.4583 10.0405 22.9167 10.4989 22.9167 11.0822C22.9167 11.6655 22.4583 12.1239 21.875 12.1239H17.7083C17.125 12.1239 16.6667 11.6655 16.6667 11.0822C16.6667 10.4989 17.125 10.0405 17.7083 10.0405H21.875ZM22.9167 17.3322C22.9167 17.9155 22.4583 18.3739 21.875 18.3739H17.7083C17.125 18.3739 16.6667 17.9155 16.6667 17.3322C16.6667 16.7489 17.125 16.2905 17.7083 16.2905H21.875C22.4583 16.2905 22.9167 16.7489 22.9167 17.3322ZM21.875 22.5405C22.4583 22.5405 22.9167 22.9989 22.9167 23.5822C22.9167 24.1655 22.4583 24.6239 21.875 24.6239H17.7083C17.125 24.6239 16.6667 24.1655 16.6667 23.5822C16.6667 22.9989 17.125 22.5405 17.7083 22.5405H21.875ZM21.875 28.7905C22.4583 28.7905 22.9167 29.2489 22.9167 29.8322C22.9167 30.4155 22.4583 30.8739 21.875 30.8739H17.7083C17.125 30.8739 16.6667 30.4155 16.6667 29.8322C16.6667 29.2489 17.125 28.7905 17.7083 28.7905H21.875ZM12.5 29.8322C12.5 30.4155 12.0417 30.8739 11.4583 30.8739H7.29167C6.70833 30.8739 6.25 30.4155 6.25 29.8322C6.25 29.2489 6.70833 28.7905 7.29167 28.7905H11.4583C12.0417 28.7905 12.5 29.2489 12.5 29.8322ZM11.4583 10.0405C12.0417 10.0405 12.5 10.4989 12.5 11.0822C12.5 11.6655 12.0417 12.1239 11.4583 12.1239H7.29167C6.70833 12.1239 6.25 11.6655 6.25 11.0822C6.25 10.4989 6.70833 10.0405 7.29167 10.0405H11.4583ZM11.4583 16.2905C12.0417 16.2905 12.5 16.7489 12.5 17.3322C12.5 17.9155 12.0417 18.3739 11.4583 18.3739H7.29167C6.70833 18.3739 6.25 17.9155 6.25 17.3322C6.25 16.7489 6.70833 16.2905 7.29167 16.2905H11.4583ZM11.4583 22.5405C12.0417 22.5405 12.5 22.9989 12.5 23.5822C12.5 24.1655 12.0417 24.6239 11.4583 24.6239H7.29167C6.70833 24.6239 6.25 24.1655 6.25 23.5822C6.25 22.9989 6.70833 22.5405 7.29167 22.5405H11.4583ZM18.75 38.1655C18.75 37.5822 18.2708 37.1239 17.7083 37.1239H11.4583C10.875 37.1239 10.4167 37.5822 10.4167 38.1655V47.5405H8.33333V38.1655C8.33333 36.4364 9.72917 35.0405 11.4583 35.0405H17.7083C19.4375 35.0405 20.8333 36.4364 20.8333 38.1655V47.5405H18.75V38.1655Z" fill="#FF6600"/>
<path d="M10.4193 47.5405H20.8359V48.5822C20.8359 49.1655 20.3776 49.6239 19.7943 49.6239H9.3776C8.79427 49.6239 8.33594 49.1655 8.33594 48.5822V47.5405H10.4193Z" fill="#FF6600"/>
<path d="M3.64583 0.0405604L26.5417 3.51973C28.0625 3.76973 29.1667 5.06139 29.1667 6.60306V18.5614L28.3333 18.3947C28.0208 18.3322 27.7083 18.4156 27.4583 18.6031C27.2292 18.8114 27.0833 19.1031 27.0833 19.4156V6.60306C27.0833 6.08223 26.7083 5.64473 26.2083 5.56139L3.3125 2.10306C3.25 2.08223 3.1875 2.08223 3.125 2.08223C2.875 2.08223 2.64583 2.16556 2.45833 2.33223C2.20833 2.54056 2.08333 2.81139 2.08333 3.12389V46.4989C2.08333 47.0822 2.5625 47.5406 3.125 47.5406H8.33333V48.5822C8.33333 49.1656 8.79167 49.6239 9.375 49.6239H3.125C1.39583 49.6239 0 48.2281 0 46.4989V3.12389C0 2.20723 0.395833 1.33223 1.10417 0.748894C1.8125 0.144727 2.72917 -0.105273 3.64583 0.0405604Z" fill="#FF6600"/>
</svg>
