<svg xmlns="http://www.w3.org/2000/svg" width="40" height="40" viewBox="0 0 40 40" fill="none"><path fill-rule="evenodd" clip-rule="evenodd" d="M35.7757 17.8223C35.4247 16.9836 35.018 16.1693 34.5583 15.3848C33.9737 14.3843 33.2857 13.448 32.5056 12.5913C32.4555 12.5365 32.4166 12.4724 32.3913 12.4026C32.3659 12.3327 32.3546 12.2586 32.3579 12.1844C32.3612 12.1102 32.379 12.0374 32.4105 11.9701C32.4419 11.9028 32.4863 11.8424 32.5411 11.7923C32.5959 11.7421 32.66 11.7033 32.7298 11.6779C32.7997 11.6526 32.8738 11.6412 32.948 11.6445C33.0222 11.6478 33.095 11.6657 33.1623 11.6972C33.2296 11.7286 33.29 11.773 33.3401 11.8278C34.1742 12.743 34.9098 13.7433 35.5348 14.8122C36.0001 15.605 36.4141 16.4268 36.7743 17.2726C37.8476 14.9987 37.8864 13.0185 36.8908 11.3318C35.7634 9.42231 33.3268 7.82931 29.5811 6.55286C29.0537 9.74796 29.3473 12.2894 30.4618 14.1771C31.4985 15.9331 33.2699 17.1482 35.7757 17.8225V17.8223ZM20.939 36.8204C23.341 36.5881 25.6647 35.841 27.7519 34.6298V21.5517L22.7453 19.8047C22.7154 19.7969 22.6861 19.7867 22.6579 19.7742L20.9391 19.1743V36.8204H20.939ZM14.8445 36.311V17.1172L22.3203 14.0955V18.4561L20.6008 17.8561C20.5143 17.8179 20.4197 17.8019 20.3254 17.8095C20.2312 17.8172 20.1403 17.8482 20.0611 17.8998C19.9818 17.9514 19.9167 18.022 19.8717 18.1051C19.8266 18.1882 19.803 18.2813 19.8029 18.3758V36.8924C19.6311 36.8976 19.4586 36.9002 19.2857 36.9002C17.7858 36.9014 16.2924 36.7031 14.8448 36.3107L14.8445 36.311ZM9.01458 33.4226C10.4346 34.5116 12.019 35.3676 13.7082 35.9584V21.3204H9.01458V33.4226ZM37.2786 18.7492C37.2897 18.9162 37.299 19.0959 37.3065 19.2882C37.3169 19.5555 37.3221 19.7928 37.3221 20C37.3199 22.8094 36.662 25.5795 35.4007 28.0898C34.1395 30.6001 32.3097 32.7814 30.057 34.4601C27.8044 36.1387 25.1909 37.2684 22.4248 37.7592C19.6586 38.25 16.8161 38.0884 14.1234 37.2872C14.115 37.2849 14.1068 37.2824 14.0986 37.2794C9.9513 36.0344 6.39023 33.3391 4.06573 29.6859C1.74123 26.0326 0.808395 21.665 1.43759 17.3809C2.06679 13.0967 4.21604 9.18182 7.49282 6.35116C10.7696 3.52051 14.9552 1.96297 19.2854 1.96301C19.4361 1.96301 19.5806 2.02288 19.6871 2.12944C19.7937 2.23599 19.8536 2.38052 19.8536 2.53122C19.8536 2.68191 19.7937 2.82644 19.6871 2.933C19.5806 3.03955 19.4361 3.09942 19.2854 3.09942C15.9427 3.09937 12.6751 4.09054 9.89584 5.94759C7.11653 7.80464 4.95033 10.4442 3.67117 13.5324C2.392 16.6205 2.05734 20.0187 2.70949 23.2971C3.36165 26.5755 4.97133 29.5869 7.33497 31.9504C7.51205 32.1275 7.69315 32.3007 7.87825 32.4699V20.7519C7.87824 20.6773 7.89293 20.6034 7.92148 20.5345C7.95002 20.4655 7.99187 20.4029 8.04463 20.3501C8.09738 20.2974 8.16001 20.2555 8.22895 20.227C8.29788 20.1984 8.37176 20.1837 8.44638 20.1837H13.7082V16.7352C13.7082 16.6147 13.7465 16.4973 13.8176 16.4C13.8887 16.3027 13.9889 16.2305 14.1036 16.1938L22.6773 12.7286C22.7633 12.6942 22.8564 12.6814 22.9485 12.6913C23.0406 12.7012 23.1289 12.7335 23.2056 12.7854C23.2824 12.8373 23.3452 12.9072 23.3887 12.989C23.4321 13.0708 23.4549 13.162 23.455 13.2547H23.4563V18.8528L28.4633 20.6002C28.585 20.6319 28.6927 20.7031 28.7696 20.8027C28.8465 20.9022 28.8882 21.0244 28.8883 21.1501V33.9089C31.1387 32.3534 32.9782 30.2753 34.2492 27.8528C35.5202 25.4303 36.1847 22.7357 36.1858 20C36.1858 19.7437 36.182 19.5197 36.1745 19.3282C36.1715 19.2506 36.1677 19.1699 36.1629 19.086C33.0005 18.3815 30.7746 16.9375 29.4853 14.754C28.1519 12.4957 27.8505 9.47903 28.5808 5.70403H28.5822C28.5864 5.68219 28.5919 5.66062 28.5986 5.63942C28.644 5.49638 28.7443 5.37721 28.8775 5.30811C29.0107 5.23902 29.1658 5.22566 29.3089 5.27098C33.6816 6.66931 36.5344 8.49721 37.8672 10.7547C39.2173 13.0415 39.0211 15.7063 37.2784 18.7492H37.2786ZM23.6797 23.1531H24.7343C24.8083 23.1532 24.8791 23.1827 24.9314 23.2349C24.9837 23.2872 25.0131 23.3581 25.0133 23.432V24.4867C25.0131 24.5606 24.9837 24.6315 24.9314 24.6837C24.8791 24.736 24.8083 24.7654 24.7343 24.7656H23.6797C23.6057 24.7654 23.5349 24.736 23.4827 24.6837C23.4304 24.6314 23.401 24.5606 23.4008 24.4867V23.432C23.401 23.3581 23.4304 23.2872 23.4827 23.235C23.5349 23.1827 23.6057 23.1533 23.6797 23.1531ZM23.6797 26.3501H24.7343C24.8083 26.3503 24.8791 26.3797 24.9314 26.432C24.9837 26.4842 25.0131 26.5551 25.0133 26.629V27.6837C25.0131 27.7576 24.9837 27.8285 24.9314 27.8807C24.8791 27.933 24.8083 27.9624 24.7343 27.9625H23.6797C23.6058 27.9624 23.5349 27.933 23.4827 27.8807C23.4304 27.8285 23.401 27.7576 23.4008 27.6837V26.629C23.401 26.5551 23.4304 26.4843 23.4827 26.432C23.5349 26.3797 23.6057 26.3503 23.6797 26.3501ZM23.6797 29.5472H24.7343C24.8083 29.5474 24.8791 29.5768 24.9314 29.629C24.9837 29.6813 25.0131 29.7521 25.0133 29.8261V30.8807C25.0131 30.9547 24.9837 31.0255 24.9314 31.0778C24.8791 31.13 24.8083 31.1595 24.7343 31.1596H23.6797C23.6058 31.1594 23.5349 31.13 23.4827 31.0777C23.4304 31.0255 23.401 30.9547 23.4008 30.8807V29.8261C23.4009 29.7521 23.4303 29.6812 23.4825 29.6289C23.5348 29.5765 23.6057 29.5471 23.6797 29.5469V29.5472ZM16.7959 23.1531C16.722 23.1532 16.6511 23.1827 16.5989 23.2349C16.5466 23.2872 16.5172 23.3581 16.5171 23.432V24.4867C16.5172 24.5606 16.5466 24.6315 16.5989 24.6837C16.6511 24.736 16.722 24.7654 16.7959 24.7656H17.8506C17.9245 24.7654 17.9954 24.736 18.0476 24.6837C18.0999 24.6315 18.1293 24.5606 18.1294 24.4867V23.432C18.1293 23.3581 18.0999 23.2872 18.0476 23.2349C17.9954 23.1827 17.9245 23.1532 17.8506 23.1531H16.7959ZM16.7959 26.3501C16.722 26.3503 16.6511 26.3797 16.5989 26.432C16.5466 26.4843 16.5172 26.5551 16.5171 26.629V27.6837C16.5172 27.7576 16.5466 27.8285 16.5989 27.8807C16.6512 27.933 16.722 27.9624 16.7959 27.9625H17.8506C17.9245 27.9624 17.9953 27.933 18.0476 27.8807C18.0999 27.8285 18.1293 27.7576 18.1294 27.6837V26.629C18.1293 26.5551 18.0999 26.4843 18.0476 26.432C17.9954 26.3797 17.9245 26.3503 17.8506 26.3501H16.7959ZM16.7959 29.5472C16.722 29.5474 16.6512 29.5768 16.5989 29.6291C16.5466 29.6813 16.5172 29.7522 16.5171 29.8261V30.8807C16.5172 30.9547 16.5466 31.0255 16.5989 31.0777C16.6512 31.13 16.722 31.1594 16.7959 31.1596H17.8506C17.9245 31.1594 17.9953 31.13 18.0476 31.0777C18.0999 31.0255 18.1293 30.9547 18.1294 30.8807V29.8261C18.1293 29.7522 18.0999 29.6813 18.0476 29.6291C17.9953 29.5768 17.9245 29.5474 17.8506 29.5472H16.7959ZM10.8336 23.9593H11.8883C11.9623 23.9595 12.0331 23.9889 12.0854 24.0411C12.1377 24.0934 12.1671 24.1642 12.1672 24.2382V25.2929C12.1671 25.3668 12.1377 25.4376 12.0854 25.4899C12.0331 25.5422 11.9623 25.5716 11.8883 25.5718H10.8336C10.7597 25.5716 10.6889 25.5422 10.6366 25.4899C10.5844 25.4376 10.555 25.3668 10.5548 25.2929V24.2382C10.555 24.1643 10.5844 24.0934 10.6366 24.0412C10.6889 23.9889 10.7597 23.9595 10.8336 23.9593ZM10.8336 27.1564H11.8883C11.9623 27.1565 12.0331 27.1859 12.0854 27.2382C12.1377 27.2905 12.1671 27.3614 12.1672 27.4353V28.49C12.1671 28.5639 12.1377 28.6347 12.0854 28.687C12.0331 28.7393 11.9623 28.7687 11.8883 28.7689H10.8336C10.7597 28.7687 10.6889 28.7393 10.6366 28.687C10.5844 28.6347 10.5549 28.5639 10.5548 28.49V27.4353C10.555 27.3614 10.5844 27.2905 10.6366 27.2382C10.6889 27.186 10.7597 27.1565 10.8336 27.1564ZM10.8336 30.3534H11.8883C11.9623 30.3535 12.0331 30.383 12.0854 30.4353C12.1377 30.4875 12.1671 30.5584 12.1672 30.6323V31.687C12.1671 31.7609 12.1377 31.8318 12.0854 31.884C12.0331 31.9363 11.9623 31.9657 11.8883 31.9658H10.8336C10.7597 31.9657 10.6889 31.9363 10.6366 31.884C10.5844 31.8317 10.555 31.7609 10.5548 31.687V30.6323C10.555 30.5584 10.5844 30.4876 10.6366 30.4353C10.6889 30.383 10.7597 30.3536 10.8336 30.3534ZM16.7962 19.9454C16.7223 19.9455 16.6515 19.9749 16.5992 20.0272C16.547 20.0794 16.5175 20.1503 16.5174 20.2242V21.2789C16.5175 21.3528 16.5469 21.4236 16.5992 21.4759C16.6515 21.5282 16.7223 21.5576 16.7962 21.5578H17.8509C17.9248 21.5576 17.9957 21.5282 18.0479 21.4759C18.1002 21.4236 18.1296 21.3528 18.1297 21.2789V20.2242C18.1296 20.1503 18.1002 20.0794 18.0479 20.0272C17.9957 19.9749 17.9248 19.9455 17.8509 19.9454H16.7962Z" fill="#FF6600"></path></svg>