<svg xmlns="http://www.w3.org/2000/svg" width="49" height="48" viewBox="0 0 49 48" fill="none"><g clip-path="url(#clip0_330_22429)"><path d="M20.4586 10.8625H13.3457C12.6993 10.8625 12.1738 11.3881 12.1738 12.0344V23.6532C12.1738 24.2992 12.6993 24.8251 13.3457 24.8251H20.4586C21.105 24.8251 21.6305 24.2992 21.6305 23.6532V12.0344C21.6305 11.3881 21.105 10.8625 20.4586 10.8625ZM16.1989 23.4188H13.5801V20.5433H16.1989V23.4188ZM16.1989 19.1371H13.5801V16.5502H16.1989V19.1371ZM16.1989 15.1439H13.5801V12.2688H16.1989V15.1439ZM20.2242 23.4188H17.6051V20.5433H20.2242V23.4188ZM20.2242 19.1371H17.6051V16.5502H20.2242V19.1371ZM20.2242 15.1439H17.6051V12.2688H20.2242V15.1439Z" fill="#F68A0A"></path><path d="M29.8887 38.9341C29.5001 38.9341 29.1855 39.249 29.1855 39.6372V41.3254C29.1855 41.7136 29.5001 42.0286 29.8887 42.0286C30.2772 42.0286 30.5918 41.7136 30.5918 41.3254V39.6372C30.5918 39.249 30.2772 38.9341 29.8887 38.9341Z" fill="#F68A0A"></path><path d="M48.4933 31.8333C48.4607 31.5864 48.3344 31.3663 48.1377 31.214L33.2414 19.6882C32.9111 19.433 32.5163 19.2979 32.0995 19.2979C31.6824 19.2979 31.2876 19.433 30.957 19.6886L28.704 21.4318V19.4125C28.704 19.0239 28.3895 18.7094 28.0009 18.7094C27.6124 18.7094 27.2978 19.0239 27.2978 19.4125V22.5198L16.0617 31.2136C15.8661 31.3645 15.7361 31.5919 15.7054 31.8362C15.6735 32.0834 15.7398 32.3287 15.8918 32.5269L17.0318 34.0096C17.2109 34.2415 17.4811 34.3744 17.7737 34.3744C17.9795 34.3744 18.1828 34.3052 18.3461 34.1788L32.0995 23.5375L42.4952 31.5809V46.2308H36.8321V44.9125C36.8321 44.5239 36.5175 44.2094 36.129 44.2094C35.7404 44.2094 35.4258 44.5239 35.4258 44.9125V46.2308H28.7721V35.4591H35.4258V41.6078C35.4258 41.9963 35.7404 42.3109 36.129 42.3109C36.5175 42.3109 36.8321 41.9963 36.8321 41.6078V35.2247C36.8321 34.5787 36.3062 34.0529 35.6602 34.0529H28.5381C27.8918 34.0529 27.3659 34.5787 27.3659 35.2247V46.2308H22.0229V44.313C22.0229 43.6666 21.4974 43.1411 20.851 43.1411H20.1779C20.2339 42.8613 20.2643 42.5724 20.2643 42.2765C20.2643 39.843 18.2842 37.8633 15.8508 37.8633C14.5298 37.8633 13.2939 38.4694 12.4673 39.4523C12.1546 39.3534 11.8221 39.2996 11.4771 39.2996C11.2237 39.2996 10.9747 39.3278 10.7326 39.3842C9.96685 38.0724 8.5379 37.2286 6.99322 37.2286C6.82879 37.2286 6.66619 37.2389 6.50579 37.2576V13.7212L16.9018 5.677L27.2981 13.7212V16.1309C27.2981 16.5194 27.6127 16.834 28.0013 16.834C28.3895 16.834 28.7044 16.5194 28.7044 16.1309V14.8092L30.6556 16.3187C30.8185 16.4451 31.0218 16.5143 31.2276 16.5143C31.5209 16.5143 31.7916 16.381 31.9699 16.1488C31.9725 16.1455 31.975 16.1418 31.9776 16.1385L33.0696 14.6635L33.0766 14.6547C33.1487 14.5642 33.3403 14.3243 33.2956 13.9731C33.263 13.7252 33.1363 13.5051 32.94 13.3539L18.044 1.82812C17.7137 1.57288 17.3189 1.43774 16.9018 1.43774C16.4847 1.43774 16.0899 1.57288 15.7592 1.82849L11.6694 4.99292V4.10669C12.2223 4.01294 12.645 3.53174 12.645 2.95276V1.54688C12.645 0.900513 12.1191 0.375 11.4731 0.375H5.7752C5.1292 0.375 4.60333 0.900513 4.60333 1.54688V2.95239C4.60333 3.53174 5.02593 4.01257 5.57891 4.10669V9.70532L0.865045 13.3528C0.668756 13.5037 0.538751 13.7314 0.507989 13.975C0.475763 14.2225 0.54168 14.4679 0.694024 14.6664L1.83404 16.1492C2.01275 16.3813 2.28301 16.5143 2.57598 16.5143C2.78179 16.5143 2.98467 16.4451 3.14874 16.3187L5.09954 14.8092V37.671C3.98333 38.2203 3.12383 39.2384 2.8045 40.4802C1.74432 40.8889 1.01592 41.9187 1.01592 43.0876C1.01592 43.2166 1.02508 43.3433 1.04192 43.4678C0.818902 43.6813 0.679742 43.9808 0.679742 44.313V46.4656C0.679742 47.1116 1.20525 47.6375 1.85162 47.6375H45.9394C46.3279 47.6375 46.6425 47.3225 46.6425 46.9343C46.6425 46.5458 46.3279 46.2312 45.9394 46.2312H43.9014V32.6689L45.853 34.1788C46.0159 34.3048 46.2192 34.3744 46.425 34.3744C46.7183 34.3744 46.9889 34.2411 47.1673 34.0085C47.1698 34.0052 47.1724 34.002 47.175 33.9987L48.2674 32.5232L48.2747 32.514C48.3465 32.424 48.5376 32.1841 48.4933 31.8333ZM15.8508 39.2695C17.509 39.2695 18.8581 40.6187 18.8581 42.2765C18.8581 42.5771 18.8127 42.8672 18.7303 43.1411H14.7195C14.7499 42.9624 14.7668 42.7786 14.7668 42.5911C14.7668 41.6371 14.3585 40.7772 13.7084 40.1752C14.2643 39.6108 15.0334 39.2695 15.8508 39.2695ZM6.00958 1.78125H11.2387V2.71802H6.00958V1.78125ZM10.2631 4.12427V6.08093L6.98516 8.61731V4.12427H10.2631ZM2.66131 14.918L2.09405 14.1801L16.6194 2.94067C16.7026 2.87659 16.7974 2.84399 16.9018 2.84399C17.0062 2.84399 17.101 2.87659 17.1838 2.94031L31.6894 14.1643L31.1357 14.9125L17.3321 4.23193C17.0787 4.03601 16.7249 4.03601 16.4715 4.23193L2.66131 14.918ZM20.6166 46.2312H2.08599V44.5474H8.5628C8.95098 44.5474 9.26592 44.2328 9.26592 43.8442C9.26592 43.4557 8.95098 43.1411 8.5628 43.1411H2.424C2.42327 43.1232 2.42217 43.1056 2.42217 43.0876C2.42217 42.4244 2.89349 41.8513 3.54351 41.7253C3.83758 41.6682 4.06316 41.4313 4.10564 41.135C4.31072 39.7101 5.55218 38.6353 6.99322 38.6353C8.18999 38.6353 9.28423 39.3864 9.716 40.504C9.78631 40.6864 9.92913 40.8311 10.1108 40.9039C10.2924 40.9764 10.4957 40.9698 10.6725 40.8864C10.9252 40.767 11.1962 40.7062 11.4771 40.7062C12.5157 40.7062 13.3605 41.5518 13.3605 42.5914C13.3605 42.783 13.3305 42.9672 13.277 43.1411H11.9378C11.5492 43.1411 11.2347 43.4561 11.2347 43.8442C11.2347 44.2328 11.5492 44.5474 11.9378 44.5474H20.6166V46.2312ZM46.3334 32.7726L32.5298 22.0924C32.2764 21.8961 31.9227 21.8961 31.6692 22.0924L17.8587 32.7781L17.2914 32.0402L31.8172 20.8011C31.9003 20.7367 31.9952 20.7041 32.0995 20.7041C32.2035 20.7041 32.2988 20.7367 32.3815 20.8008L46.8871 32.0244L46.3334 32.7726Z" fill="#F68A0A"></path></g><defs><clipPath id="clip0_330_22429"><rect width="48" height="48" fill="white" transform="translate(0.5)"></rect></clipPath></defs></svg>