<svg xmlns="http://www.w3.org/2000/svg" width="49" height="48" viewBox="0 0 49 48" fill="none"><path d="M37.7322 40H38.7126C41.0122 40 42.8414 38.9522 44.4838 37.4872C48.656 33.7652 38.8482 30 35.5 30M31.5 10.1375C31.9542 10.0475 32.4258 10 32.9096 10C36.5494 10 39.5 12.6863 39.5 16C39.5 19.3137 36.5494 22 32.9096 22C32.4258 22 31.9542 21.9526 31.5 21.8624" stroke="#F68A0A" stroke-width="1.5" stroke-linecap="round"></path><path d="M9.46262 32.2224C7.10468 33.486 0.92228 36.0662 4.68776 39.2948C6.52718 40.872 8.57582 42 11.1514 42H25.8486C28.4242 42 30.4728 40.872 32.3122 39.2948C36.0778 36.0662 29.8954 33.486 27.5374 32.2224C22.008 29.2592 14.992 29.2592 9.46262 32.2224Z" stroke="#F68A0A" stroke-width="1.5"></path><path d="M26.5 15C26.5 19.4183 22.9182 23 18.5 23C14.0817 23 10.5 19.4183 10.5 15C10.5 10.5817 14.0817 7 18.5 7C22.9182 7 26.5 10.5817 26.5 15Z" stroke="#F68A0A" stroke-width="1.5"></path></svg>