<svg xmlns="http://www.w3.org/2000/svg" width="56" height="56" viewBox="0 0 56 56" fill="none"><g clip-path="url(#clip0_402_3329)"><path d="M0.177868 5.13704L3.91262 11.6725C4.0386 11.8933 4.24945 12.0531 4.49603 12.1149L7.98037 12.986L19.9309 24.9365L21.2513 23.6165L9.11378 11.4793C8.99433 11.3595 8.84454 11.2746 8.68054 11.2335L5.33255 10.3935L2.15279 4.82594L4.87895 2.09977L10.4488 5.28261L11.2892 8.63059C11.3299 8.79498 11.4152 8.94515 11.5346 9.0646L23.6722 21.2022L24.9922 19.8817L13.0417 7.93119L12.1706 4.44878C12.1088 4.20182 11.949 3.99058 11.7282 3.86421L5.19236 0.129846C4.82787 -0.0775547 4.36929 -0.0161025 4.07201 0.28002L0.337643 4.01477C0.0372961 4.31013 -0.0279968 4.76948 0.177868 5.13704Z" fill="#FF6600"></path><path d="M38.9933 18.4006L18.4533 38.941L17.1328 37.6206L37.6732 17.0806L38.9933 18.4006Z" fill="#FF6600"></path><path d="M14.8593 39.6677C14.6903 39.3865 14.3869 39.2148 14.0589 39.2148H8.45712C8.1295 39.2148 7.8257 39.3865 7.65709 39.6677L4.85603 44.3357C4.6782 44.6315 4.6782 45.0013 4.85603 45.2975L7.65709 49.9655C7.8257 50.2463 8.1295 50.4183 8.45712 50.4183H14.0589C14.3869 50.4183 14.6903 50.2463 14.8593 49.9655L17.66 45.2975C17.8378 45.0013 17.8378 44.6315 17.66 44.3357L14.8593 39.6677ZM13.5308 48.551H8.98561L6.74491 44.8166L8.98561 41.0818H13.5308L15.7715 44.8166L13.5308 48.551Z" fill="#FF6600"></path><path d="M44.8694 22.4093C51.0358 22.43 56.0518 17.4478 56.0725 11.2814C56.0756 10.3428 55.9604 9.40791 55.7295 8.49804C55.6051 7.99759 55.0985 7.69302 54.5981 7.81746C54.4337 7.85855 54.2839 7.94343 54.1641 8.06288L48.3522 13.8709L43.741 12.3342L42.2032 7.72413L48.015 1.91114C48.3795 1.54627 48.3791 0.955175 48.0142 0.590687C47.894 0.470471 47.7427 0.385207 47.5772 0.344494C41.5971 -1.16992 35.5222 2.45 34.0078 8.42967C33.7777 9.33686 33.6629 10.2694 33.6659 11.2054C33.6682 11.9405 33.7439 12.6733 33.8929 13.3931L13.4459 33.8397C12.7261 33.6911 11.9933 33.6154 11.2586 33.6128C5.07072 33.6128 0.0546875 38.6288 0.0546875 44.8166C0.0546875 51.0041 5.07072 56.0201 11.2586 56.0201C17.446 56.0201 22.4621 51.0041 22.4621 44.8166C22.4597 44.0815 22.3837 43.3487 22.2351 42.6289L27.1301 37.7339L29.2709 39.8747C29.6358 40.2392 30.2265 40.2392 30.5914 39.8747L31.0581 39.4077C31.4675 39.001 32.1292 39.001 32.5387 39.4077C32.9477 39.8156 32.9485 40.4777 32.5406 40.8868C32.5402 40.8871 32.5394 40.8879 32.5387 40.8887L32.072 41.3553C31.7075 41.7198 31.7075 42.3109 32.072 42.6754L43.2094 53.8128C46.1388 56.7691 50.9098 56.7906 53.866 53.8612C56.8219 50.9319 56.8434 46.1605 53.914 43.2047C53.8983 43.1885 53.8821 43.1724 53.866 43.1563L42.7286 32.0192C42.3641 31.6547 41.773 31.6547 41.4085 32.0192L40.9419 32.4859C40.532 32.893 39.8707 32.893 39.4609 32.4859C39.0522 32.078 39.0511 31.4158 39.4589 31.0072C39.4597 31.0064 39.4605 31.006 39.4609 31.0053L39.9279 30.5382C40.2924 30.1737 40.2924 29.5826 39.9279 29.2182L37.7871 27.0773L42.6821 22.1823C43.4019 22.3309 44.1347 22.407 44.8694 22.4093ZM48.5377 54.1531C47.8594 54.152 47.1869 54.0294 46.5521 53.7909L53.8437 46.4989C54.9441 49.4259 53.4635 52.6906 50.5365 53.7909C49.8977 54.031 49.2206 54.1539 48.5377 54.1531ZM37.9607 29.8876C36.9267 31.1209 37.0888 32.9591 38.3221 33.9926C39.4059 34.9009 40.9856 34.9002 42.0684 33.9899L52.5459 44.4767C52.6596 44.5908 52.766 44.711 52.8689 44.8331L44.8863 52.8158C44.7638 52.7132 44.6436 52.6068 44.5295 52.4928L34.0439 42.0063C35.0778 40.7731 34.9157 38.9349 33.6824 37.9013C32.5986 36.9926 31.0185 36.9938 29.9358 37.9036L28.4421 36.41L36.4666 28.3974L37.9607 29.8876ZM41.7308 20.4973L20.5509 41.673C20.3185 41.9049 20.2252 42.2418 20.3043 42.5602C21.5852 47.5904 18.5456 52.7067 13.515 53.9872C8.48477 55.2681 3.36849 52.2285 2.0876 47.1979C0.807092 42.1677 3.84667 37.0514 8.87729 35.7705C10.399 35.3833 11.9933 35.3833 13.515 35.7705C13.8334 35.8485 14.1695 35.7551 14.4022 35.5243L35.5771 14.3483C35.8091 14.1163 35.9024 13.7795 35.8225 13.4615C34.5505 8.48997 37.5493 3.42862 42.5208 2.15618C43.4602 1.91613 44.432 1.82395 45.3998 1.88425L40.4748 6.81118C40.2248 7.06083 40.1372 7.43069 40.249 7.76599L42.116 13.3681C42.2093 13.6466 42.4282 13.8655 42.7071 13.9581L48.3092 15.8254C48.6441 15.9372 49.014 15.85 49.264 15.6004L54.189 10.6754C54.2002 10.8536 54.2059 11.0299 54.2059 11.2054C54.232 16.3355 50.0948 20.5154 44.9647 20.5419C44.1716 20.5457 43.3811 20.4482 42.613 20.2515C42.2946 20.172 41.9577 20.265 41.7258 20.497H41.7308V20.4973Z" fill="#FF6600"></path><path d="M48.3323 46.9571L47.0119 48.2775L37.6758 38.9414L38.9958 37.621L48.3323 46.9571Z" fill="#FF6600"></path></g><defs><clipPath id="clip0_402_3329"><rect width="56" height="56" fill="white"></rect></clipPath></defs></svg>