<svg width="40" height="40" viewBox="0 0 40 40" fill="none" xmlns="http://www.w3.org/2000/svg">
<path d="M23.3333 14.8491L38.0167 17.7658C39.2 18.0158 40 19.0158 40 20.1991V37.199C40 38.5824 38.8833 39.699 37.5 39.699H22.5C22.9667 39.699 23.3333 39.3324 23.3333 38.8657V38.0324H37.5C37.95 38.0324 38.3333 37.6657 38.3333 37.199V20.1991C38.3333 19.8158 38.0667 19.4658 37.6833 19.3824L23.3333 16.5491V14.8491Z" fill="#FF6600"/>
<path d="M32.5018 23.0325C32.9685 23.0325 33.3351 23.3992 33.3351 23.8658C33.3351 24.3325 32.9685 24.6992 32.5018 24.6992H29.1685C28.7018 24.6992 28.3351 24.3325 28.3351 23.8658C28.3351 23.3992 28.7018 23.0325 29.1685 23.0325H32.5018ZM32.5018 28.0325C32.9685 28.0325 33.3351 28.3992 33.3351 28.8658C33.3351 29.3325 32.9685 29.6992 32.5018 29.6992H29.1685C28.7018 29.6992 28.3351 29.3325 28.3351 28.8658C28.3351 28.3992 28.7018 28.0325 29.1685 28.0325H32.5018ZM32.5018 33.0325C32.9685 33.0325 33.3351 33.3991 33.3351 33.8658C33.3351 34.3325 32.9685 34.6991 32.5018 34.6991H29.1685C28.7018 34.6991 28.3351 34.3325 28.3351 33.8658C28.3351 33.3991 28.7018 33.0325 29.1685 33.0325H32.5018ZM23.3351 38.8658C23.3351 39.3325 22.9685 39.6991 22.5018 39.6991C22.0351 39.6991 21.6685 39.3325 21.6685 38.8658V15.5325C21.6685 15.2825 21.7851 15.0492 21.9685 14.8825C22.1685 14.7325 22.4185 14.6659 22.6685 14.7159L23.3351 14.8492V38.0325V38.8658Z" fill="#FF6600"/>
<path d="M21.6667 38.0324V38.8657C21.6667 39.3324 22.0333 39.699 22.5 39.699H15.8333C16.3 39.699 16.6667 39.3324 16.6667 38.8657V38.0324H21.6667ZM17.5 8.03247C17.9667 8.03247 18.3333 8.39914 18.3333 8.8658C18.3333 9.33247 17.9667 9.69913 17.5 9.69913H14.1667C13.7 9.69913 13.3333 9.33247 13.3333 8.8658C13.3333 8.39914 13.7 8.03247 14.1667 8.03247H17.5ZM18.3333 13.8658C18.3333 14.3324 17.9667 14.6991 17.5 14.6991H14.1667C13.7 14.6991 13.3333 14.3324 13.3333 13.8658C13.3333 13.3991 13.7 13.0325 14.1667 13.0325H17.5C17.9667 13.0325 18.3333 13.3991 18.3333 13.8658ZM17.5 18.0324C17.9667 18.0324 18.3333 18.3991 18.3333 18.8658C18.3333 19.3324 17.9667 19.6991 17.5 19.6991H14.1667C13.7 19.6991 13.3333 19.3324 13.3333 18.8658C13.3333 18.3991 13.7 18.0324 14.1667 18.0324H17.5ZM17.5 23.0324C17.9667 23.0324 18.3333 23.3991 18.3333 23.8658C18.3333 24.3324 17.9667 24.6991 17.5 24.6991H14.1667C13.7 24.6991 13.3333 24.3324 13.3333 23.8658C13.3333 23.3991 13.7 23.0324 14.1667 23.0324H17.5ZM10 23.8658C10 24.3324 9.63333 24.6991 9.16667 24.6991H5.83333C5.36667 24.6991 5 24.3324 5 23.8658C5 23.3991 5.36667 23.0324 5.83333 23.0324H9.16667C9.63333 23.0324 10 23.3991 10 23.8658ZM9.16667 8.03247C9.63333 8.03247 10 8.39914 10 8.8658C10 9.33247 9.63333 9.69913 9.16667 9.69913H5.83333C5.36667 9.69913 5 9.33247 5 8.8658C5 8.39914 5.36667 8.03247 5.83333 8.03247H9.16667ZM9.16667 13.0325C9.63333 13.0325 10 13.3991 10 13.8658C10 14.3324 9.63333 14.6991 9.16667 14.6991H5.83333C5.36667 14.6991 5 14.3324 5 13.8658C5 13.3991 5.36667 13.0325 5.83333 13.0325H9.16667ZM9.16667 18.0324C9.63333 18.0324 10 18.3991 10 18.8658C10 19.3324 9.63333 19.6991 9.16667 19.6991H5.83333C5.36667 19.6991 5 19.3324 5 18.8658C5 18.3991 5.36667 18.0324 5.83333 18.0324H9.16667ZM15 30.5324C15 30.0657 14.6167 29.6991 14.1667 29.6991H9.16667C8.7 29.6991 8.33333 30.0657 8.33333 30.5324V38.0324H6.66667V30.5324C6.66667 29.1491 7.78333 28.0324 9.16667 28.0324H14.1667C15.55 28.0324 16.6667 29.1491 16.6667 30.5324V38.0324H15V30.5324Z" fill="#FF6600"/>
<path d="M8.33512 38.0325H16.6685V38.8658C16.6685 39.3325 16.3018 39.6991 15.8351 39.6991H7.50179C7.03512 39.6991 6.66846 39.3325 6.66846 38.8658V38.0325H8.33512Z" fill="#FF6600"/>
<path d="M2.91667 0.0324482L21.2333 2.81577C22.45 3.01577 23.3333 4.0491 23.3333 5.28243V14.8491L22.6667 14.7157C22.4167 14.6657 22.1667 14.7324 21.9667 14.8824C21.7833 15.0491 21.6667 15.2824 21.6667 15.5324V5.28243C21.6667 4.86576 21.3667 4.51577 20.9667 4.4491L2.65 1.68244C2.6 1.66578 2.55 1.66578 2.5 1.66578C2.3 1.66578 2.11667 1.73244 1.96667 1.86578C1.76667 2.03244 1.66667 2.24911 1.66667 2.49911V37.199C1.66667 37.6657 2.05 38.0323 2.5 38.0323H6.66667V38.8656C6.66667 39.3323 7.03333 39.699 7.5 39.699H2.5C1.11667 39.699 0 38.5823 0 37.199V2.49911C0 1.76578 0.316667 1.06578 0.883333 0.599113C1.45 0.115781 2.18333 -0.0842181 2.91667 0.0324482Z" fill="#FF6600"/>
</svg>
