<svg width="39" height="39" viewBox="0 0 39 39" fill="none" xmlns="http://www.w3.org/2000/svg">
<path fill-rule="evenodd" clip-rule="evenodd" d="M11.3114 1.7542C13.7664 0.628 16.4967 0 19.3726 0C30.0646 0 38.7451 8.68055 38.7451 19.3726C38.7451 22.8806 37.8107 26.172 36.1773 29.0115H35.3657V28.2157C36.8192 25.5947 37.6471 22.5795 37.6471 19.3726C37.6471 9.28659 29.4585 1.09804 19.3726 1.09804C16.5912 1.09804 13.9541 1.72078 11.5933 2.83427V2.48871C11.5933 2.20745 11.4871 1.94941 11.3114 1.7542ZM2.53726 12.257C1.61059 14.4444 1.09804 16.8491 1.09804 19.3726C1.09804 29.4585 9.28659 37.6471 19.3726 37.6471C22.5795 37.6471 25.5947 36.8192 28.2157 35.3657H29.0115V36.1773C26.172 37.8107 22.8806 38.7451 19.3726 38.7451C8.68055 38.7451 0 30.0646 0 19.3726C0 16.5755 0.594118 13.916 1.66282 11.5136C1.93858 11.7794 2.23062 12.0276 2.53726 12.257ZM30.1095 30.1095V26.9113C30.1095 26.7176 30.1864 26.5319 30.3234 26.395C30.4603 26.258 30.646 26.1811 30.8397 26.1811H33.5375C33.7312 26.1811 33.9169 26.258 34.0538 26.395C34.1908 26.5319 34.2677 26.7176 34.2677 26.9113V30.1095H37.4659C37.6595 30.1095 37.8453 30.1864 37.9822 30.3234C38.1192 30.4603 38.1961 30.646 38.1961 30.8397V33.5375C38.1961 33.7312 38.1192 33.9169 37.9822 34.0538C37.8453 34.1908 37.6595 34.2677 37.4659 34.2677H34.2677V37.4659C34.2677 37.6595 34.1908 37.8453 34.0538 37.9822C33.9169 38.1192 33.7312 38.1961 33.5375 38.1961H30.8397C30.646 38.1961 30.4603 38.1192 30.3234 37.9822C30.1864 37.8453 30.1095 37.6595 30.1095 37.4659V34.2677H26.9113C26.7176 34.2677 26.5319 34.1908 26.395 34.0538C26.258 33.9169 26.1811 33.7312 26.1811 33.5375V30.8397C26.1811 30.646 26.258 30.4603 26.395 30.3234C26.5319 30.1864 26.7176 30.1095 26.9113 30.1095H30.1095ZM0.54902 2.48871C1.93882 2.37859 4.60682 1.20267 5.52212 0.54902C6.43741 1.20267 9.10541 2.37859 10.4952 2.48871V6.83388C10.4952 9.63781 7.64941 11.9935 5.52212 12.564C3.39553 11.9935 0.54902 9.63781 0.54902 6.83388V2.48871ZM2.69451 6.55216L4.58251 8.44016C4.63349 8.49114 4.69401 8.53159 4.76061 8.55918C4.82722 8.58677 4.89861 8.60098 4.97071 8.60098C5.0428 8.60098 5.11419 8.58677 5.1808 8.55918C5.24741 8.53159 5.30793 8.49114 5.3589 8.44016L8.34973 5.44933C8.45262 5.34633 8.51042 5.20669 8.51042 5.0611C8.51042 4.91551 8.45262 4.77587 8.34973 4.67286C8.24673 4.56999 8.1071 4.51221 7.96153 4.51221C7.81596 4.51221 7.67633 4.56999 7.57333 4.67286L4.97067 7.27553L3.4709 5.77577C3.25671 5.56149 2.90878 5.56149 2.69451 5.77577C2.48024 5.99004 2.48024 6.33788 2.69451 6.55216ZM15.6058 20.7629V16.8598L15.6011 16.8678L10.7441 14.0636C10.0589 13.668 9.82408 12.7918 10.2197 12.1067L10.2198 12.1065C10.4098 11.7776 10.7227 11.5376 11.0896 11.4393C11.4565 11.341 11.8475 11.3924 12.1765 11.5823L15.6904 13.6111C15.9808 13.7787 16.3102 13.867 16.6455 13.867H22.0987C22.434 13.867 22.7634 13.7787 23.0537 13.6111L26.5697 11.5811C27.2537 11.1862 28.1283 11.4206 28.5232 12.1045L28.5257 12.1089C28.9206 12.7929 28.6863 13.6675 28.0024 14.0624L23.1431 16.8678L23.1384 16.8598V20.7629H23.1379H15.6058ZM19.3726 6.924C20.8212 6.924 21.9973 8.10008 21.9973 9.54879C21.9973 10.9974 20.8212 12.1736 19.3726 12.1736C17.9239 12.1736 16.7478 10.9974 16.7478 9.54879C16.7478 8.10008 17.9239 6.924 19.3726 6.924ZM19.81 30.2829V24.051C19.81 23.8093 19.6139 23.6133 19.3723 23.6133C19.1307 23.6133 18.9346 23.8093 18.9346 24.051V30.2829C18.9346 30.8015 18.7548 31.3 18.4293 31.6667C18.1214 32.0137 17.7059 32.2133 17.2704 32.2133C16.835 32.2133 16.4195 32.0137 16.1115 31.6667C15.786 31.2999 15.6063 30.8013 15.6063 30.2826L15.6058 21.8609H23.1379L23.1384 30.2829C23.1384 31.3356 22.4087 32.2133 21.4744 32.2133H21.4732C20.5388 32.2123 19.81 31.3351 19.81 30.2829Z" fill="#FF6600"/>
</svg>
