<svg width="50" height="50" viewBox="0 0 50 50" fill="none" xmlns="http://www.w3.org/2000/svg">
<path fill-rule="evenodd" clip-rule="evenodd" d="M50 43.1818C50 44.9901 49.2817 46.7243 48.003 48.003C46.7243 49.2817 44.9901 50 43.1818 50H6.81818C5.00989 50 3.27566 49.2817 1.997 48.003C0.718342 46.7243 0 44.9901 0 43.1818V33.7C0.000988678 31.8926 0.719538 30.1596 1.99773 28.8818L8.15 22.7273C9.60455 21.2727 11.5773 20.4545 13.6364 20.4545V6.81818C13.6364 5.00989 14.3547 3.27566 15.6334 1.997C16.912 0.718342 18.6463 0 20.4545 0H43.1818C44.9901 0 46.7243 0.718342 48.003 1.997C49.2817 3.27566 50 5.00989 50 6.81818V43.1818ZM14.7727 39.7727V47.7273H25V33.7C24.9997 32.4946 24.5207 31.3386 23.6682 30.4864L17.5159 24.3341C16.4864 23.3062 15.0911 22.729 13.6364 22.729C12.1816 22.729 10.7863 23.3062 9.75682 24.3341L3.60455 30.4864C2.75205 31.3386 2.27298 32.4946 2.27273 33.7V43.1818C2.27273 44.3873 2.75162 45.5435 3.60406 46.3959C4.4565 47.2484 5.61265 47.7273 6.81818 47.7273H12.5V39.7727C12.5 39.4713 12.6197 39.1823 12.8328 38.9692C13.0459 38.7561 13.335 38.6364 13.6364 38.6364C13.9377 38.6364 14.2268 38.7561 14.4399 38.9692C14.653 39.1823 14.7727 39.4713 14.7727 39.7727ZM15.9091 20.7955V6.81818C15.9091 5.61265 16.388 4.4565 17.2404 3.60406C18.0929 2.75162 19.249 2.27273 20.4545 2.27273H43.1818C44.3873 2.27273 45.5435 2.75162 46.3959 3.60406C47.2484 4.4565 47.7273 5.61265 47.7273 6.81818V43.1818C47.7273 44.3873 47.2484 45.5435 46.3959 46.3959C45.5435 47.2484 44.3873 47.7273 43.1818 47.7273H27.2727V33.7C27.2717 31.8926 26.5532 30.1596 25.275 28.8818L19.1227 22.7273C18.2256 21.8302 17.1222 21.1669 15.9091 20.7955ZM35.2273 9.09091C34.9259 9.09091 34.6369 9.21063 34.4237 9.42374C34.2106 9.63685 34.0909 9.92589 34.0909 10.2273C34.0909 10.5287 34.2106 10.8177 34.4237 11.0308C34.6369 11.2439 34.9259 11.3636 35.2273 11.3636H39.7727C40.0741 11.3636 40.3631 11.2439 40.5763 11.0308C40.7894 10.8177 40.9091 10.5287 40.9091 10.2273C40.9091 9.92589 40.7894 9.63685 40.5763 9.42374C40.3631 9.21063 40.0741 9.09091 39.7727 9.09091H35.2273ZM34.0909 19.3182C34.0909 19.0168 34.2106 18.7278 34.4237 18.5147C34.6369 18.3015 34.9259 18.1818 35.2273 18.1818H39.7727C40.0741 18.1818 40.3631 18.3015 40.5763 18.5147C40.7894 18.7278 40.9091 19.0168 40.9091 19.3182C40.9091 19.6196 40.7894 19.9086 40.5763 20.1217C40.3631 20.3348 40.0741 20.4545 39.7727 20.4545H35.2273C34.9259 20.4545 34.6369 20.3348 34.4237 20.1217C34.2106 19.9086 34.0909 19.6196 34.0909 19.3182ZM35.2273 27.2727C34.9259 27.2727 34.6369 27.3925 34.4237 27.6056C34.2106 27.8187 34.0909 28.1077 34.0909 28.4091C34.0909 28.7105 34.2106 28.9995 34.4237 29.2126C34.6369 29.4257 34.9259 29.5455 35.2273 29.5455H39.7727C40.0741 29.5455 40.3631 29.4257 40.5763 29.2126C40.7894 28.9995 40.9091 28.7105 40.9091 28.4091C40.9091 28.1077 40.7894 27.8187 40.5763 27.6056C40.3631 27.3925 40.0741 27.2727 39.7727 27.2727H35.2273ZM22.7273 10.2273C22.7273 9.92589 22.847 9.63685 23.0601 9.42374C23.2732 9.21063 23.5623 9.09091 23.8636 9.09091H28.4091C28.7105 9.09091 28.9995 9.21063 29.2126 9.42374C29.4257 9.63685 29.5455 9.92589 29.5455 10.2273C29.5455 10.5287 29.4257 10.8177 29.2126 11.0308C28.9995 11.2439 28.7105 11.3636 28.4091 11.3636H23.8636C23.5623 11.3636 23.2732 11.2439 23.0601 11.0308C22.847 10.8177 22.7273 10.5287 22.7273 10.2273ZM23.8636 18.1818C23.5623 18.1818 23.2732 18.3015 23.0601 18.5147C22.847 18.7278 22.7273 19.0168 22.7273 19.3182C22.7273 19.6196 22.847 19.9086 23.0601 20.1217C23.2732 20.3348 23.5623 20.4545 23.8636 20.4545H28.4091C28.7105 20.4545 28.9995 20.3348 29.2126 20.1217C29.4257 19.9086 29.5455 19.6196 29.5455 19.3182C29.5455 19.0168 29.4257 18.7278 29.2126 18.5147C28.9995 18.3015 28.7105 18.1818 28.4091 18.1818H23.8636Z" fill="white"/>
</svg>
