<svg width="40" height="40" viewBox="0 0 40 40" fill="none" xmlns="http://www.w3.org/2000/svg">
<path d="M29.0196 34.9036H10.9804C10.5473 34.9036 10.1961 34.5524 10.1961 34.1193V29.4134C10.1961 28.9803 10.5473 28.6291 10.9804 28.6291H29.0196C29.4527 28.6291 29.8039 28.9803 29.8039 29.4134V34.1193C29.8039 34.5525 29.4527 34.9036 29.0196 34.9036ZM11.7647 33.335H28.2353V30.1978H11.7647V33.335ZM5.4902 37.6487H0.784314C0.351216 37.6487 0 37.2975 0 36.8644V26.6683C0 26.2352 0.351216 25.884 0.784314 25.884H5.4902C5.92329 25.884 6.27451 26.2352 6.27451 26.6683V36.8644C6.27451 37.2976 5.92329 37.6487 5.4902 37.6487ZM1.56863 36.0801H4.70588V27.4527H1.56863V36.0801Z" fill="#FF6600"/>
<path d="M10.9806 40.0018H5.49037C5.05727 40.0018 4.70605 39.6506 4.70605 39.2175V24.3156C4.70605 23.8825 5.05727 23.5312 5.49037 23.5312H10.9806C11.4137 23.5312 11.7649 23.8825 11.7649 24.3156V39.2175C11.7649 39.6507 11.4137 40.0018 10.9806 40.0018ZM6.27468 38.4332H10.1963V25.0999H6.27468V38.4332ZM39.2159 37.6489H34.51C34.0769 37.6489 33.7257 37.2977 33.7257 36.8646V26.6685C33.7257 26.2354 34.0769 25.8842 34.51 25.8842H39.2159C39.649 25.8842 40.0002 26.2354 40.0002 26.6685V36.8646C40.0002 37.2978 39.649 37.6489 39.2159 37.6489ZM35.2943 36.0803H38.4315V27.4528H35.2943V36.0803Z" fill="#FF6600"/>
<path d="M34.5099 40.0018H29.0197C28.5866 40.0018 28.2354 39.6505 28.2354 39.2174V24.3155C28.2354 23.8824 28.5866 23.5312 29.0197 23.5312H34.5099C34.943 23.5312 35.2942 23.8824 35.2942 24.3155V39.2174C35.2942 39.6506 34.943 40.0018 34.5099 40.0018ZM29.8041 38.4331H33.7256V25.0998H29.8041V38.4331ZM19.4419 25.298L7.44437 13.149C4.45276 10.1193 4.48366 5.22073 7.51323 2.2292C10.5434 -0.76272 15.4267 -0.746092 18.433 2.29814L20.0001 3.88481L21.568 2.29799C24.5712 -0.745543 29.4569 -0.763112 32.4876 2.22912L32.4877 2.22928C35.5238 5.2285 35.5551 10.1124 32.5553 13.149L20.5579 25.298C20.2507 25.609 19.7487 25.6087 19.4419 25.298ZM8.61543 3.34536C6.20131 5.7292 6.17668 9.63257 8.56052 12.0467L19.9999 23.6307L31.4393 12.0468C33.8234 9.63328 33.7992 5.72983 31.3853 3.34528C28.9705 0.961202 25.0776 0.974692 22.6842 3.4001L20.5578 5.5521C20.4848 5.62593 20.398 5.68455 20.3022 5.72456C20.2064 5.76457 20.1037 5.78518 19.9999 5.7852C19.8961 5.78519 19.7932 5.76458 19.6975 5.72455C19.6017 5.68452 19.5148 5.62588 19.4419 5.55203L17.3168 3.40034C14.923 0.976339 11.0318 0.959476 8.61543 3.34536Z" fill="#FF6600"/>
<path d="M20.3192 16.4689C20.1539 16.4535 19.9978 16.3861 19.8734 16.2763C19.7489 16.1665 19.6624 16.0201 19.6265 15.8581L18.4278 10.464L17.098 12.237C17.0249 12.3344 16.9302 12.4135 16.8213 12.4679C16.7124 12.5224 16.5923 12.5507 16.4705 12.5507H12.549C12.1159 12.5507 11.7646 12.1995 11.7646 11.7664C11.7646 11.3333 12.1159 10.9821 12.549 10.9821H16.0784L18.196 8.15859C18.286 8.03855 18.4085 7.94683 18.549 7.89433C18.6896 7.84182 18.8422 7.83073 18.9888 7.86236C19.1355 7.89399 19.27 7.96701 19.3764 8.07278C19.4827 8.17854 19.5566 8.3126 19.589 8.45906L20.6298 13.1423L22.0241 9.88886C22.0797 9.75899 22.1694 9.64657 22.2837 9.56347C22.398 9.48037 22.5326 9.42968 22.6732 9.41676C22.8139 9.40384 22.9555 9.42917 23.083 9.49007C23.2105 9.55097 23.3191 9.64518 23.3975 9.76274L24.7333 11.7664H27.4509C27.884 11.7664 28.2352 12.1176 28.2352 12.5507C28.2352 12.9838 27.884 13.3351 27.4509 13.3351H24.3137C24.1846 13.3351 24.0574 13.3032 23.9436 13.2423C23.8298 13.1813 23.7327 13.0932 23.6611 12.9858L22.8956 11.8376L21.113 15.9969C21.0476 16.1495 20.9355 16.2773 20.7929 16.3622C20.6503 16.447 20.4844 16.4844 20.3192 16.4689Z" fill="#FF6600"/>
</svg>
