<svg width="40" height="39" viewBox="0 0 40 39" fill="none" xmlns="http://www.w3.org/2000/svg">
<path d="M5.66125 0C4.64352 0 3.78125 0.726016 3.56859 1.68391C2.50555 1.80563 1.66711 2.71969 1.66711 3.81281V7.74836C0.706328 8.04664 0 8.94664 0 10V12.5572C0 16.9363 3.00406 20.5727 7.0368 21.7076V24.428C7.0368 25.5751 7.80789 26.5527 8.85602 26.8708V31.0435C8.85602 35.1483 12.1815 38.4752 16.2848 38.4752C20.3882 38.4752 23.7137 35.1483 23.7137 31.0435V22.3102C23.7137 18.9718 26.3777 16.3072 29.714 16.3072C33.0503 16.3072 35.7143 18.9719 35.7143 22.3102V29.315C34.0522 29.635 32.786 31.1053 32.786 32.8571C32.786 34.8408 34.4086 36.4648 36.3923 36.4648C38.3761 36.4648 40 34.8409 40 32.8571C40 31.1308 38.7695 29.6771 37.1429 29.3289V22.3102C37.1429 18.2055 33.8174 14.8786 29.7141 14.8786C25.6107 14.8786 22.2852 18.2055 22.2852 22.3102V31.0435C22.2852 34.382 19.6213 37.0466 16.2849 37.0466C12.9486 37.0466 10.2846 34.3819 10.2846 31.0435V26.882C11.3524 26.5765 12.1429 25.5892 12.1429 24.428V21.7076C16.1762 20.573 19.1797 16.9366 19.1797 12.5572V10C19.1797 8.94711 18.4741 8.04703 17.514 7.74836V3.81281C17.514 2.72094 16.6751 1.81719 15.6139 1.69367C15.4051 0.730859 14.5397 0 13.5185 0C12.3435 0 11.3756 0.967891 11.3756 2.14289C11.3756 3.31789 12.3435 4.28578 13.5185 4.28578C14.3487 4.28578 15.0747 3.80211 15.4298 3.10414C15.8076 3.1325 16.0855 3.425 16.0855 3.81281V7.76367C15.1484 8.07617 14.4644 8.96367 14.4644 10V12.5572C14.4644 15.3043 12.3389 17.4288 9.58992 17.4288C6.84094 17.4288 4.71547 15.3043 4.71547 12.5572V10C4.71547 8.9643 4.03195 8.07812 3.09578 7.76508V3.81281C3.09578 3.42508 3.37242 3.12977 3.75008 3.10133C4.10477 3.80047 4.83031 4.28578 5.66133 4.28578C6.83633 4.28578 7.80422 3.31789 7.80422 2.14289C7.80422 0.967891 6.83625 0 5.66125 0ZM36.3909 31.2123C37.2994 31.2116 38.0375 31.9473 38.0385 32.8558C38.0392 33.7654 37.3005 34.5041 36.3909 34.5034C35.4825 34.5023 34.7469 33.7641 34.7475 32.8558C34.7485 31.9485 35.4837 31.2134 36.3909 31.2123Z" fill="#FF6600"/>
</svg>
