<svg xmlns="http://www.w3.org/2000/svg" width="50" height="50" viewBox="0 0 50 50" fill="none"><path d="M30.1436 34.9248L33.9248 41.0977L37.958 34.8994L36.0146 34.9053C35.5859 34.9082 35.2344 34.5615 35.2344 34.1299V27.1816H32.915V34.1406C32.915 34.5723 32.5664 34.9189 32.1367 34.9189L30.1436 34.9248ZM33.2383 42.9639L28.1172 34.6016C27.7324 34.0234 28.1641 33.3672 28.7539 33.3672H31.3584L31.3555 26.4023C31.3555 25.9707 31.7041 25.6221 32.1357 25.6221H36.0117V25.625C36.4404 25.625 36.79 25.9736 36.79 26.4033V33.3486L39.3643 33.3408C40.0254 33.3242 40.3799 34.0332 40.0479 34.542L34.5752 42.957C34.249 43.4814 33.5322 43.4453 33.2383 42.9639ZM34.0742 21.2393C41.3877 21.2393 47.3145 27.166 47.3145 34.4795C47.3145 41.793 41.3877 47.7227 34.0742 47.7227C28.0703 47.7227 22.9043 43.7002 21.3242 38.0645H10.2793C8.29492 38.0645 6.84668 36.4561 6.68652 34.5352L4.91699 13.4629H4.42188C3.46387 13.4629 2.68359 12.6826 2.68359 11.7275V9.1748C2.68359 8.21973 3.46387 7.43945 4.42188 7.43945H12.0898V5.60645C12.0898 3.73828 13.6152 2.21289 15.4834 2.21289H21.3516C23.2197 2.21289 24.7451 3.73828 24.7451 5.60645V7.43945H32.416C33.374 7.43945 34.1514 8.21973 34.1514 9.1748V11.7275C34.1514 12.6826 33.373 13.4629 32.416 13.4629H31.918L31.2402 21.543C32.1533 21.3438 33.1025 21.2393 34.0742 21.2393ZM20.9863 36.5029C20.8867 35.8438 20.834 35.1689 20.834 34.4795C20.834 31.0723 22.1182 27.9658 24.2334 25.6211L24.668 19.0664C24.6953 18.6377 25.0635 18.3105 25.4961 18.3359C25.9248 18.3633 26.2519 18.7344 26.2246 19.1641L25.9004 24.0635C27.0156 23.1885 28.2754 22.4853 29.6348 22.001L30.3516 13.4639H6.4834L8.24121 34.4053C8.33496 35.5205 9.12402 36.5039 10.2783 36.5039H20.9863V36.5029ZM42.332 26.2217C37.7725 21.6602 30.376 21.6602 25.8174 26.2217C21.2559 30.7842 21.2559 38.1777 25.8174 42.7373C30.377 47.2988 37.7734 47.2988 42.332 42.7373C46.8945 38.1777 46.8945 30.7842 42.332 26.2217ZM23.1846 7.43945V5.60645C23.1846 4.60156 22.3594 3.77637 21.3516 3.77637H15.4834C14.4785 3.77637 13.6533 4.60156 13.6533 5.60645V7.43945H23.1846ZM17.6367 18.5127C17.6367 18.0811 17.9854 17.7295 18.417 17.7295C18.8486 17.7295 19.1973 18.0811 19.1973 18.5127V30.1279C19.1973 30.5596 18.8486 30.9111 18.417 30.9111C17.9854 30.9111 17.6367 30.5596 17.6367 30.1279V18.5127ZM10.6113 19.1631C10.5859 18.7344 10.9131 18.3633 11.3418 18.335C11.7705 18.3096 12.1416 18.6367 12.1699 19.0654L12.8926 30C12.9199 30.4287 12.5937 30.7998 12.1641 30.8252C11.7324 30.8525 11.3643 30.5264 11.3359 30.0967L10.6113 19.1631ZM4.42188 11.9014H32.417C32.5107 11.9014 32.5918 11.8213 32.5918 11.7266V9.1748C32.5918 9.08105 32.5117 9 32.417 9H4.42188C4.3252 9 4.24512 9.08008 4.24512 9.1748V11.7275C4.24414 11.8213 4.32422 11.9014 4.42188 11.9014Z" fill="#F0A538"></path></svg>