<svg xmlns="http://www.w3.org/2000/svg" width="56" height="56" viewBox="0 0 56 56" fill="none"><path d="M16.334 21L27.4656 11.0487C30.485 8.34955 31.9946 7 33.834 7C35.6734 7 37.183 8.34955 40.2023 11.0487L51.334 21" stroke="#F68A0A" stroke-width="1.5" stroke-linecap="round" stroke-linejoin="round"></path><path d="M19.834 18.6667V46.6667M47.834 46.6667V18.6667" stroke="#F68A0A" stroke-width="1.5" stroke-linecap="round" stroke-linejoin="round"></path><path d="M8.16602 32.6666C10.099 32.6666 11.666 30.5772 11.666 27.9999C11.666 25.4226 10.099 23.3333 8.16602 23.3333C6.23302 23.3333 4.66602 25.4226 4.66602 27.9999C4.66602 30.5772 6.23302 32.6666 8.16602 32.6666Z" stroke="#F68A0A" stroke-width="1.5"></path><path d="M8.16602 32.6667V46.6667" stroke="#F68A0A" stroke-width="1.5" stroke-linecap="round"></path><path d="M4.66602 46.6667H51.3327" stroke="#F68A0A" stroke-width="1.5" stroke-linecap="round" stroke-linejoin="round"></path><path d="M28 46.6667V37.3327C28 35.1333 28 34.0336 28.6834 33.3502C29.3669 32.6667 30.4668 32.6667 32.6667 32.6667H35C37.1999 32.6667 38.2998 32.6667 38.9832 33.3502C39.6667 34.0336 39.6667 35.1335 39.6667 37.3334V46.6667" stroke="#F68A0A" stroke-width="1.5" stroke-linecap="round" stroke-linejoin="round"></path><path d="M31.5 25.6667H36.1667M31.5 18.6667H36.1667" stroke="#F68A0A" stroke-width="1.5" stroke-linecap="round" stroke-linejoin="round"></path></svg>