<svg xmlns="http://www.w3.org/2000/svg" width="56" height="56" viewBox="0 0 56 56" fill="none"><path d="M30.334 38.9744C30.334 36.8326 30.334 35.7618 30.8086 34.8348C31.283 33.9078 32.1678 33.2502 33.9371 31.9354L35.1038 31.0683C37.8564 29.0227 39.2328 28 40.834 28C42.4351 28 43.8115 29.0227 46.5642 31.0683L47.7308 31.9354C49.5002 33.2502 50.385 33.9078 50.8594 34.8348C51.334 35.7618 51.334 36.8326 51.334 38.9744V42.4158C51.334 46.6195 51.334 48.7214 49.9671 50.0274C48.6002 51.3333 46.4004 51.3333 42.0006 51.3333H30.334V38.9744Z" stroke="#F68A0A" stroke-width="1.5" stroke-linejoin="round"></path><path d="M41.9994 28.0005V11.6667C41.9994 5.87541 40.7907 4.66675 34.9994 4.66675H25.666C19.8747 4.66675 18.666 5.87541 18.666 11.6667V51.3334" stroke="#F68A0A" stroke-width="1.5" stroke-linecap="round" stroke-linejoin="round"></path><path d="M8.16602 37.3333C10.099 37.3333 11.666 35.244 11.666 32.6667C11.666 30.0893 10.099 28 8.16602 28C6.23302 28 4.66602 30.0893 4.66602 32.6667C4.66602 35.244 6.23302 37.3333 8.16602 37.3333Z" stroke="#F68A0A" stroke-width="1.5"></path><path d="M8.16602 37.3333V51.3333" stroke="#F68A0A" stroke-width="1.5" stroke-linecap="round"></path><path d="M4.66602 51.3333H46.666" stroke="#F68A0A" stroke-width="1.5" stroke-linecap="round"></path><path d="M28 14H32.6667M28 21H32.6667" stroke="#F68A0A" stroke-width="1.5" stroke-linecap="round"></path><path d="M40.834 51.3334V46.6667" stroke="#F68A0A" stroke-width="1.5" stroke-linecap="round" stroke-linejoin="round"></path></svg>