<svg xmlns="http://www.w3.org/2000/svg" width="56" height="56" viewBox="0 0 56 56" fill="none"><path d="M52.2058 26.5485L49.9789 25.5909V24.0682C50.0102 14.7225 44.1134 6.38404 35.2912 3.29994V1.15394C35.2912 0.516948 34.7743 0 34.1377 0H21.7919C21.1553 0 20.6384 0.516948 20.6384 1.15394V3.31128C11.8162 6.39538 5.91942 14.7338 5.9507 24.0795V25.614L3.74683 26.5485C3.31982 26.7288 3.04297 27.1476 3.04297 27.6102V33.6677C3.04297 34.3043 3.55992 34.8213 4.19691 34.8213H5.69692V37.1292C5.69692 37.7658 6.21348 38.2827 6.85048 38.2827H10.9927C11.3861 39.7272 11.964 41.1165 12.7117 42.4132L9.78128 45.344C9.33355 45.7937 9.33355 46.5206 9.78128 46.9707L14.6849 51.8743C15.1345 52.322 15.8615 52.322 16.3116 51.8743L19.242 48.9439C20.5355 49.6915 21.9202 50.2683 23.3611 50.6629V54.8051C23.3611 55.4417 23.8781 55.9587 24.5151 55.9587H31.4376C32.0746 55.9587 32.5915 55.4417 32.5915 54.8051V50.6629C34.036 50.2695 35.425 49.6927 36.722 48.9439L39.6528 51.8743C40.1025 52.322 40.8295 52.322 41.2795 51.8743L46.1831 46.9707C46.6308 46.5206 46.6308 45.7937 46.1831 45.344L43.2523 42.4132C44 41.1165 44.5783 39.7272 44.9717 38.2827H49.1135C49.7505 38.2827 50.2675 37.7658 50.2675 37.1292V34.8213H51.7675C52.4045 34.8213 52.921 34.3043 52.921 33.6677V27.6102C52.9187 27.1441 52.6364 26.7253 52.2058 26.5485ZM22.9228 2.31923H32.9837V21.5988H22.9459L22.9228 2.31923ZM47.9713 35.9752H44.1294C43.5757 35.9623 43.092 36.3455 42.9754 36.8863C42.5868 38.6933 41.8716 40.4135 40.8643 41.9631C40.5675 42.4191 40.6312 43.0201 41.014 43.4053L43.7716 46.1628L40.4717 49.4397L37.7141 46.6821C37.3289 46.2993 36.7279 46.2356 36.2719 46.5324C34.7223 47.5393 33.0021 48.2549 31.1951 48.6436C30.6539 48.7601 30.2711 49.2438 30.2836 49.7975V53.6856H25.6686V49.7627C25.6815 49.209 25.2983 48.7257 24.7571 48.6092C22.9506 48.2213 21.23 47.5061 19.6807 46.4976C19.2248 46.2012 18.6238 46.2645 18.2382 46.6477L15.4806 49.4053L12.2155 46.1398L14.9731 43.3822C15.3563 42.997 15.4196 42.396 15.1232 41.9401C14.1065 40.3998 13.3796 38.6874 12.9772 36.8863C12.8603 36.3455 12.377 35.9623 11.8233 35.9752H7.98135V34.8213H18.5268C19.1591 40.0342 23.8976 43.747 29.1105 43.1136C33.4534 42.5864 36.8765 39.1641 37.4028 34.8213H47.96L47.9713 35.9752ZM20.8804 34.8213H35.0836C34.4489 38.7465 30.7521 41.4141 26.8273 40.7795C23.7651 40.2844 21.3641 37.8835 20.8691 34.8213H20.8804ZM50.6253 32.5138H5.33913V28.3715L7.56568 27.4139C7.99269 27.234 8.26954 26.8152 8.26954 26.3522V24.0447C8.24412 15.9867 13.15 8.73416 20.6384 5.75721V22.7528C20.6384 23.3894 21.1549 23.9063 21.7919 23.9063H34.1604C34.7973 23.9063 35.3143 23.3894 35.3143 22.7528V5.75721C42.8151 8.73298 47.7269 15.9996 47.6945 24.0678V26.3757C47.6945 26.8383 47.9713 27.2571 48.3983 27.437L50.6249 28.3946V32.5138H50.6253Z" fill="#FF6600"></path></svg>