<svg xmlns="http://www.w3.org/2000/svg" width="50" height="50" viewBox="0 0 50 50" fill="none"><g clip-path="url(#clip0_307_2408)"><path d="M49.9083 23.5708C49.8875 23.5208 49.8666 23.475 49.8375 23.4271C49.7875 23.3438 49.7229 23.2729 49.65 23.2063C49.6208 23.1792 49.6083 23.1417 49.575 23.1187C49.5605 23.1083 49.5396 23.1083 49.525 23.0979C49.5062 23.0854 49.4958 23.0667 49.475 23.0542L44.7979 20.3813C45.4229 19.7792 45.8334 18.9646 45.8334 18.0438C45.8334 16.8 45.1396 15.6792 44.0251 15.1187L36.3918 11.3021L37.2772 9.0875L37.8772 8.7875C38.1877 8.975 38.546 9.07705 38.9189 9.07705C39.1085 9.07705 39.3022 9.05205 39.4939 8.99785L47.5231 6.70205C48.9813 6.2833 50 4.9333 50 3.4167C50 1.5333 48.4667 0 46.5833 0H45.625C44.85 0 44.0917 0.266699 43.4896 0.747949L37.6479 5.4209C37.1646 5.8084 36.9271 6.3667 36.9062 6.94385L35.9916 7.4001C35.7624 7.51465 35.5833 7.7084 35.4896 7.9459L34.5208 10.3667L31.6104 8.9125C29.3874 7.8 26.5374 8.40205 24.9521 10.3042L16.0771 20.9542L0.775 25.0354C0.716699 25.0521 0.672949 25.0875 0.61875 25.1125C0.5875 25.1271 0.55 25.1208 0.51875 25.1395C0.5 25.15 0.491699 25.1729 0.475 25.1833C0.34375 25.2708 0.229199 25.3771 0.15 25.5104C0.141699 25.5249 0.1375 25.5396 0.129199 25.5541C0.0604492 25.6833 0.025 25.8271 0.0166992 25.9771C0.0166992 26 0 26.0187 0 26.0416V40.625C0 40.9979 0.2 41.3438 0.525 41.5292L15.1083 49.8625C15.2688 49.9542 15.4479 50 15.625 50C15.7271 50 15.8333 49.9855 15.9354 49.952L49.2687 39.5354C49.7042 39.3999 50 38.9978 50 38.5416V23.9583C50 23.9229 49.9792 23.8938 49.9771 23.8583C49.9667 23.7583 49.9458 23.6646 49.9083 23.5708ZM44.7937 2.375C45.0271 2.1875 45.323 2.0833 45.625 2.0833H46.5854C47.3209 2.0833 47.9187 2.68125 47.9187 3.4166C47.9187 4.0083 47.5208 4.53535 46.952 4.69785L39.475 6.83535C39.4729 6.83115 39.4729 6.8291 39.4729 6.8249C39.45 6.77695 39.4084 6.74785 39.3792 6.70615L44.7937 2.375ZM26.5542 11.6375C27.2021 10.8625 28.1521 10.4167 29.1625 10.4167C29.6854 10.4167 30.2104 10.5417 30.6854 10.7729L33.7459 12.3021L33.5354 12.8271L23.4209 18.8979C22.9292 19.1938 22.7688 19.8334 23.0646 20.3271C23.2605 20.6542 23.6042 20.8334 23.9584 20.8334C24.1417 20.8334 24.3271 20.7854 24.4938 20.6834L34.9105 14.4334C35.1063 14.3167 35.2563 14.1396 35.3418 13.9271L35.6168 13.2396L43.098 16.9792C43.5022 17.1834 43.7543 17.5896 43.7543 18.05C43.7543 18.5958 43.3835 19.0688 42.8543 19.2021L42.348 19.3291C42.346 19.3291 42.3418 19.3312 42.3397 19.3312L14.3043 26.3395L26.5542 11.6375ZM14.5833 47.1625L2.0833 40.0208V27.8375L14.5833 34.9792V47.1625ZM15.7479 33.2458L3.76045 26.3958L13.7688 23.7271L10.6583 27.4583C10.3708 27.8062 10.3375 28.2979 10.5771 28.6791C10.7688 28.9874 11.1062 29.1666 11.4583 29.1666C11.5416 29.1666 11.6271 29.1562 11.7125 29.1333L15.2125 28.2583L18.2146 30.0604C18.3833 30.1604 18.5688 30.2083 18.75 30.2083C19.1021 30.2083 19.4479 30.0291 19.6437 29.7041C19.9396 29.2104 19.7812 28.5708 19.2875 28.2749L18.0688 27.5437L22.0729 26.5437L24.4646 27.977C24.6334 28.077 24.8188 28.1249 25.0001 28.1249C25.3521 28.1249 25.698 27.9457 25.8938 27.6207C26.1896 27.127 26.0313 26.4874 25.5376 26.1915L24.9313 25.829L28.9376 24.827L30.7126 25.8937C30.8834 25.9937 31.0688 26.0416 31.2501 26.0416C31.6021 26.0416 31.948 25.8624 32.1438 25.5374C32.4376 25.0457 32.2813 24.4104 31.7938 24.1124L35.8001 23.1104L36.9646 23.8083C37.1334 23.9104 37.3188 23.9583 37.5001 23.9583C37.8521 23.9583 38.198 23.7791 38.3938 23.4541C38.5834 23.1374 38.5688 22.7666 38.4146 22.4583L42.4626 21.4458L46.3668 23.6771L15.7479 33.2458ZM47.9167 37.775L16.6667 47.5417V35.1396L47.9167 25.375V37.775Z" fill="#F0A538"></path></g><defs><clipPath id="clip0_307_2408"><rect width="50" height="50" fill="white"></rect></clipPath></defs></svg>