<svg xmlns="http://www.w3.org/2000/svg" width="50" height="50" viewBox="0 0 50 50" fill="none"><path d="M49.9566 47.6694L48.0946 42.539L49.215 42.5435H49.2179C49.4784 42.5435 49.7193 42.4052 49.8505 42.18C49.9821 41.954 49.9832 41.6749 49.8533 41.4479L47.3717 37.1093L48.1479 37.1125H48.1509C48.4113 37.1125 48.6522 36.974 48.7834 36.749C48.9151 36.523 48.9161 36.2439 48.7863 36.0169L46.5097 32.0366C46.7367 32.0101 46.9405 31.8785 47.0573 31.678C47.189 31.452 47.1901 31.173 47.0603 30.9459L44.1116 25.7909C43.9817 25.5639 43.7407 25.4233 43.4791 25.4224C43.4781 25.4224 43.4771 25.4224 43.4761 25.4224C43.2157 25.4224 42.9748 25.5608 42.8436 25.7859L42.3325 26.6629L40.7612 22.3333H46.7614C46.9408 22.3333 47.114 22.2674 47.248 22.1482C47.7242 21.7245 47.9973 21.1174 47.9973 20.4826C47.9973 19.2526 46.9966 18.2519 45.7666 18.2519H43.1085C42.6066 16.7057 41.1418 15.6045 39.4717 15.6045C39.0985 15.6045 38.7313 15.6584 38.3772 15.7644L34.7472 5.76174C34.745 5.75549 34.7426 5.74934 34.7401 5.7431C34.4341 4.96641 33.6972 4.45923 32.8624 4.45084C32.0293 4.44635 31.2805 4.93479 30.959 5.70532C30.9526 5.72065 30.9467 5.73617 30.9413 5.75188L26.6207 18.4755C26.4907 18.8583 26.6957 19.2741 27.0785 19.404C27.461 19.5339 27.8771 19.3291 28.0071 18.9462L28.5556 17.3308L29.5864 18.6044C29.7327 18.7852 29.9577 18.8861 30.1884 18.8753C30.4206 18.8647 30.6341 18.7447 30.7636 18.5515L32.6252 15.7745L34.9413 20.2565C35.067 20.4998 35.318 20.6525 35.5917 20.6525H35.5971C35.8728 20.6504 36.124 20.4936 36.2469 20.2469L37.5196 17.6923L41.373 28.3101L39.8538 30.917C39.7221 31.1431 39.7211 31.4221 39.851 31.6491C39.9708 31.8586 40.1851 31.9944 40.4229 32.015L38.1158 35.9739C37.9841 36.1999 37.983 36.479 38.1128 36.7059C38.2428 36.9329 38.4839 37.0735 38.7454 37.0745L39.5503 37.0777L37.0338 41.3961C36.9021 41.622 36.901 41.9011 37.0308 42.1282C37.1608 42.3552 37.4019 42.4958 37.6633 42.4967L41.1608 42.5109V44.2273C40.6529 44.0073 40.0957 43.8858 39.5159 43.8858C37.5323 43.8858 35.8412 45.2643 35.4323 47.1869H24.8162C24.409 45.2862 22.703 43.8858 20.7335 43.8858C19.5184 43.8858 18.3889 44.4125 17.6094 45.2909C17.4762 45.0678 17.3276 44.8557 17.1642 44.6562V38.7786L23.566 38.8043H23.5689C23.8294 38.8043 24.0703 38.6659 24.2015 38.4408C24.3331 38.2148 24.3343 37.9358 24.2044 37.7088L19.9384 30.2508L21.887 30.2586H21.8899C22.1504 30.2586 22.3913 30.1201 22.5225 29.8951C22.6541 29.6691 22.6553 29.39 22.5254 29.1631L20.0538 24.8419L20.9804 23.262C20.9867 23.2513 20.9927 23.2404 20.9984 23.2295C21.1403 22.9566 21.3937 22.9217 21.4961 22.9194C21.5979 22.9164 21.8533 22.9401 22.0078 23.2059L22.6295 24.2759C23.0215 24.9506 23.7474 25.3382 24.5273 25.2869C25.3059 25.2358 25.9762 24.7568 26.2766 24.0367C26.283 24.0214 26.2888 24.0059 26.2942 23.9901L27.0638 21.7238C27.1938 21.341 26.9889 20.9252 26.606 20.7953C26.2234 20.6651 25.8074 20.8702 25.6774 21.2531L24.9173 23.4915C24.7901 23.7724 24.5364 23.8189 24.4315 23.8259C24.3239 23.8326 24.0576 23.8191 23.8955 23.5404L23.2738 22.4703C22.8944 21.8173 22.2188 21.4393 21.462 21.4556C20.7137 21.4731 20.06 21.8763 19.709 22.5356L19.2157 23.3767L18.5868 22.2771L19.1712 22.2794H19.1741C19.4346 22.2794 19.6755 22.1411 19.8067 21.9159C19.9383 21.69 19.9395 21.4109 19.8096 21.1838L15.1699 13.0723C15.04 12.8453 14.799 12.7047 14.5374 12.7038C14.5364 12.7038 14.5354 12.7038 14.5344 12.7038C14.274 12.7038 14.0331 12.8421 13.9019 13.0673L9.19712 21.1414C9.06544 21.3675 9.06427 21.6464 9.19419 21.8735C9.32401 22.1005 9.5652 22.2411 9.8267 22.242L10.4563 22.2446L9.24016 24.3314L8.24786 22.5966C8.11804 22.3695 7.87684 22.229 7.61535 22.228C7.61437 22.228 7.6133 22.228 7.61242 22.228C7.35199 22.228 7.11109 22.3664 6.9799 22.5915L3.55281 28.4725C3.42114 28.6985 3.41997 28.9775 3.54988 29.2046C3.6798 29.4316 3.9208 29.5722 4.1824 29.5731L4.2966 29.5736L1.56079 34.2683C1.42911 34.4943 1.42794 34.7733 1.55786 35.0004C1.68778 35.2274 1.92887 35.368 2.19037 35.3689L3.29825 35.3734L0.320649 40.483C0.188973 40.709 0.187802 40.9881 0.317721 41.2151C0.44764 41.4421 0.688737 41.5827 0.950234 41.5837L5.06548 41.6003V42.7738C5.06548 43.1781 5.39325 43.5059 5.79755 43.5059C6.20185 43.5059 6.52963 43.1781 6.52963 42.7738V41.6061L8.64699 41.6146V45.1048C8.24532 45.718 7.96703 46.4226 7.84805 47.1869H6.52963V45.702C6.52963 45.2977 6.20185 44.97 5.79755 44.97C5.39325 44.97 5.06548 45.2977 5.06548 45.702V47.2433H0.732076C0.327775 47.2433 0 47.5711 0 47.9754C0 48.3797 0.327775 48.7075 0.732076 48.7075H49.2443C49.5601 48.7075 49.8283 48.5072 49.9311 48.227C50.0119 48.0533 50.0232 47.853 49.9566 47.6694ZM39.472 17.0686C40.637 17.0686 41.6401 17.9367 41.8052 19.088C41.8569 19.4484 42.1657 19.7161 42.5299 19.7161H45.7669C46.1896 19.7161 46.5335 20.06 46.5335 20.4826C46.5335 20.6215 46.4971 20.7535 46.4284 20.8692H40.248C40.2421 20.8692 40.2364 20.87 40.2305 20.8701L38.8783 17.1443C39.071 17.094 39.2699 17.0686 39.472 17.0686ZM35.5798 18.3026L33.3573 14.0018C33.2384 13.7718 33.007 13.6216 32.7485 13.607C32.4897 13.5916 32.243 13.7151 32.0989 13.9302L30.1001 16.9117L29.1124 15.6913L32.3183 6.25047C32.4605 5.93607 32.7558 5.91391 32.8478 5.91499C32.9381 5.91587 33.2413 5.94447 33.3749 6.27224L36.8301 15.7927L35.5798 18.3026ZM48.224 47.1871H45.7499V42.5295L46.5347 42.5326L48.224 47.1871ZM41.4538 36.7195C41.5855 36.4935 41.5866 36.2144 41.4567 35.9874C41.3269 35.7604 41.0858 35.6199 40.8243 35.6188L40.0194 35.6156L42.3249 31.6591C42.4566 31.4331 42.4577 31.154 42.3277 30.927C42.208 30.7176 41.9936 30.5818 41.7559 30.5612L43.4706 27.6186L45.1631 30.5776C44.936 30.604 44.7322 30.7357 44.6153 30.9362C44.4837 31.1621 44.4826 31.4412 44.6125 31.6682L46.8861 35.6431L46.1099 35.64C46.109 35.64 46.1079 35.64 46.107 35.64C45.8466 35.64 45.6057 35.7784 45.4746 36.0035C45.3428 36.2295 45.3418 36.5084 45.4716 36.7356L45.7149 37.1612L47.9532 41.0742L38.9375 41.0378L41.4538 36.7195ZM44.2857 42.5236V47.187H43.5986C43.4434 46.463 43.1002 45.8115 42.625 45.2823V42.5168L44.2857 42.5236ZM39.516 45.3502C40.6863 45.3502 41.7146 46.112 42.083 47.1871H36.9484C37.3153 46.1015 38.3356 45.3502 39.516 45.3502ZM20.7336 45.3502C21.9045 45.3502 22.9323 46.1118 23.3006 47.1871H18.2918C18.2803 47.1127 18.2676 47.0388 18.2531 46.9656C18.6877 45.9838 19.6593 45.3502 20.7336 45.3502ZM15.7002 43.4187C14.9879 43.0124 14.1722 42.7677 13.3028 42.7304V41.6335L14.1902 41.6371H14.1931C14.4535 41.6371 14.6944 41.4988 14.8256 41.2736C14.9573 41.0476 14.9585 40.7685 14.8285 40.5415L13.8125 38.7651L15.7001 38.7727L15.7002 43.4187ZM12.3597 21.8862C12.4914 21.6603 12.4925 21.3812 12.3626 21.1542C12.2327 20.9271 11.9916 20.7866 11.7301 20.7856L11.1005 20.7831L14.5286 14.9004L17.9091 20.8105L17.3248 20.8081C17.3238 20.8081 17.3229 20.8081 17.3219 20.8081C17.0615 20.8081 16.8206 20.9466 16.6894 21.1716C16.5577 21.3977 16.5565 21.6767 16.6864 21.9037L20.6251 28.7895L18.6765 28.7817C18.6755 28.7817 18.6745 28.7817 18.6736 28.7817C18.4132 28.7817 18.1723 28.92 18.0411 29.1452C17.9094 29.3712 17.9082 29.6503 18.0382 29.8772L22.3041 37.3352L12.9733 37.2976L11.8924 35.4081L12.9673 35.4124H12.9702C13.2307 35.4124 13.4716 35.2741 13.6027 35.0489C13.7344 34.8229 13.7356 34.5438 13.6057 34.3168L10.9077 29.6001L10.989 29.6005H10.992C11.2524 29.6005 11.4933 29.4621 11.6245 29.237C11.7562 29.011 11.7573 28.7319 11.6274 28.5049L10.0796 25.799L12.3597 21.8862ZM5.20174 35.015C5.33342 34.789 5.33459 34.51 5.20467 34.2829C5.07485 34.0559 4.83375 33.9153 4.57215 33.9144L3.46428 33.9099L6.2001 29.2151C6.33177 28.9891 6.33294 28.7101 6.20302 28.483C6.07311 28.256 5.83201 28.1154 5.57051 28.1145L5.45631 28.114L7.60656 24.4241L9.72694 28.1312L9.64564 28.1309C9.64466 28.1309 9.64359 28.1309 9.64271 28.1309C9.38228 28.1309 9.14138 28.2693 9.01019 28.4944C8.87852 28.7203 8.87735 28.9994 9.00727 29.2264L11.7052 33.9431L10.6302 33.9389C10.3669 33.9333 10.1264 34.0763 9.99479 34.3024C9.86311 34.5283 9.86204 34.8074 9.99186 35.0344L12.9282 40.1678L2.22414 40.1247L5.20174 35.015ZM11.8386 41.6276V42.8677C11.2125 43.0155 10.6294 43.2742 10.1112 43.6227V41.6207L11.8386 41.6276ZM13.07 44.1892C14.894 44.1892 16.4251 45.4495 16.803 47.1871H9.33699C9.71484 45.4496 11.2462 44.1892 13.07 44.1892Z" fill="#F0A538"></path><path d="M6.83495 9.07331H11.4819C11.8862 9.07331 12.214 8.74554 12.214 8.34124C12.214 7.93693 11.8862 7.60916 11.4819 7.60916H6.83495C6.08521 7.60916 5.45777 7.0073 5.4362 6.26692L5.43522 6.22397C5.40496 4.38685 6.87136 2.83271 8.70409 2.7594C9.79995 2.71538 10.8234 3.18225 11.509 4.03985C11.745 4.33502 12.167 4.40218 12.4828 4.19456C12.8671 3.94214 13.3138 3.80861 13.7747 3.80861C14.9397 3.80861 15.9428 4.67676 16.108 5.82797C16.1597 6.18844 16.4685 6.45609 16.8327 6.45609H20.0274C20.2483 6.45609 20.4643 6.54784 20.62 6.70802C20.7647 6.85678 20.8414 7.04732 20.836 7.24439C20.8323 7.37509 20.796 7.49954 20.731 7.60926H14.4102C14.0059 7.60926 13.6781 7.93703 13.6781 8.34133C13.6781 8.74563 14.0059 9.07341 14.4102 9.07341H21.0645C21.2439 9.07341 21.417 9.00752 21.551 8.88824C22.0098 8.48013 22.2826 7.89574 22.2995 7.2849C22.316 6.68918 22.0923 6.12178 21.6695 5.68712C21.2399 5.24534 20.6413 4.99194 20.0274 4.99194H17.4116C16.9098 3.4457 15.4449 2.34446 13.7748 2.34446C13.2413 2.34446 12.7193 2.45486 12.2375 2.66696C11.283 1.73606 10.0041 1.24264 8.64562 1.29632C6.02488 1.40116 3.92802 3.62247 3.97136 6.24984L3.97273 6.30997C4.01783 7.85953 5.27504 9.07331 6.83495 9.07331Z" fill="#F0A538"></path></svg>