<svg xmlns="http://www.w3.org/2000/svg" width="30" height="22" viewBox="0 0 30 22" fill="none"><path d="M11.666 11.0002H3.33268C2.89065 11.0002 2.46673 10.8246 2.15417 10.512C1.84161 10.1994 1.66602 9.77552 1.66602 9.3335V3.50016C1.66602 3.05814 1.84161 2.63421 2.15417 2.32165C2.46673 2.00909 2.89065 1.8335 3.33268 1.8335H9.99935C10.4414 1.8335 10.8653 2.00909 11.1779 2.32165C11.4904 2.63421 11.666 3.05814 11.666 3.50016V11.0002ZM11.666 11.0002C11.666 15.1668 9.99935 17.6668 4.99935 20.1668M28.3327 11.0002H19.9993C19.5573 11.0002 19.1334 10.8246 18.8208 10.512C18.5083 10.1994 18.3327 9.77552 18.3327 9.3335V3.50016C18.3327 3.05814 18.5083 2.63421 18.8208 2.32165C19.1334 2.00909 19.5573 1.8335 19.9993 1.8335H26.666C27.108 1.8335 27.532 2.00909 27.8445 2.32165C28.1571 2.63421 28.3327 3.05814 28.3327 3.50016V11.0002ZM28.3327 11.0002C28.3327 15.1668 26.666 17.6668 21.666 20.1668" stroke="#209E2E" stroke-width="2" stroke-linecap="round"></path></svg>