<svg xmlns="http://www.w3.org/2000/svg" width="56" height="56" viewBox="0 0 56 56" fill="none"><path d="M49.2066 11.3385L28.1593 0.123396C27.8471 -0.0432511 27.4729 -0.0409123 27.163 0.129243L6.69809 11.3443C6.36246 11.5285 6.1543 11.8805 6.1543 12.2635V26.9132C6.16658 38.9557 13.3014 49.8503 24.3352 54.6749L27.1758 55.9128C27.4413 56.0286 27.7436 56.0291 28.0096 55.914L31.2104 54.5317C42.4489 49.8117 49.7603 38.8119 49.7615 26.6226V12.2635C49.7615 11.8764 49.5481 11.5203 49.2066 11.3385ZM47.6658 26.6226C47.6635 37.9716 40.8543 48.2119 30.3901 52.6038L30.383 52.6073L27.5956 53.8107L25.1737 52.7541C14.903 48.2634 8.26107 38.123 8.24937 26.9132V12.8839L27.6734 2.23835L47.6658 12.8915V26.6226Z" fill="#FF6600"></path><path d="M19.9428 26.2338C19.5668 25.7935 18.9055 25.7414 18.4652 26.1174C18.0249 26.4928 17.9729 27.1547 18.3488 27.5944L23.8839 34.0761C24.2534 34.5088 24.9007 34.5679 25.3416 34.2089L38.2325 23.7212C38.6815 23.3563 38.7494 22.6962 38.3839 22.2471C38.019 21.7986 37.3589 21.7302 36.9098 22.0957L24.813 31.9366L19.9428 26.2338Z" fill="#FF6600"></path></svg>