<svg width="40" height="40" viewBox="0 0 40 40" fill="none" xmlns="http://www.w3.org/2000/svg">
<mask id="path-1-inside-1_1457_5118" fill="white">
<path d="M37.1429 39.9999H2.85714C2.09938 39.9999 1.37266 39.6989 0.836838 39.1631C0.30102 38.6272 0 37.9005 0 37.1428V14.2856C0 13.5278 0.30102 12.8011 0.836838 12.2653C1.37266 11.7295 2.09938 11.4285 2.85714 11.4285H6.66667C6.91925 11.4285 7.1615 11.5288 7.3401 11.7074C7.51871 11.886 7.61905 12.1283 7.61905 12.3808C7.61905 12.6334 7.51871 12.8757 7.3401 13.0543C7.1615 13.2329 6.91925 13.3332 6.66667 13.3332H2.85714C2.60456 13.3332 2.36231 13.4336 2.18371 13.6122C2.0051 13.7908 1.90476 14.033 1.90476 14.2856V37.1428C1.90476 37.3953 2.0051 37.6376 2.18371 37.8162C2.36231 37.9948 2.60456 38.0951 2.85714 38.0951H37.1429C37.3954 38.0951 37.6377 37.9948 37.8163 37.8162C37.9949 37.6376 38.0952 37.3953 38.0952 37.1428V14.2856C38.0952 14.033 37.9949 13.7908 37.8163 13.6122C37.6377 13.4336 37.3954 13.3332 37.1429 13.3332H36.1905C35.9379 13.3332 35.6956 13.2329 35.517 13.0543C35.3384 12.8757 35.2381 12.6334 35.2381 12.3808C35.2381 12.1283 35.3384 11.886 35.517 11.7074C35.6956 11.5288 35.9379 11.4285 36.1905 11.4285H37.1429C37.9006 11.4285 38.6273 11.7295 39.1632 12.2653C39.699 12.8011 40 13.5278 40 14.2856V37.1428C40 37.9005 39.699 38.6272 39.1632 39.1631C38.6273 39.6989 37.9006 39.9999 37.1429 39.9999Z"/>
</mask>
<path d="M37.1429 39.9999H2.85714C2.09938 39.9999 1.37266 39.6989 0.836838 39.1631C0.30102 38.6272 0 37.9005 0 37.1428V14.2856C0 13.5278 0.30102 12.8011 0.836838 12.2653C1.37266 11.7295 2.09938 11.4285 2.85714 11.4285H6.66667C6.91925 11.4285 7.1615 11.5288 7.3401 11.7074C7.51871 11.886 7.61905 12.1283 7.61905 12.3808C7.61905 12.6334 7.51871 12.8757 7.3401 13.0543C7.1615 13.2329 6.91925 13.3332 6.66667 13.3332H2.85714C2.60456 13.3332 2.36231 13.4336 2.18371 13.6122C2.0051 13.7908 1.90476 14.033 1.90476 14.2856V37.1428C1.90476 37.3953 2.0051 37.6376 2.18371 37.8162C2.36231 37.9948 2.60456 38.0951 2.85714 38.0951H37.1429C37.3954 38.0951 37.6377 37.9948 37.8163 37.8162C37.9949 37.6376 38.0952 37.3953 38.0952 37.1428V14.2856C38.0952 14.033 37.9949 13.7908 37.8163 13.6122C37.6377 13.4336 37.3954 13.3332 37.1429 13.3332H36.1905C35.9379 13.3332 35.6956 13.2329 35.517 13.0543C35.3384 12.8757 35.2381 12.6334 35.2381 12.3808C35.2381 12.1283 35.3384 11.886 35.517 11.7074C35.6956 11.5288 35.9379 11.4285 36.1905 11.4285H37.1429C37.9006 11.4285 38.6273 11.7295 39.1632 12.2653C39.699 12.8011 40 13.5278 40 14.2856V37.1428C40 37.9005 39.699 38.6272 39.1632 39.1631C38.6273 39.6989 37.9006 39.9999 37.1429 39.9999Z" fill="#232323"/>
<path d="M0 37.1428L-10.6667 37.1428L0 37.1428ZM0 14.2856H-10.6667H0ZM2.85714 11.4285L2.85714 0.7618L2.85714 11.4285ZM37.1429 39.9999V29.3332H2.85714V39.9999V50.6666H37.1429V39.9999ZM2.85714 39.9999V29.3332C4.92837 29.3332 6.91475 30.156 8.37931 31.6206L0.836838 39.1631L-6.70563 46.7055C-4.16944 49.2417 -0.729609 50.6666 2.85714 50.6666V39.9999ZM0.836838 39.1631L8.37931 31.6206C9.84388 33.0851 10.6667 35.0715 10.6667 37.1428L0 37.1428L-10.6667 37.1428C-10.6667 40.7295 -9.24184 44.1693 -6.70563 46.7055L0.836838 39.1631ZM0 37.1428H10.6667V14.2856H0H-10.6667V37.1428H0ZM0 14.2856L10.6667 14.2856C10.6667 16.3568 9.84388 18.3432 8.37931 19.8078L0.836838 12.2653L-6.70563 4.72283C-9.24184 7.25904 -10.6667 10.6989 -10.6667 14.2856L0 14.2856ZM0.836838 12.2653L8.37931 19.8078C6.91474 21.2723 4.92835 22.0951 2.85714 22.0951L2.85714 11.4285L2.85714 0.7618C-0.729591 0.7618 -4.16943 2.18662 -6.70563 4.72283L0.836838 12.2653ZM2.85714 11.4285V22.0951H6.66667V11.4285V0.7618H2.85714V11.4285ZM6.66667 11.4285V22.0951C4.09027 22.0951 1.61941 21.0717 -0.202371 19.2499L7.3401 11.7074L14.8826 4.16494C12.7036 1.98595 9.74824 0.7618 6.66667 0.7618V11.4285ZM7.3401 11.7074L-0.202371 19.2499C-2.02415 17.4281 -3.04762 14.9572 -3.04762 12.3808H7.61905H18.2857C18.2857 9.29928 17.0616 6.34393 14.8826 4.16494L7.3401 11.7074ZM7.61905 12.3808H-3.04762C-3.04762 9.80446 -2.02416 7.3336 -0.202371 5.51181L7.3401 13.0543L14.8826 20.5968C17.0616 18.4178 18.2857 15.4624 18.2857 12.3808H7.61905ZM7.3401 13.0543L-0.202371 5.51181C1.61942 3.69002 4.0903 2.66656 6.66667 2.66656V13.3332V23.9999C9.74821 23.9999 12.7036 22.7758 14.8826 20.5968L7.3401 13.0543ZM6.66667 13.3332V2.66656H2.85714V13.3332V23.9999H6.66667V13.3332ZM2.85714 13.3332V2.66656C-0.224402 2.66656 -3.17976 3.89069 -5.35876 6.0697L2.18371 13.6122L9.72618 21.1546C7.90439 22.9764 5.43351 23.9999 2.85714 23.9999V13.3332ZM2.18371 13.6122L-5.35876 6.0697C-7.53776 8.2487 -8.76191 11.204 -8.76191 14.2856H1.90476H12.5714C12.5714 16.862 11.548 19.3329 9.72618 21.1546L2.18371 13.6122ZM1.90476 14.2856H-8.76191V37.1428H1.90476H12.5714V14.2856H1.90476ZM1.90476 37.1428H-8.76191C-8.76191 40.2243 -7.53776 43.1797 -5.35876 45.3587L2.18371 37.8162L9.72618 30.2737C11.548 32.0955 12.5714 34.5664 12.5714 37.1428H1.90476ZM2.18371 37.8162L-5.35876 45.3587C-3.17976 47.5377 -0.224402 48.7618 2.85714 48.7618V38.0951V27.4285C5.43351 27.4285 7.90439 28.4519 9.72618 30.2737L2.18371 37.8162ZM2.85714 38.0951V48.7618H37.1429V38.0951V27.4285H2.85714V38.0951ZM37.1429 38.0951V48.7618C40.2244 48.7618 43.1798 47.5377 45.3588 45.3587L37.8163 37.8162L30.2738 30.2737C32.0956 28.4519 34.5665 27.4285 37.1429 27.4285V38.0951ZM37.8163 37.8162L45.3588 45.3587C47.5378 43.1796 48.7619 40.2243 48.7619 37.1428H38.0952H27.4286C27.4286 34.5664 28.452 32.0955 30.2738 30.2737L37.8163 37.8162ZM38.0952 37.1428H48.7619V14.2856H38.0952H27.4286V37.1428H38.0952ZM38.0952 14.2856H48.7619C48.7619 11.2041 47.5378 8.24872 45.3588 6.0697L37.8163 13.6122L30.2738 21.1546C28.452 19.3328 27.4286 16.862 27.4286 14.2856H38.0952ZM37.8163 13.6122L45.3588 6.0697C43.1798 3.89069 40.2244 2.66656 37.1429 2.66656V13.3332V23.9999C34.5665 23.9999 32.0956 22.9764 30.2738 21.1546L37.8163 13.6122ZM37.1429 13.3332V2.66656H36.1905V13.3332V23.9999H37.1429V13.3332ZM36.1905 13.3332V2.66656C38.7668 2.66656 41.2377 3.69001 43.0595 5.51181L35.517 13.0543L27.9746 20.5968C30.1536 22.7758 33.1089 23.9999 36.1905 23.9999V13.3332ZM35.517 13.0543L43.0595 5.51181C44.8813 7.33361 45.9048 9.80449 45.9048 12.3808H35.2381H24.5714C24.5714 15.4624 25.7956 18.4177 27.9746 20.5968L35.517 13.0543ZM35.2381 12.3808H45.9048C45.9048 14.9572 44.8813 17.4281 43.0595 19.2499L35.517 11.7074L27.9746 4.16494C25.7956 6.34395 24.5714 9.2993 24.5714 12.3808H35.2381ZM35.517 11.7074L43.0595 19.2499C41.2377 21.0717 38.7669 22.0951 36.1905 22.0951V11.4285V0.7618C33.1089 0.7618 30.1536 1.98594 27.9746 4.16494L35.517 11.7074ZM36.1905 11.4285V22.0951H37.1429V11.4285V0.7618H36.1905V11.4285ZM37.1429 11.4285V22.0951C35.0716 22.0951 33.0853 21.2723 31.6207 19.8078L39.1632 12.2653L46.7056 4.72283C44.1694 2.18663 40.7296 0.7618 37.1429 0.7618V11.4285ZM39.1632 12.2653L31.6207 19.8078C30.1561 18.3432 29.3333 16.3568 29.3333 14.2856H40H50.6667C50.6667 10.6989 49.2418 7.25903 46.7056 4.72283L39.1632 12.2653ZM40 14.2856H29.3333V37.1428H40H50.6667V14.2856H40ZM40 37.1428H29.3333C29.3333 35.0715 30.1561 33.0851 31.6207 31.6206L39.1632 39.1631L46.7056 46.7055C49.2418 44.1693 50.6667 40.7295 50.6667 37.1428H40ZM39.1632 39.1631L31.6207 31.6206C33.0852 30.156 35.0716 29.3332 37.1429 29.3332V39.9999V50.6666C40.7296 50.6666 44.1694 49.2417 46.7056 46.7055L39.1632 39.1631Z" fill="#FF6600" mask="url(#path-1-inside-1_1457_5118)"/>
<mask id="path-3-inside-2_1457_5118" fill="white">
<path d="M33.3334 40H6.66674C6.41415 40 6.17191 39.8997 5.9933 39.7211C5.8147 39.5424 5.71436 39.3002 5.71436 39.0476V10.9524C5.71583 10.3612 5.85417 9.77845 6.11854 9.24971C6.38291 8.72097 6.76613 8.26063 7.23817 7.90476L8.76197 6.76191C8.99789 6.58387 9.18942 6.35368 9.32159 6.08933C9.45376 5.82498 9.523 5.53364 9.52388 5.2381V3.80952C9.52388 2.79918 9.92524 1.83021 10.6397 1.11578C11.3541 0.401359 12.3231 0 13.3334 0H26.6667C27.6771 0 28.6461 0.401359 29.3605 1.11578C30.0749 1.83021 30.4763 2.79918 30.4763 3.80952V5.2381C30.477 5.53367 30.5462 5.82506 30.6784 6.08943C30.8105 6.3538 31.0021 6.58397 31.2382 6.76191L32.762 7.90476C33.2341 8.26053 33.6174 8.72085 33.8818 9.24961C34.1462 9.77837 34.2845 10.3612 34.2858 10.9524V39.0476C34.2858 39.3002 34.1854 39.5424 34.0068 39.7211C33.8282 39.8997 33.586 40 33.3334 40ZM7.61912 38.0952H32.381V10.9524C32.3803 10.6568 32.3111 10.3654 32.1789 10.101C32.0467 9.83667 31.8551 9.6065 31.6191 9.42857L30.0953 8.28571C29.6232 7.92995 29.2399 7.46963 28.9755 6.94087C28.7111 6.4121 28.5728 5.82927 28.5715 5.2381V3.80952C28.5715 3.30435 28.3708 2.81987 28.0136 2.46265C27.6564 2.10544 27.1719 1.90476 26.6667 1.90476H13.3334C12.8282 1.90476 12.3437 2.10544 11.9865 2.46265C11.6293 2.81987 11.4286 3.30435 11.4286 3.80952V5.2381C11.4272 5.82924 11.2888 6.41202 11.0245 6.94077C10.7601 7.46951 10.3769 7.92985 9.90483 8.28571L8.38102 9.42857C8.14517 9.60666 7.95367 9.83686 7.82151 10.1012C7.68934 10.3655 7.62007 10.6568 7.61912 10.9524V38.0952Z"/>
</mask>
<path d="M33.3334 40H6.66674C6.41415 40 6.17191 39.8997 5.9933 39.7211C5.8147 39.5424 5.71436 39.3002 5.71436 39.0476V10.9524C5.71583 10.3612 5.85417 9.77845 6.11854 9.24971C6.38291 8.72097 6.76613 8.26063 7.23817 7.90476L8.76197 6.76191C8.99789 6.58387 9.18942 6.35368 9.32159 6.08933C9.45376 5.82498 9.523 5.53364 9.52388 5.2381V3.80952C9.52388 2.79918 9.92524 1.83021 10.6397 1.11578C11.3541 0.401359 12.3231 0 13.3334 0H26.6667C27.6771 0 28.6461 0.401359 29.3605 1.11578C30.0749 1.83021 30.4763 2.79918 30.4763 3.80952V5.2381C30.477 5.53367 30.5462 5.82506 30.6784 6.08943C30.8105 6.3538 31.0021 6.58397 31.2382 6.76191L32.762 7.90476C33.2341 8.26053 33.6174 8.72085 33.8818 9.24961C34.1462 9.77837 34.2845 10.3612 34.2858 10.9524V39.0476C34.2858 39.3002 34.1854 39.5424 34.0068 39.7211C33.8282 39.8997 33.586 40 33.3334 40ZM7.61912 38.0952H32.381V10.9524C32.3803 10.6568 32.3111 10.3654 32.1789 10.101C32.0467 9.83667 31.8551 9.6065 31.6191 9.42857L30.0953 8.28571C29.6232 7.92995 29.2399 7.46963 28.9755 6.94087C28.7111 6.4121 28.5728 5.82927 28.5715 5.2381V3.80952C28.5715 3.30435 28.3708 2.81987 28.0136 2.46265C27.6564 2.10544 27.1719 1.90476 26.6667 1.90476H13.3334C12.8282 1.90476 12.3437 2.10544 11.9865 2.46265C11.6293 2.81987 11.4286 3.30435 11.4286 3.80952V5.2381C11.4272 5.82924 11.2888 6.41202 11.0245 6.94077C10.7601 7.46951 10.3769 7.92985 9.90483 8.28571L8.38102 9.42857C8.14517 9.60666 7.95367 9.83686 7.82151 10.1012C7.68934 10.3655 7.62007 10.6568 7.61912 10.9524V38.0952Z" fill="#232323"/>
<path d="M5.71436 10.9524L-4.95228 10.9259L-4.95231 10.9391V10.9524H5.71436ZM7.23817 7.90476L0.838164 -0.628571L0.827558 -0.620616L0.816971 -0.612635L7.23817 7.90476ZM8.76197 6.76191L15.162 15.2952L15.1747 15.2857L15.1874 15.2761L8.76197 6.76191ZM9.52388 5.2381L20.1905 5.26988L20.1905 5.25399V5.2381H9.52388ZM13.3334 0L13.3334 -10.6667L13.3334 0ZM30.4763 5.2381H19.8096V5.25135L19.8096 5.26461L30.4763 5.2381ZM31.2382 6.76191L24.817 15.2793L24.8276 15.2873L24.8382 15.2952L31.2382 6.76191ZM32.762 7.90476L39.1811 -0.614223L39.1715 -0.62141L39.162 -0.628576L32.762 7.90476ZM34.2858 10.9524H44.9525V10.9404L44.9524 10.9285L34.2858 10.9524ZM7.61912 38.0952H-3.04755V48.7619H7.61912V38.0952ZM32.381 38.0952V48.7619H43.0477V38.0952H32.381ZM32.381 10.9524H43.0477V10.9391L43.0477 10.9259L32.381 10.9524ZM31.6191 9.42857L38.0403 0.911174L38.0297 0.90319L38.0191 0.895233L31.6191 9.42857ZM30.0953 8.28571L23.6762 16.8047L23.6858 16.8119L23.6953 16.8191L30.0953 8.28571ZM28.5715 5.2381H17.9048V5.25003L17.9049 5.26197L28.5715 5.2381ZM26.6667 1.90476V-8.76191V1.90476ZM13.3334 1.90476L13.3334 -8.76191L13.3334 1.90476ZM11.4286 5.2381L22.0953 5.26461L22.0953 5.25135V5.2381H11.4286ZM9.90483 8.28571L16.3048 16.819L16.3154 16.8111L16.326 16.8031L9.90483 8.28571ZM8.38102 9.42857L1.98102 0.895238L1.96726 0.905562L1.95352 0.915931L8.38102 9.42857ZM7.61912 10.9524L-3.04749 10.918L-3.04755 10.9352V10.9524H7.61912ZM33.3334 40V29.3333H6.66674V40V50.6667H33.3334V40ZM6.66674 40V29.3333C9.24311 29.3333 11.714 30.3568 13.5358 32.1786L5.9933 39.7211L-1.54917 47.2635C0.629836 49.4425 3.58519 50.6667 6.66674 50.6667V40ZM5.9933 39.7211L13.5358 32.1786C15.3576 34.0004 16.381 36.4712 16.381 39.0476H5.71436H-4.95231C-4.95231 42.1292 -3.72817 45.0845 -1.54917 47.2635L5.9933 39.7211ZM5.71436 39.0476H16.381V10.9524H5.71436H-4.95231V39.0476H5.71436ZM5.71436 10.9524L16.381 10.9789C16.3784 12.0347 16.1313 13.0756 15.6591 14.02L6.11854 9.24971L-3.42202 4.47943C-4.42295 6.48129 -4.94671 8.68773 -4.95228 10.9259L5.71436 10.9524ZM6.11854 9.24971L15.6591 14.02C15.1869 14.9644 14.5024 15.7866 13.6594 16.4222L7.23817 7.90476L0.816971 -0.612635C-0.970192 0.734693 -2.42109 2.47757 -3.42202 4.47943L6.11854 9.24971ZM7.23817 7.90476L13.6382 16.4381L15.162 15.2952L8.76197 6.76191L2.36197 -1.77143L0.838164 -0.628571L7.23817 7.90476ZM8.76197 6.76191L15.1874 15.2761C16.7365 14.1071 17.9942 12.5955 18.8621 10.8596L9.32159 6.08933L-0.218967 1.31905C0.384618 0.111883 1.25926 -0.939308 2.33657 -1.75232L8.76197 6.76191ZM9.32159 6.08933L18.8621 10.8596C19.7301 9.12374 20.1847 7.21063 20.1905 5.26988L9.52388 5.2381L-1.14274 5.20631C-1.13872 3.85666 -0.822555 2.52623 -0.218967 1.31905L9.32159 6.08933ZM9.52388 5.2381H20.1905V3.80952H9.52388H-1.14279V5.2381H9.52388ZM9.52388 3.80952H20.1905C20.1905 5.62815 19.4681 7.37229 18.1821 8.65826L10.6397 1.11578L3.09719 -6.42669C0.382377 -3.71188 -1.14279 -0.029799 -1.14279 3.80952H9.52388ZM10.6397 1.11578L18.1821 8.65826C16.8962 9.94422 15.152 10.6667 13.3334 10.6667L13.3334 0L13.3334 -10.6667C9.49408 -10.6667 5.812 -9.1415 3.09719 -6.42669L10.6397 1.11578ZM13.3334 0V10.6667H26.6667V0V-10.6667H13.3334V0ZM26.6667 0L26.6667 10.6667C24.8481 10.6667 23.104 9.94422 21.818 8.65826L29.3605 1.11578L36.9029 -6.42669C34.1881 -9.1415 30.5061 -10.6667 26.6667 -10.6667L26.6667 0ZM29.3605 1.11578L21.818 8.65826C20.532 7.3723 19.8096 5.62816 19.8096 3.80952H30.4763H41.1429C41.1429 -0.0298055 39.6178 -3.71188 36.9029 -6.42669L29.3605 1.11578ZM30.4763 3.80952H19.8096V5.2381H30.4763H41.1429V3.80952H30.4763ZM30.4763 5.2381L19.8096 5.26461C19.8145 7.2072 20.2691 9.12225 21.1378 10.8597L30.6784 6.08943L40.2189 1.31915C40.8233 2.52787 41.1395 3.86014 41.1429 5.21158L30.4763 5.2381ZM30.6784 6.08943L21.1378 10.8597C22.0065 12.5972 23.2658 14.1099 24.817 15.2793L31.2382 6.76191L37.6594 -1.75549C38.7385 -0.941936 39.6146 0.110444 40.2189 1.31915L30.6784 6.08943ZM31.2382 6.76191L24.8382 15.2952L26.362 16.4381L32.762 7.90476L39.162 -0.628576L37.6382 -1.77143L31.2382 6.76191ZM32.762 7.90476L26.3429 16.4237C25.4989 15.7878 24.8138 14.965 24.3412 14.0199L33.8818 9.24961L43.4224 4.47933C42.421 2.47668 40.9693 0.733233 39.1811 -0.614223L32.762 7.90476ZM33.8818 9.24961L24.3412 14.0199C23.8687 13.0748 23.6215 12.033 23.6191 10.9763L34.2858 10.9524L44.9524 10.9285C44.9474 8.68943 44.4237 6.48199 43.4224 4.47933L33.8818 9.24961ZM34.2858 10.9524H23.6191V39.0476H34.2858H44.9525V10.9524H34.2858ZM34.2858 39.0476H23.6191C23.6191 36.4713 24.6426 34.0004 26.4644 32.1786L34.0068 39.7211L41.5493 47.2635C43.7283 45.0845 44.9525 42.1292 44.9525 39.0476H34.2858ZM34.0068 39.7211L26.4644 32.1786C28.2862 30.3568 30.757 29.3333 33.3334 29.3333V40V50.6667C36.4149 50.6667 39.3703 49.4425 41.5493 47.2635L34.0068 39.7211ZM7.61912 38.0952V48.7619H32.381V38.0952V27.4286H7.61912V38.0952ZM32.381 38.0952H43.0477V10.9524H32.381H21.7144V38.0952H32.381ZM32.381 10.9524L43.0477 10.9259C43.0428 8.98328 42.5882 7.06823 41.7195 5.33077L32.1789 10.101L22.6384 14.8713C22.034 13.6626 21.7177 12.3303 21.7144 10.9789L32.381 10.9524ZM32.1789 10.101L41.7195 5.33077C40.8508 3.59332 39.5915 2.0806 38.0403 0.911174L31.6191 9.42857L25.1979 17.946C24.1188 17.1324 23.2427 16.08 22.6384 14.8713L32.1789 10.101ZM31.6191 9.42857L38.0191 0.895233L36.4953 -0.247624L30.0953 8.28571L23.6953 16.8191L25.2191 17.9619L31.6191 9.42857ZM30.0953 8.28571L36.5144 -0.233271C37.3584 0.402656 38.0435 1.22546 38.516 2.17059L28.9755 6.94087L19.4349 11.7111C20.4363 13.7138 21.888 15.4572 23.6762 16.8047L30.0953 8.28571ZM28.9755 6.94087L38.516 2.17059C38.9886 3.11572 39.2358 4.1575 39.2381 5.21422L28.5715 5.2381L17.9049 5.26197C17.9099 7.50104 18.4336 9.70848 19.4349 11.7111L28.9755 6.94087ZM28.5715 5.2381H39.2382V3.80952H28.5715H17.9048V5.2381H28.5715ZM28.5715 3.80952H39.2382C39.2382 0.475395 37.9137 -2.7222 35.5561 -5.07982L28.0136 2.46265L20.4711 10.0051C18.8279 8.36194 17.9048 6.1333 17.9048 3.80952H28.5715ZM28.0136 2.46265L35.5561 -5.07982C33.1985 -7.43743 30.0009 -8.76191 26.6667 -8.76191L26.6667 1.90476L26.6667 12.5714C24.3429 12.5714 22.1143 11.6483 20.4711 10.0051L28.0136 2.46265ZM26.6667 1.90476V-8.76191H13.3334V1.90476V12.5714H26.6667V1.90476ZM13.3334 1.90476L13.3334 -8.76191C9.99925 -8.76191 6.80166 -7.43742 4.44406 -5.07982L11.9865 2.46265L19.529 10.0051C17.8858 11.6483 15.6572 12.5714 13.3334 12.5714L13.3334 1.90476ZM11.9865 2.46265L4.44406 -5.07982C2.08646 -2.72222 0.761974 0.475369 0.761974 3.80952H11.4286H22.0953C22.0953 6.13333 21.1722 8.36195 19.529 10.0051L11.9865 2.46265ZM11.4286 3.80952H0.761974V5.2381H11.4286H22.0953V3.80952H11.4286ZM11.4286 5.2381L0.762007 5.21158C0.764632 4.15575 1.01172 3.11486 1.4839 2.17049L11.0245 6.94077L20.565 11.711C21.5659 9.70919 22.0897 7.50274 22.0953 5.26461L11.4286 5.2381ZM11.0245 6.94077L1.4839 2.17049C1.95609 1.22611 2.64055 0.403914 3.48364 -0.231683L9.90483 8.28571L16.326 16.8031C18.1132 15.4558 19.5641 13.7129 20.565 11.711L11.0245 6.94077ZM9.90483 8.28571L3.50483 -0.247619L1.98102 0.895238L8.38102 9.42857L14.781 17.9619L16.3048 16.819L9.90483 8.28571ZM8.38102 9.42857L1.95352 0.915931C0.405405 2.08484 -0.851518 3.59585 -1.71905 5.33092L7.82151 10.1012L17.3621 14.8715C16.7589 16.0779 15.8849 17.1285 14.8085 17.9412L8.38102 9.42857ZM7.82151 10.1012L-1.71905 5.33092C-2.58659 7.06599 -3.04124 8.97813 -3.04749 10.918L7.61912 10.9524L18.2857 10.9868C18.2814 12.3356 17.9653 13.6651 17.3621 14.8715L7.82151 10.1012ZM7.61912 10.9524H-3.04755V38.0952H7.61912H18.2858V10.9524H7.61912Z" fill="#FF6600" mask="url(#path-3-inside-2_1457_5118)"/>
<mask id="path-5-inside-3_1457_5118" fill="white">
<path d="M20.0002 19.0477C19.2424 19.0477 18.5157 18.7467 17.9799 18.2109C17.444 17.675 17.143 16.9483 17.143 16.1905V15.2382H16.1906C15.4329 15.2382 14.7062 14.9371 14.1703 14.4013C13.6345 13.8655 13.3335 13.1388 13.3335 12.381C13.3335 11.6233 13.6345 10.8965 14.1703 10.3607C14.7062 9.8249 15.4329 9.52388 16.1906 9.52388H17.143V8.5715C17.143 7.81374 17.444 7.08701 17.9799 6.55119C18.5157 6.01537 19.2424 5.71436 20.0002 5.71436C20.7579 5.71436 21.4847 6.01537 22.0205 6.55119C22.5563 7.08701 22.8573 7.81374 22.8573 8.5715V9.52388H23.8097C24.5674 9.52388 25.2942 9.8249 25.83 10.3607C26.3658 10.8965 26.6668 11.6233 26.6668 12.381C26.6668 13.1388 26.3658 13.8655 25.83 14.4013C25.2942 14.9371 24.5674 15.2382 23.8097 15.2382H22.8573V16.1905C22.8573 16.9483 22.5563 17.675 22.0205 18.2109C21.4847 18.7467 20.7579 19.0477 20.0002 19.0477ZM16.1906 11.4286C15.9381 11.4286 15.6958 11.529 15.5172 11.7076C15.3386 11.8862 15.2383 12.1284 15.2383 12.381C15.2383 12.6336 15.3386 12.8759 15.5172 13.0545C15.6958 13.2331 15.9381 13.3334 16.1906 13.3334H18.0954C18.348 13.3334 18.5902 13.4337 18.7688 13.6123C18.9474 13.791 19.0478 14.0332 19.0478 14.2858V16.1905C19.0478 16.4431 19.1481 16.6854 19.3267 16.864C19.5053 17.0426 19.7476 17.1429 20.0002 17.1429C20.2528 17.1429 20.495 17.0426 20.6736 16.864C20.8522 16.6854 20.9525 16.4431 20.9525 16.1905V14.2858C20.9525 14.0332 21.0529 13.791 21.2315 13.6123C21.4101 13.4337 21.6523 13.3334 21.9049 13.3334H23.8097C24.0623 13.3334 24.3045 13.2331 24.4831 13.0545C24.6617 12.8759 24.7621 12.6336 24.7621 12.381C24.7621 12.1284 24.6617 11.8862 24.4831 11.7076C24.3045 11.529 24.0623 11.4286 23.8097 11.4286H21.9049C21.6523 11.4286 21.4101 11.3283 21.2315 11.1497C21.0529 10.9711 20.9525 10.7288 20.9525 10.4763V8.5715C20.9525 8.31891 20.8522 8.07667 20.6736 7.89806C20.495 7.71946 20.2528 7.61912 20.0002 7.61912C19.7476 7.61912 19.5053 7.71946 19.3267 7.89806C19.1481 8.07667 19.0478 8.31891 19.0478 8.5715V10.4763C19.0478 10.7288 18.9474 10.9711 18.7688 11.1497C18.5902 11.3283 18.348 11.4286 18.0954 11.4286H16.1906Z"/>
</mask>
<path d="M20.0002 19.0477C19.2424 19.0477 18.5157 18.7467 17.9799 18.2109C17.444 17.675 17.143 16.9483 17.143 16.1905V15.2382H16.1906C15.4329 15.2382 14.7062 14.9371 14.1703 14.4013C13.6345 13.8655 13.3335 13.1388 13.3335 12.381C13.3335 11.6233 13.6345 10.8965 14.1703 10.3607C14.7062 9.8249 15.4329 9.52388 16.1906 9.52388H17.143V8.5715C17.143 7.81374 17.444 7.08701 17.9799 6.55119C18.5157 6.01537 19.2424 5.71436 20.0002 5.71436C20.7579 5.71436 21.4847 6.01537 22.0205 6.55119C22.5563 7.08701 22.8573 7.81374 22.8573 8.5715V9.52388H23.8097C24.5674 9.52388 25.2942 9.8249 25.83 10.3607C26.3658 10.8965 26.6668 11.6233 26.6668 12.381C26.6668 13.1388 26.3658 13.8655 25.83 14.4013C25.2942 14.9371 24.5674 15.2382 23.8097 15.2382H22.8573V16.1905C22.8573 16.9483 22.5563 17.675 22.0205 18.2109C21.4847 18.7467 20.7579 19.0477 20.0002 19.0477ZM16.1906 11.4286C15.9381 11.4286 15.6958 11.529 15.5172 11.7076C15.3386 11.8862 15.2383 12.1284 15.2383 12.381C15.2383 12.6336 15.3386 12.8759 15.5172 13.0545C15.6958 13.2331 15.9381 13.3334 16.1906 13.3334H18.0954C18.348 13.3334 18.5902 13.4337 18.7688 13.6123C18.9474 13.791 19.0478 14.0332 19.0478 14.2858V16.1905C19.0478 16.4431 19.1481 16.6854 19.3267 16.864C19.5053 17.0426 19.7476 17.1429 20.0002 17.1429C20.2528 17.1429 20.495 17.0426 20.6736 16.864C20.8522 16.6854 20.9525 16.4431 20.9525 16.1905V14.2858C20.9525 14.0332 21.0529 13.791 21.2315 13.6123C21.4101 13.4337 21.6523 13.3334 21.9049 13.3334H23.8097C24.0623 13.3334 24.3045 13.2331 24.4831 13.0545C24.6617 12.8759 24.7621 12.6336 24.7621 12.381C24.7621 12.1284 24.6617 11.8862 24.4831 11.7076C24.3045 11.529 24.0623 11.4286 23.8097 11.4286H21.9049C21.6523 11.4286 21.4101 11.3283 21.2315 11.1497C21.0529 10.9711 20.9525 10.7288 20.9525 10.4763V8.5715C20.9525 8.31891 20.8522 8.07667 20.6736 7.89806C20.495 7.71946 20.2528 7.61912 20.0002 7.61912C19.7476 7.61912 19.5053 7.71946 19.3267 7.89806C19.1481 8.07667 19.0478 8.31891 19.0478 8.5715V10.4763C19.0478 10.7288 18.9474 10.9711 18.7688 11.1497C18.5902 11.3283 18.348 11.4286 18.0954 11.4286H16.1906Z" fill="#7FBDE7"/>
<path d="M20.0002 19.0477L20.0002 29.7144L20.0002 19.0477ZM17.143 16.1905L6.47635 16.1905L17.143 16.1905ZM17.143 15.2382H27.8097V4.5715H17.143V15.2382ZM16.1906 15.2382V25.9048V15.2382ZM13.3335 12.381L2.66683 12.381L13.3335 12.381ZM16.1906 9.52388L16.1906 -1.14279L16.1906 9.52388ZM17.143 9.52388V20.1905H27.8097V9.52388H17.143ZM20.0002 5.71436L20.0002 -4.95231L20.0002 5.71436ZM22.8573 9.52388H12.1906V20.1905H22.8573V9.52388ZM23.8097 15.2382L23.8097 25.9048L23.8097 15.2382ZM22.8573 15.2382V4.5715H12.1906V15.2382H22.8573ZM22.8573 16.1905H33.524H22.8573ZM20.0002 19.0477L20.0002 8.38102C22.0714 8.38102 24.0578 9.20381 25.5223 10.6684L17.9799 18.2109L10.4374 25.7533C12.9736 28.2895 16.4134 29.7144 20.0002 29.7144L20.0002 19.0477ZM17.9799 18.2109L25.5223 10.6684C26.9869 12.133 27.8097 14.1193 27.8097 16.1905L17.143 16.1905L6.47635 16.1905C6.47635 19.7773 7.90118 23.2171 10.4374 25.7533L17.9799 18.2109ZM17.143 16.1905H27.8097V15.2382H17.143H6.47635V16.1905H17.143ZM17.143 15.2382V4.5715H16.1906V15.2382V25.9048H17.143V15.2382ZM16.1906 15.2382L16.1906 4.5715C18.2618 4.5715 20.2482 5.39428 21.7128 6.85886L14.1703 14.4013L6.62786 21.9438C9.16407 24.48 12.6039 25.9048 16.1906 25.9048L16.1906 15.2382ZM14.1703 14.4013L21.7128 6.85886C23.1774 8.32343 24.0002 10.3098 24.0002 12.381L13.3335 12.381L2.66683 12.381C2.66683 15.9678 4.09165 19.4076 6.62786 21.9438L14.1703 14.4013ZM13.3335 12.381H24.0002C24.0002 14.4522 23.1774 16.4386 21.7128 17.9032L14.1703 10.3607L6.62786 2.81824C4.09165 5.35445 2.66683 8.79429 2.66683 12.381H13.3335ZM14.1703 10.3607L21.7128 17.9032C20.2482 19.3678 18.2618 20.1905 16.1906 20.1905L16.1906 9.52388L16.1906 -1.14279C12.6039 -1.14279 9.16407 0.282035 6.62786 2.81824L14.1703 10.3607ZM16.1906 9.52388V20.1905H17.143V9.52388V-1.14279H16.1906V9.52388ZM17.143 9.52388H27.8097V8.5715H17.143H6.47635V9.52388H17.143ZM17.143 8.5715H27.8097C27.8097 10.6427 26.9869 12.6291 25.5223 14.0937L17.9799 6.55119L10.4374 -0.99128C7.90118 1.54493 6.47635 4.98477 6.47635 8.5715H17.143ZM17.9799 6.55119L25.5223 14.0937C24.0578 15.5582 22.0714 16.381 20.0002 16.381L20.0002 5.71436L20.0002 -4.95231C16.4134 -4.95231 12.9736 -3.52749 10.4374 -0.99128L17.9799 6.55119ZM20.0002 5.71436V16.381C17.929 16.381 15.9426 15.5582 14.478 14.0937L22.0205 6.55119L29.5629 -0.99128C27.0267 -3.52749 23.5869 -4.95231 20.0002 -4.95231V5.71436ZM22.0205 6.55119L14.478 14.0937C13.0134 12.6291 12.1906 10.6427 12.1906 8.5715H22.8573H33.524C33.524 4.98477 32.0992 1.54493 29.5629 -0.99128L22.0205 6.55119ZM22.8573 8.5715H12.1906V9.52388H22.8573H33.524V8.5715H22.8573ZM22.8573 9.52388V20.1905H23.8097V9.52388V-1.14279H22.8573V9.52388ZM23.8097 9.52388V20.1905C21.7385 20.1905 19.7521 19.3678 18.2875 17.9032L25.83 10.3607L33.3725 2.81824C30.8363 0.282035 27.3964 -1.14279 23.8097 -1.14279V9.52388ZM25.83 10.3607L18.2875 17.9032C16.8229 16.4386 16.0002 14.4522 16.0002 12.381H26.6668H37.3335C37.3335 8.79429 35.9087 5.35445 33.3725 2.81824L25.83 10.3607ZM26.6668 12.381H16.0002C16.0002 10.3098 16.8229 8.32343 18.2875 6.85886L25.83 14.4013L33.3725 21.9438C35.9087 19.4076 37.3335 15.9678 37.3335 12.381H26.6668ZM25.83 14.4013L18.2875 6.85886C19.7521 5.39428 21.7385 4.5715 23.8097 4.5715L23.8097 15.2382L23.8097 25.9048C27.3964 25.9048 30.8363 24.48 33.3725 21.9438L25.83 14.4013ZM23.8097 15.2382V4.5715H22.8573V15.2382V25.9048H23.8097V15.2382ZM22.8573 15.2382H12.1906V16.1905H22.8573H33.524V15.2382H22.8573ZM22.8573 16.1905L12.1906 16.1905C12.1906 14.1193 13.0134 12.133 14.478 10.6684L22.0205 18.2109L29.5629 25.7533C32.0992 23.2171 33.524 19.7773 33.524 16.1905L22.8573 16.1905ZM22.0205 18.2109L14.478 10.6684C15.9426 9.20381 17.929 8.38102 20.0002 8.38102L20.0002 19.0477L20.0002 29.7144C23.5869 29.7144 27.0267 28.2895 29.5629 25.7533L22.0205 18.2109ZM16.1906 11.4286V0.761975C13.1091 0.761975 10.1537 1.98612 7.97473 4.16512L15.5172 11.7076L23.0597 19.2501C21.2379 21.0718 18.767 22.0953 16.1906 22.0953V11.4286ZM15.5172 11.7076L7.97473 4.16512C5.79572 6.34412 4.57159 9.29948 4.57159 12.381H15.2383H25.9049C25.9049 14.9574 24.8815 17.4283 23.0597 19.2501L15.5172 11.7076ZM15.2383 12.381H4.57159C4.57159 15.4626 5.79572 18.4179 7.97473 20.5969L15.5172 13.0545L23.0597 5.51199C24.8815 7.33379 25.9049 9.80466 25.9049 12.381H15.2383ZM15.5172 13.0545L7.97473 20.5969C10.1537 22.7759 13.1091 24.0001 16.1906 24.0001V13.3334V2.66674C18.767 2.66674 21.2379 3.69018 23.0597 5.51199L15.5172 13.0545ZM16.1906 13.3334V24.0001H18.0954V13.3334V2.66674H16.1906V13.3334ZM18.0954 13.3334V24.0001C15.519 24.0001 13.0482 22.9766 11.2264 21.1548L18.7688 13.6123L26.3113 6.06988C24.1323 3.89086 21.1769 2.66674 18.0954 2.66674V13.3334ZM18.7688 13.6123L11.2264 21.1548C9.40456 19.333 8.38112 16.8621 8.38112 14.2858H19.0478H29.7144C29.7144 11.2043 28.4903 8.24889 26.3113 6.06988L18.7688 13.6123ZM19.0478 14.2858H8.38112V16.1905H19.0478H29.7144V14.2858H19.0478ZM19.0478 16.1905H8.38112C8.38112 19.2721 9.60524 22.2274 11.7843 24.4065L19.3267 16.864L26.8692 9.32151C28.691 11.1433 29.7144 13.6142 29.7144 16.1905H19.0478ZM19.3267 16.864L11.7843 24.4065C13.9633 26.5855 16.9186 27.8096 20.0002 27.8096V17.1429V6.47626C22.5765 6.47626 25.0474 7.49971 26.8692 9.32151L19.3267 16.864ZM20.0002 17.1429V27.8096C23.0817 27.8096 26.0371 26.5855 28.2161 24.4065L20.6736 16.864L13.1311 9.32151C14.9529 7.49971 17.4238 6.47626 20.0002 6.47626V17.1429ZM20.6736 16.864L28.2161 24.4065C30.3951 22.2274 31.6192 19.2721 31.6192 16.1905H20.9525H10.2859C10.2859 13.6142 11.3093 11.1433 13.1311 9.32151L20.6736 16.864ZM20.9525 16.1905H31.6192V14.2858H20.9525H10.2859V16.1905H20.9525ZM20.9525 14.2858H31.6192C31.6192 16.8621 30.5958 19.333 28.774 21.1548L21.2315 13.6123L13.689 6.06988C11.51 8.24889 10.2859 11.2043 10.2859 14.2858H20.9525ZM21.2315 13.6123L28.774 21.1548C26.9522 22.9766 24.4813 24.0001 21.9049 24.0001V13.3334V2.66674C18.8234 2.66674 15.868 3.89086 13.689 6.06988L21.2315 13.6123ZM21.9049 13.3334V24.0001H23.8097V13.3334V2.66674H21.9049V13.3334ZM23.8097 13.3334V24.0001C26.8912 24.0001 29.8466 22.7759 32.0256 20.5969L24.4831 13.0545L16.9407 5.51199C18.7625 3.69018 21.2333 2.66674 23.8097 2.66674V13.3334ZM24.4831 13.0545L32.0256 20.5969C34.2046 18.4179 35.4287 15.4626 35.4287 12.381H24.7621H14.0954C14.0954 9.80466 15.1188 7.33379 16.9407 5.51199L24.4831 13.0545ZM24.7621 12.381H35.4287C35.4287 9.29948 34.2046 6.34412 32.0256 4.16512L24.4831 11.7076L16.9407 19.2501C15.1189 17.4283 14.0954 14.9574 14.0954 12.381H24.7621ZM24.4831 11.7076L32.0256 4.16512C29.8466 1.98612 26.8912 0.761975 23.8097 0.761975V11.4286V22.0953C21.2333 22.0953 18.7624 21.0718 16.9407 19.2501L24.4831 11.7076ZM23.8097 11.4286V0.761975H21.9049V11.4286V22.0953H23.8097V11.4286ZM21.9049 11.4286V0.761975C24.4813 0.761975 26.9522 1.78544 28.774 3.60722L21.2315 11.1497L13.689 18.6922C15.868 20.8712 18.8234 22.0953 21.9049 22.0953V11.4286ZM21.2315 11.1497L28.774 3.60722C30.5958 5.42902 31.6192 7.89989 31.6192 10.4763H20.9525H10.2859C10.2859 13.5578 11.51 16.5132 13.689 18.6922L21.2315 11.1497ZM20.9525 10.4763H31.6192V8.5715H20.9525H10.2859V10.4763H20.9525ZM20.9525 8.5715H31.6192C31.6192 5.48995 30.3951 2.5346 28.2161 0.355591L20.6736 7.89806L13.1311 15.4405C11.3093 13.6187 10.2859 11.1479 10.2859 8.5715H20.9525ZM20.6736 7.89806L28.2161 0.355591C26.0371 -1.82341 23.0817 -3.04755 20.0002 -3.04755V7.61912V18.2858C17.4238 18.2858 14.9529 17.2623 13.1311 15.4405L20.6736 7.89806ZM20.0002 7.61912V-3.04755C16.9186 -3.04755 13.9633 -1.82341 11.7843 0.355591L19.3267 7.89806L26.8692 15.4405C25.0474 17.2623 22.5765 18.2858 20.0002 18.2858V7.61912ZM19.3267 7.89806L11.7843 0.355591C9.60525 2.5346 8.38112 5.48995 8.38112 8.5715H19.0478H29.7144C29.7144 11.1479 28.691 13.6187 26.8692 15.4405L19.3267 7.89806ZM19.0478 8.5715H8.38112V10.4763H19.0478H29.7144V8.5715H19.0478ZM19.0478 10.4763H8.38112C8.38112 7.89989 9.40457 5.42902 11.2264 3.60722L18.7688 11.1497L26.3113 18.6922C28.4903 16.5132 29.7144 13.5578 29.7144 10.4763H19.0478ZM18.7688 11.1497L11.2264 3.60722C13.0481 1.78544 15.519 0.761975 18.0954 0.761975V11.4286V22.0953C21.177 22.0953 24.1323 20.8712 26.3113 18.6922L18.7688 11.1497ZM18.0954 11.4286V0.761975H16.1906V11.4286V22.0953H18.0954V11.4286Z" fill="#FF6600" mask="url(#path-5-inside-3_1457_5118)"/>
<mask id="path-7-inside-4_1457_5118" fill="white">
<path d="M27.6192 40.0001H12.3811C12.1285 40.0001 11.8863 39.8997 11.7077 39.7211C11.5291 39.5425 11.4287 39.3003 11.4287 39.0477V26.6667C11.4287 26.4141 11.5291 26.1719 11.7077 25.9933C11.8863 25.8147 12.1285 25.7144 12.3811 25.7144H27.6192C27.8718 25.7144 28.114 25.8147 28.2926 25.9933C28.4712 26.1719 28.5716 26.4141 28.5716 26.6667V39.0477C28.5716 39.3003 28.4712 39.5425 28.2926 39.7211C28.114 39.8997 27.8718 40.0001 27.6192 40.0001ZM13.3335 38.0953H26.6668V27.6191H13.3335V38.0953Z"/>
</mask>
<path d="M27.6192 40.0001H12.3811C12.1285 40.0001 11.8863 39.8997 11.7077 39.7211C11.5291 39.5425 11.4287 39.3003 11.4287 39.0477V26.6667C11.4287 26.4141 11.5291 26.1719 11.7077 25.9933C11.8863 25.8147 12.1285 25.7144 12.3811 25.7144H27.6192C27.8718 25.7144 28.114 25.8147 28.2926 25.9933C28.4712 26.1719 28.5716 26.4141 28.5716 26.6667V39.0477C28.5716 39.3003 28.4712 39.5425 28.2926 39.7211C28.114 39.8997 27.8718 40.0001 27.6192 40.0001ZM13.3335 38.0953H26.6668V27.6191H13.3335V38.0953Z" fill="#232323"/>
<path d="M13.3335 38.0953H2.66681V48.762H13.3335V38.0953ZM26.6668 38.0953V48.762H37.3335V38.0953H26.6668ZM26.6668 27.6191H37.3335V16.9525H26.6668V27.6191ZM13.3335 27.6191V16.9525H2.66681V27.6191H13.3335ZM27.6192 40.0001V29.3334H12.3811V40.0001V50.6667H27.6192V40.0001ZM12.3811 40.0001V29.3334C14.9575 29.3334 17.4283 30.3569 19.2501 32.1787L11.7077 39.7211L4.16518 47.2636C6.34419 49.4426 9.29955 50.6667 12.3811 50.6667V40.0001ZM11.7077 39.7211L19.2501 32.1787C21.0719 34.0004 22.0954 36.4713 22.0954 39.0477H11.4287H0.762044C0.762044 42.1292 1.98619 45.0846 4.16518 47.2636L11.7077 39.7211ZM11.4287 39.0477H22.0954V26.6667H11.4287H0.762044V39.0477H11.4287ZM11.4287 26.6667H22.0954C22.0954 29.2431 21.0719 31.714 19.2501 33.5358L11.7077 25.9933L4.16518 18.4508C1.98619 20.6298 0.762044 23.5852 0.762044 26.6667H11.4287ZM11.7077 25.9933L19.2501 33.5358C17.4283 35.3576 14.9575 36.381 12.3811 36.381V25.7144V15.0477C9.29955 15.0477 6.34419 16.2718 4.16518 18.4508L11.7077 25.9933ZM12.3811 25.7144V36.381H27.6192V25.7144V15.0477H12.3811V25.7144ZM27.6192 25.7144V36.381C25.0428 36.381 22.572 35.3576 20.7501 33.5358L28.2926 25.9933L35.8351 18.4508C33.6561 16.2718 30.7007 15.0477 27.6192 15.0477V25.7144ZM28.2926 25.9933L20.7501 33.5358C18.9283 31.714 17.9049 29.2431 17.9049 26.6667H28.5716H39.2382C39.2382 23.5852 38.0141 20.6298 35.8351 18.4508L28.2926 25.9933ZM28.5716 26.6667H17.9049V39.0477H28.5716H39.2382V26.6667H28.5716ZM28.5716 39.0477H17.9049C17.9049 36.4713 18.9283 34.0005 20.7501 32.1787L28.2926 39.7211L35.8351 47.2636C38.0141 45.0846 39.2382 42.1292 39.2382 39.0477H28.5716ZM28.2926 39.7211L20.7501 32.1787C22.572 30.3568 25.0428 29.3334 27.6192 29.3334V40.0001V50.6667C30.7007 50.6667 33.6561 49.4426 35.8351 47.2636L28.2926 39.7211ZM13.3335 38.0953V48.762H26.6668V38.0953V27.4286H13.3335V38.0953ZM26.6668 38.0953H37.3335V27.6191H26.6668H16.0001V38.0953H26.6668ZM26.6668 27.6191V16.9525H13.3335V27.6191V38.2858H26.6668V27.6191ZM13.3335 27.6191H2.66681V38.0953H13.3335H24.0001V27.6191H13.3335Z" fill="#FF6600" mask="url(#path-7-inside-4_1457_5118)"/>
<mask id="path-9-inside-5_1457_5118" fill="white">
<path d="M19.9999 40C19.7473 40 19.5051 39.8997 19.3264 39.7211C19.1478 39.5425 19.0475 39.3002 19.0475 39.0476V29.5238C19.0475 29.2712 19.1478 29.029 19.3264 28.8504C19.5051 28.6718 19.7473 28.5715 19.9999 28.5715C20.2525 28.5715 20.4947 28.6718 20.6733 28.8504C20.8519 29.029 20.9523 29.2712 20.9523 29.5238V39.0476C20.9523 39.3002 20.8519 39.5425 20.6733 39.7211C20.4947 39.8997 20.2525 40 19.9999 40ZM27.6189 27.6191H12.3808C11.8757 27.6191 11.3912 27.4184 11.034 27.0612C10.6768 26.704 10.4761 26.2195 10.4761 25.7143V23.8095C10.4761 23.3044 10.6768 22.8199 11.034 22.4627C11.3912 22.1055 11.8757 21.9048 12.3808 21.9048H27.6189C28.1241 21.9048 28.6086 22.1055 28.9658 22.4627C29.323 22.8199 29.5237 23.3044 29.5237 23.8095V25.7143C29.5237 26.2195 29.323 26.704 28.9658 27.0612C28.6086 27.4184 28.1241 27.6191 27.6189 27.6191ZM12.3808 23.8095V25.7143H27.6189V23.8095H12.3808ZM17.1427 33.3334C16.8902 33.3334 16.6479 33.233 16.4693 33.0544C16.2907 32.8758 16.1904 32.6336 16.1904 32.381V31.4286C16.1904 31.176 16.2907 30.9338 16.4693 30.7552C16.6479 30.5766 16.8902 30.4762 17.1427 30.4762C17.3953 30.4762 17.6376 30.5766 17.8162 30.7552C17.9948 30.9338 18.0951 31.176 18.0951 31.4286V32.381C18.0951 32.6336 17.9948 32.8758 17.8162 33.0544C17.6376 33.233 17.3953 33.3334 17.1427 33.3334ZM22.857 33.3334C22.6044 33.3334 22.3622 33.233 22.1836 33.0544C22.005 32.8758 21.9046 32.6336 21.9046 32.381V31.4286C21.9046 31.176 22.005 30.9338 22.1836 30.7552C22.3622 30.5766 22.6044 30.4762 22.857 30.4762C23.1096 30.4762 23.3519 30.5766 23.5305 30.7552C23.7091 30.9338 23.8094 31.176 23.8094 31.4286V32.381C23.8094 32.6336 23.7091 32.8758 23.5305 33.0544C23.3519 33.233 23.1096 33.3334 22.857 33.3334Z"/>
</mask>
<path d="M19.9999 40C19.7473 40 19.5051 39.8997 19.3264 39.7211C19.1478 39.5425 19.0475 39.3002 19.0475 39.0476V29.5238C19.0475 29.2712 19.1478 29.029 19.3264 28.8504C19.5051 28.6718 19.7473 28.5715 19.9999 28.5715C20.2525 28.5715 20.4947 28.6718 20.6733 28.8504C20.8519 29.029 20.9523 29.2712 20.9523 29.5238V39.0476C20.9523 39.3002 20.8519 39.5425 20.6733 39.7211C20.4947 39.8997 20.2525 40 19.9999 40ZM27.6189 27.6191H12.3808C11.8757 27.6191 11.3912 27.4184 11.034 27.0612C10.6768 26.704 10.4761 26.2195 10.4761 25.7143V23.8095C10.4761 23.3044 10.6768 22.8199 11.034 22.4627C11.3912 22.1055 11.8757 21.9048 12.3808 21.9048H27.6189C28.1241 21.9048 28.6086 22.1055 28.9658 22.4627C29.323 22.8199 29.5237 23.3044 29.5237 23.8095V25.7143C29.5237 26.2195 29.323 26.704 28.9658 27.0612C28.6086 27.4184 28.1241 27.6191 27.6189 27.6191ZM12.3808 23.8095V25.7143H27.6189V23.8095H12.3808ZM17.1427 33.3334C16.8902 33.3334 16.6479 33.233 16.4693 33.0544C16.2907 32.8758 16.1904 32.6336 16.1904 32.381V31.4286C16.1904 31.176 16.2907 30.9338 16.4693 30.7552C16.6479 30.5766 16.8902 30.4762 17.1427 30.4762C17.3953 30.4762 17.6376 30.5766 17.8162 30.7552C17.9948 30.9338 18.0951 31.176 18.0951 31.4286V32.381C18.0951 32.6336 17.9948 32.8758 17.8162 33.0544C17.6376 33.233 17.3953 33.3334 17.1427 33.3334ZM22.857 33.3334C22.6044 33.3334 22.3622 33.233 22.1836 33.0544C22.005 32.8758 21.9046 32.6336 21.9046 32.381V31.4286C21.9046 31.176 22.005 30.9338 22.1836 30.7552C22.3622 30.5766 22.6044 30.4762 22.857 30.4762C23.1096 30.4762 23.3519 30.5766 23.5305 30.7552C23.7091 30.9338 23.8094 31.176 23.8094 31.4286V32.381C23.8094 32.6336 23.7091 32.8758 23.5305 33.0544C23.3519 33.233 23.1096 33.3334 22.857 33.3334Z" fill="#232323"/>
<path d="M12.3808 23.8095V13.1429H1.71417V23.8095H12.3808ZM12.3808 25.7143H1.71417V36.381H12.3808V25.7143ZM27.6189 25.7143V36.381H38.2856V25.7143H27.6189ZM27.6189 23.8095H38.2856V13.1429H27.6189V23.8095ZM19.9999 40V29.3334C22.5762 29.3334 25.0471 30.3568 26.8689 32.1786L19.3264 39.7211L11.784 47.2636C13.963 49.4426 16.9184 50.6667 19.9999 50.6667V40ZM19.3264 39.7211L26.8689 32.1786C28.6907 34.0004 29.7142 36.4713 29.7142 39.0476H19.0475H8.38084C8.38084 42.1292 9.60496 45.0845 11.784 47.2636L19.3264 39.7211ZM19.0475 39.0476H29.7142V29.5238H19.0475H8.38084V39.0476H19.0475ZM19.0475 29.5238H29.7142C29.7142 32.1002 28.6907 34.5711 26.8689 36.3929L19.3264 28.8504L11.784 21.3079C9.60496 23.4869 8.38084 26.4423 8.38084 29.5238H19.0475ZM19.3264 28.8504L26.8689 36.3929C25.0471 38.2147 22.5762 39.2381 19.9999 39.2381V28.5715V17.9048C16.9184 17.9048 13.963 19.1289 11.784 21.3079L19.3264 28.8504ZM19.9999 28.5715V39.2381C17.4235 39.2381 14.9527 38.2147 13.1308 36.3929L20.6733 28.8504L28.2158 21.3079C26.0368 19.1289 23.0814 17.9048 19.9999 17.9048V28.5715ZM20.6733 28.8504L13.1308 36.3929C11.309 34.5711 10.2856 32.1002 10.2856 29.5238H20.9523H31.6189C31.6189 26.4423 30.3948 23.4869 28.2158 21.3079L20.6733 28.8504ZM20.9523 29.5238H10.2856V39.0476H20.9523H31.6189V29.5238H20.9523ZM20.9523 39.0476H10.2856C10.2856 36.4713 11.309 34.0004 13.1308 32.1786L20.6733 39.7211L28.2158 47.2636C30.3948 45.0845 31.6189 42.1292 31.6189 39.0476H20.9523ZM20.6733 39.7211L13.1308 32.1786C14.9527 30.3568 17.4235 29.3334 19.9999 29.3334V40V50.6667C23.0814 50.6667 26.0368 49.4426 28.2158 47.2636L20.6733 39.7211ZM27.6189 27.6191V16.9524H12.3808V27.6191V38.2857H27.6189V27.6191ZM12.3808 27.6191V16.9524C14.7046 16.9524 16.9333 17.8755 18.5764 19.5187L11.034 27.0612L3.49149 34.6037C5.84909 36.9612 9.04668 38.2857 12.3808 38.2857V27.6191ZM11.034 27.0612L18.5764 19.5187C20.2196 21.1619 21.1427 23.3905 21.1427 25.7143H10.4761H-0.190593C-0.190593 29.0485 1.1339 32.2461 3.49149 34.6037L11.034 27.0612ZM10.4761 25.7143H21.1427V23.8095H10.4761H-0.190593V25.7143H10.4761ZM10.4761 23.8095H21.1427C21.1427 26.1334 20.2196 28.362 18.5764 30.0052L11.034 22.4627L3.49149 14.9202C1.1339 17.2778 -0.190593 20.4754 -0.190593 23.8095H10.4761ZM11.034 22.4627L18.5764 30.0052C16.9333 31.6483 14.7046 32.5715 12.3808 32.5715V21.9048V11.2381C9.04668 11.2381 5.84909 12.5626 3.49149 14.9202L11.034 22.4627ZM12.3808 21.9048V32.5715H27.6189V21.9048V11.2381H12.3808V21.9048ZM27.6189 21.9048V32.5715C25.2951 32.5715 23.0665 31.6483 21.4233 30.0052L28.9658 22.4627L36.5083 14.9202C34.1507 12.5626 30.9531 11.2381 27.6189 11.2381V21.9048ZM28.9658 22.4627L21.4233 30.0052C19.7801 28.362 18.857 26.1333 18.857 23.8095H29.5237H40.1904C40.1904 20.4754 38.8659 17.2778 36.5083 14.9202L28.9658 22.4627ZM29.5237 23.8095H18.857V25.7143H29.5237H40.1904V23.8095H29.5237ZM29.5237 25.7143H18.857C18.857 23.3905 19.7801 21.1619 21.4233 19.5187L28.9658 27.0612L36.5083 34.6037C38.8659 32.246 40.1904 29.0484 40.1904 25.7143H29.5237ZM28.9658 27.0612L21.4233 19.5187C23.0665 17.8755 25.2951 16.9524 27.6189 16.9524V27.6191V38.2857C30.9531 38.2857 34.1507 36.9613 36.5083 34.6037L28.9658 27.0612ZM12.3808 23.8095H1.71417V25.7143H12.3808H23.0475V23.8095H12.3808ZM12.3808 25.7143V36.381H27.6189V25.7143V15.0476H12.3808V25.7143ZM27.6189 25.7143H38.2856V23.8095H27.6189H16.9523V25.7143H27.6189ZM27.6189 23.8095V13.1429H12.3808V23.8095V34.4762H27.6189V23.8095ZM17.1427 33.3334V22.6667C19.7191 22.6667 22.19 23.6901 24.0118 25.5119L16.4693 33.0544L8.92683 40.5969C11.1058 42.7759 14.0612 44 17.1427 44V33.3334ZM16.4693 33.0544L24.0118 25.5119C25.8336 27.3337 26.857 29.8046 26.857 32.381H16.1904H5.52369C5.52369 35.4625 6.74782 38.4179 8.92683 40.5969L16.4693 33.0544ZM16.1904 32.381H26.857V31.4286H16.1904H5.52369V32.381H16.1904ZM16.1904 31.4286H26.857C26.857 34.005 25.8336 36.4758 24.0118 38.2976L16.4693 30.7552L8.92683 23.2127C6.74782 25.3917 5.52369 28.3471 5.52369 31.4286H16.1904ZM16.4693 30.7552L24.0118 38.2976C22.19 40.1194 19.7191 41.1429 17.1427 41.1429V30.4762V19.8095C14.0612 19.8095 11.1058 21.0337 8.92683 23.2127L16.4693 30.7552ZM17.1427 30.4762V41.1429C14.5664 41.1429 12.0955 40.1194 10.2737 38.2976L17.8162 30.7552L25.3586 23.2127C23.1796 21.0337 20.2243 19.8095 17.1427 19.8095V30.4762ZM17.8162 30.7552L10.2737 38.2976C8.4519 36.4758 7.42846 34.005 7.42846 31.4286H18.0951H28.7618C28.7618 28.3471 27.5377 25.3917 25.3586 23.2127L17.8162 30.7552ZM18.0951 31.4286H7.42846V32.381H18.0951H28.7618V31.4286H18.0951ZM18.0951 32.381H7.42846C7.42846 29.8046 8.4519 27.3337 10.2737 25.5119L17.8162 33.0544L25.3586 40.5969C27.5377 38.4179 28.7618 35.4625 28.7618 32.381H18.0951ZM17.8162 33.0544L10.2737 25.5119C12.0955 23.6901 14.5664 22.6667 17.1427 22.6667V33.3334V44C20.2243 44 23.1796 42.7759 25.3586 40.5969L17.8162 33.0544ZM22.857 33.3334V22.6667C25.4334 22.6667 27.9043 23.6901 29.7261 25.5119L22.1836 33.0544L14.6411 40.5969C16.8201 42.7759 19.7755 44 22.857 44V33.3334ZM22.1836 33.0544L29.7261 25.5119C31.5479 27.3337 32.5713 29.8046 32.5713 32.381H21.9046H11.238C11.238 35.4625 12.4621 38.4179 14.6411 40.5969L22.1836 33.0544ZM21.9046 32.381H32.5713V31.4286H21.9046H11.238V32.381H21.9046ZM21.9046 31.4286H32.5713C32.5713 34.005 31.5479 36.4758 29.7261 38.2976L22.1836 30.7552L14.6411 23.2127C12.4621 25.3917 11.238 28.3471 11.238 31.4286H21.9046ZM22.1836 30.7552L29.7261 38.2976C27.9043 40.1194 25.4334 41.1429 22.857 41.1429V30.4762V19.8095C19.7755 19.8095 16.8201 21.0337 14.6411 23.2127L22.1836 30.7552ZM22.857 30.4762V41.1429C20.2807 41.1429 17.8098 40.1194 15.988 38.2976L23.5305 30.7552L31.0729 23.2127C28.8939 21.0337 25.9386 19.8095 22.857 19.8095V30.4762ZM23.5305 30.7552L15.988 38.2976C14.1662 36.4758 13.1427 34.005 13.1427 31.4286H23.8094H34.4761C34.4761 28.3471 33.252 25.3917 31.0729 23.2127L23.5305 30.7552ZM23.8094 31.4286H13.1427V32.381H23.8094H34.4761V31.4286H23.8094ZM23.8094 32.381H13.1427C13.1427 29.8046 14.1662 27.3337 15.988 25.5119L23.5305 33.0544L31.0729 40.5969C33.252 38.4179 34.4761 35.4625 34.4761 32.381H23.8094ZM23.5305 33.0544L15.988 25.5119C17.8098 23.6901 20.2807 22.6667 22.857 22.6667V33.3334V44C25.9386 44 28.8939 42.7759 31.0729 40.5969L23.5305 33.0544Z" fill="#FF6600" mask="url(#path-9-inside-5_1457_5118)"/>
</svg>
