<svg width="50" height="50" viewBox="0 0 50 50" fill="none" xmlns="http://www.w3.org/2000/svg">
<path d="M25.094 34.0136C25.3542 34.0136 25.6037 33.9103 25.7877 33.7263C25.9716 33.5423 26.075 33.2928 26.075 33.0327V28.3521C26.075 28.092 25.9716 27.8425 25.7877 27.6585C25.6037 27.4745 25.3542 27.3712 25.094 27.3712C24.8339 27.3712 24.5844 27.4745 24.4004 27.6585C24.2164 27.8425 24.1131 28.092 24.1131 28.3521V33.0327C24.1131 33.2928 24.2164 33.5423 24.4004 33.7263C24.5844 33.9103 24.8339 34.0136 25.094 34.0136ZM25.094 13.1503C25.3542 13.1503 25.6037 13.0469 25.7877 12.863C25.9716 12.679 26.075 12.4295 26.075 12.1693V7.51122C26.075 7.25106 25.9716 7.00155 25.7877 6.81759C25.6037 6.63362 25.3542 6.53027 25.094 6.53027C24.8339 6.53027 24.5844 6.63362 24.4004 6.81759C24.2164 7.00155 24.1131 7.25106 24.1131 7.51122V12.1917C24.1189 12.448 24.2249 12.6918 24.4082 12.8709C24.5915 13.0501 24.8377 13.1503 25.094 13.1503ZM25.094 23.5931C25.3542 23.5931 25.6037 23.4898 25.7877 23.3058C25.9716 23.1219 26.075 22.8724 26.075 22.6122V17.9317C26.075 17.6715 25.9716 17.422 25.7877 17.238C25.6037 17.0541 25.3542 16.9507 25.094 16.9507C24.8339 16.9507 24.5844 17.0541 24.4004 17.238C24.2164 17.422 24.1131 17.6715 24.1131 17.9317V22.6122C24.1131 22.8724 24.2164 23.1219 24.4004 23.3058C24.5844 23.4898 24.8339 23.5931 25.094 23.5931ZM32.0503 13.1503C32.3047 13.1474 32.5481 13.0459 32.729 12.867C32.9099 12.6882 33.0143 12.4461 33.0201 12.1917V7.51122C33.0201 7.25106 32.9167 7.00155 32.7328 6.81759C32.5488 6.63362 32.2993 6.53027 32.0391 6.53027C31.779 6.53027 31.5295 6.63362 31.3455 6.81759C31.1615 7.00155 31.0582 7.25106 31.0582 7.51122V12.1917C31.0641 12.4499 31.1716 12.6954 31.3573 12.8749C31.5431 13.0543 31.7921 13.1533 32.0503 13.1503ZM32.0503 23.5931C32.3086 23.5902 32.5552 23.4855 32.7367 23.3019C32.9183 23.1183 33.0201 22.8704 33.0201 22.6122V17.9317C33.0201 17.6715 32.9167 17.422 32.7328 17.238C32.5488 17.0541 32.2993 16.9507 32.0391 16.9507C31.779 16.9507 31.5295 17.0541 31.3455 17.238C31.1615 17.422 31.0582 17.6715 31.0582 17.9317V22.6122C31.0582 22.742 31.0839 22.8704 31.1339 22.9902C31.1839 23.11 31.2572 23.2186 31.3495 23.3098C31.4417 23.4011 31.5512 23.4731 31.6715 23.5217C31.7918 23.5704 31.9206 23.5946 32.0503 23.5931ZM32.0503 34.0136C32.3086 34.0107 32.5552 33.906 32.7367 33.7224C32.9183 33.5387 33.0201 33.2909 33.0201 33.0327V28.3521C33.0201 28.092 32.9167 27.8425 32.7328 27.6585C32.5488 27.4745 32.2993 27.3712 32.0391 27.3712C31.779 27.3712 31.5295 27.4745 31.3455 27.6585C31.1615 27.8425 31.0582 28.092 31.0582 28.3521V33.0327C31.0582 33.1624 31.0839 33.2909 31.1339 33.4107C31.1839 33.5304 31.2572 33.639 31.3495 33.7303C31.4417 33.8215 31.5512 33.8935 31.6715 33.9422C31.7918 33.9908 31.9206 34.0151 32.0503 34.0136ZM43.547 37.7412H44.3766C44.6368 37.7412 44.8863 37.6379 45.0703 37.4539C45.2542 37.2699 45.3576 37.0204 45.3576 36.7603C45.3576 36.5001 45.2542 36.2506 45.0703 36.0666C44.8863 35.8827 44.6368 35.7793 44.3766 35.7793H43.547C43.2869 35.7793 43.0374 35.8827 42.8534 36.0666C42.6694 36.2506 42.5661 36.5001 42.5661 36.7603C42.5661 37.0204 42.6694 37.2699 42.8534 37.4539C43.0374 37.6379 43.2869 37.7412 43.547 37.7412ZM43.547 32.1246H44.3766C44.6368 32.1246 44.8863 32.0212 45.0703 31.8373C45.2542 31.6533 45.3576 31.4038 45.3576 31.1436C45.3576 30.8835 45.2542 30.634 45.0703 30.45C44.8863 30.266 44.6368 30.1627 44.3766 30.1627H43.547C43.2869 30.1627 43.0374 30.266 42.8534 30.45C42.6694 30.634 42.5661 30.8835 42.5661 31.1436C42.5661 31.4038 42.6694 31.6533 42.8534 31.8373C43.0374 32.0212 43.2869 32.1246 43.547 32.1246ZM43.547 43.3074H44.3766C44.6368 43.3074 44.8863 43.204 45.0703 43.0201C45.2542 42.8361 45.3576 42.5866 45.3576 42.3264C45.3576 42.0663 45.2542 41.8168 45.0703 41.6328C44.8863 41.4488 44.6368 41.3455 44.3766 41.3455H43.547C43.2869 41.3455 43.0374 41.4488 42.8534 41.6328C42.6694 41.8168 42.5661 42.0663 42.5661 42.3264C42.5661 42.5866 42.6694 42.8361 42.8534 43.0201C43.0374 43.204 43.2869 43.3074 43.547 43.3074ZM13.2778 26.5584H14.1018C14.362 26.5584 14.6115 26.4551 14.7955 26.2711C14.9794 26.0871 15.0828 25.8376 15.0828 25.5775C15.0828 25.3173 14.9794 25.0678 14.7955 24.8838C14.6115 24.6999 14.362 24.5965 14.1018 24.5965H13.2778C13.0177 24.5965 12.7682 24.6999 12.5842 24.8838C12.4002 25.0678 12.2969 25.3173 12.2969 25.5775C12.2969 25.8376 12.4002 26.0871 12.5842 26.2711C12.7682 26.4551 13.0177 26.5584 13.2778 26.5584ZM13.2778 20.9418H14.1018C14.362 20.9418 14.6115 20.8384 14.7955 20.6545C14.9794 20.4705 15.0828 20.221 15.0828 19.9608C15.0828 19.7007 14.9794 19.4512 14.7955 19.2672C14.6115 19.0832 14.362 18.9799 14.1018 18.9799H13.2778C13.0177 18.9799 12.7682 19.0832 12.5842 19.2672C12.4002 19.4512 12.2969 19.7007 12.2969 19.9608C12.2969 20.221 12.4002 20.4705 12.5842 20.6545C12.7682 20.8384 13.0177 20.9418 13.2778 20.9418ZM13.2778 32.1246H14.1018C14.362 32.1246 14.6115 32.0212 14.7955 31.8373C14.9794 31.6533 15.0828 31.4038 15.0828 31.1436C15.0828 30.8835 14.9794 30.634 14.7955 30.45C14.6115 30.266 14.362 30.1627 14.1018 30.1627H13.2778C13.0177 30.1627 12.7682 30.266 12.5842 30.45C12.4002 30.634 12.2969 30.8835 12.2969 31.1436C12.2969 31.4038 12.4002 31.6533 12.5842 31.8373C12.7682 32.0212 13.0177 32.1246 13.2778 32.1246Z" fill="white"/>
<path d="M49.0221 22.1526H39.8516V0.980947C39.8516 0.720784 39.7483 0.471276 39.5643 0.287313C39.3804 0.10335 39.1308 0 38.8707 0H18.282C18.0267 0.00729653 17.7844 0.113858 17.6064 0.297037C17.4285 0.480215 17.329 0.725568 17.3291 0.980947V13.2288H9.10595C8.84578 13.2288 8.59628 13.3321 8.41231 13.5161C8.22835 13.7 8.125 13.9496 8.125 14.2097V26.4071C8.125 26.6673 8.22835 26.9168 8.41231 27.1007C8.59628 27.2847 8.84578 27.388 9.10595 27.388C9.36611 27.388 9.61562 27.2847 9.79958 27.1007C9.98354 26.9168 10.0869 26.6673 10.0869 26.4071V15.1963H17.3291V48.016H10.0421C9.78189 48.016 9.53238 48.1193 9.34842 48.3033C9.16445 48.4872 9.0611 48.7367 9.0611 48.9969C9.0611 49.2571 9.16445 49.5066 9.34842 49.6905C9.53238 49.8745 9.78189 49.9778 10.0421 49.9778H45.67C46.8159 49.9764 47.9146 49.5217 48.7264 48.7131C49.5382 47.9044 49.9971 46.8075 50.003 45.6617V23.1335C50.003 22.8734 49.8997 22.6239 49.7157 22.4399C49.5318 22.2559 49.2822 22.1526 49.0221 22.1526ZM26.0791 48.016V40.2076H31.0736V48.016H26.0791ZM37.8897 48.016H33.0242V39.2267C33.0242 38.9665 32.9209 38.717 32.7369 38.533C32.553 38.3491 32.3035 38.2457 32.0433 38.2457H25.0982C24.838 38.2457 24.5885 38.3491 24.4046 38.533C24.2206 38.717 24.1172 38.9665 24.1172 39.2267V48.016H19.263V1.93947H37.8897V48.016ZM48.0411 45.6617C48.0411 46.291 47.7915 46.8947 47.347 47.3403C46.9025 47.7858 46.2994 48.0369 45.67 48.0384H39.8572V24.1145H48.0411V45.6617Z" fill="white"/>
<path d="M11.8835 36.4015C11.8835 32.4048 6.64802 29.3891 6.4238 29.2658C6.27742 29.1806 6.11109 29.1357 5.94174 29.1357C5.77238 29.1357 5.60605 29.1806 5.45967 29.2658C5.23545 29.3891 0 32.4048 0 36.4015C0 40.0001 2.15248 42.9878 4.96079 43.5596V49.0249C4.96079 49.285 5.06414 49.5345 5.2481 49.7185C5.43207 49.9025 5.68157 50.0058 5.94174 50.0058C6.2019 50.0058 6.45141 49.9025 6.63537 49.7185C6.81933 49.5345 6.92268 49.285 6.92268 49.0249V43.5876C9.73099 42.9878 11.8835 40.0001 11.8835 36.4015ZM1.96189 36.4015C1.96189 34.2994 4.50115 32.203 5.94174 31.2669C7.38233 32.203 9.92158 34.2882 9.92158 36.4015C9.92158 38.8735 8.64354 40.9531 6.92268 41.536V39.2266C6.92268 38.9664 6.81933 38.7169 6.63537 38.533C6.45141 38.349 6.2019 38.2457 5.94174 38.2457C5.68157 38.2457 5.43207 38.349 5.2481 38.533C5.06414 38.7169 4.96079 38.9664 4.96079 39.2266V41.536C3.23993 40.9531 1.96189 38.8791 1.96189 36.4015Z" fill="white"/>
</svg>
