<svg width="40" height="37" viewBox="0 0 40 37" fill="none" xmlns="http://www.w3.org/2000/svg">
<path d="M19.8814 2.4677C19.3602 2.09876 18.7374 1.90062 18.0989 1.90062C17.4603 1.90062 16.8375 2.09876 16.3163 2.4677L1.51495 13.1516C1.4136 13.2259 1.29856 13.2793 1.17645 13.3089C1.05435 13.3385 0.927597 13.3436 0.803503 13.324C0.679408 13.3044 0.560423 13.2604 0.453404 13.1946C0.346385 13.1288 0.253449 13.0424 0.179949 12.9405C0.10645 12.8387 0.0538411 12.7232 0.0251543 12.6009C-0.00353243 12.4786 -0.0077298 12.3518 0.0128038 12.2279C0.0333374 12.1039 0.078196 11.9852 0.144795 11.8787C0.211394 11.7722 0.298416 11.6799 0.400848 11.6071L15.2022 0.923192C16.0484 0.322622 17.0603 0 18.0979 0C19.1355 0 20.1475 0.322622 20.9936 0.923192L35.795 11.6071C35.9578 11.725 36.0792 11.8914 36.1416 12.0825C36.2041 12.2736 36.2045 12.4795 36.1428 12.6708C36.0811 12.8622 35.9604 13.029 35.798 13.1475C35.6356 13.2661 35.4399 13.3302 35.2389 13.3307C35.039 13.331 34.8442 13.2676 34.6828 13.1497L19.8814 2.4677ZM40 24.4393V26.9798C39.999 27.7372 39.6977 28.4632 39.1622 28.9987C38.6267 29.5342 37.9007 29.8355 37.1433 29.8365H33.6506V33.3273C33.6496 34.0847 33.3483 34.8107 32.8128 35.3462C32.2773 35.8817 31.5512 36.183 30.7939 36.184H28.2553C27.498 36.183 26.7719 35.8817 26.2364 35.3462C25.7009 34.8107 25.3996 34.0847 25.3986 33.3273V29.8365H21.9078C21.1504 29.8355 20.4244 29.5342 19.8889 28.9987C19.3534 28.4632 19.0521 27.7372 19.0511 26.9798V24.4393C19.0521 23.682 19.3534 22.956 19.8889 22.4204C20.4244 21.8849 21.1504 21.5836 21.9078 21.5826H25.3986V18.0918C25.3996 17.3345 25.7009 16.6084 26.2364 16.0729C26.7719 15.5374 27.498 15.2361 28.2553 15.2351H30.7958C31.5531 15.2361 32.2792 15.5374 32.8147 16.0729C33.3502 16.6084 33.6515 17.3345 33.6525 18.0918V21.5826H37.1433C37.9007 21.5836 38.6267 21.8849 39.1622 22.4204C39.6977 22.956 39.999 23.682 40 24.4393ZM38.0956 24.4393C38.0956 24.1868 37.9952 23.9445 37.8167 23.766C37.6381 23.5874 37.3959 23.4871 37.1433 23.4871H32.6984C32.4458 23.4871 32.2036 23.3867 32.025 23.2082C31.8465 23.0296 31.7461 22.7874 31.7461 22.5349V18.0918C31.7461 17.8392 31.6458 17.597 31.4672 17.4185C31.2887 17.2399 31.0465 17.1396 30.7939 17.1396H28.2553C28.0027 17.1396 27.7605 17.2399 27.582 17.4185C27.4034 17.597 27.3031 17.8392 27.3031 18.0918V22.5349C27.3031 22.7874 27.2027 23.0296 27.0242 23.2082C26.8456 23.3867 26.6034 23.4871 26.3508 23.4871H21.9078C21.6552 23.4871 21.413 23.5874 21.2344 23.766C21.0559 23.9445 20.9555 24.1868 20.9555 24.4393V26.9798C20.9555 27.2324 21.0559 27.4746 21.2344 27.6532C21.413 27.8317 21.6552 27.9321 21.9078 27.9321H26.3508C26.6034 27.9321 26.8456 28.0324 27.0242 28.211C27.2027 28.3895 27.3031 28.6317 27.3031 28.8843V33.3273C27.3031 33.5799 27.4034 33.8221 27.582 34.0007C27.7605 34.1792 28.0027 34.2796 28.2553 34.2796H30.7958C31.0484 34.2796 31.2906 34.1792 31.4691 34.0007C31.6477 33.8221 31.748 33.5799 31.748 33.3273V28.8843C31.748 28.6317 31.8484 28.3895 32.0269 28.211C32.2055 28.0324 32.4477 27.9321 32.7003 27.9321H37.1433C37.3959 27.9321 37.6381 27.8317 37.8167 27.6532C37.9952 27.4746 38.0956 27.2324 38.0956 26.9798V24.4393ZM18.0989 34.2796H8.57664C7.81931 34.2786 7.09329 33.9773 6.55778 33.4418C6.02227 32.9062 5.72097 32.1802 5.71997 31.4229V13.6392L3.81552 15.0142V31.4229C3.81703 32.6852 4.31913 33.8953 5.21169 34.7878C6.10424 35.6804 7.31437 36.1825 8.57664 36.184H18.0989C18.3514 36.184 18.5936 36.0837 18.7722 35.9051C18.9508 35.7265 19.0511 35.4843 19.0511 35.2318C19.0511 34.9792 18.9508 34.737 18.7722 34.5585C18.5936 34.3799 18.3514 34.2796 18.0989 34.2796Z" fill="#FF6600"/>
</svg>
