<svg xmlns="http://www.w3.org/2000/svg" xmlns:xlink="http://www.w3.org/1999/xlink" width="500" zoomAndPan="magnify" viewBox="0 0 375 374.999991" height="500" preserveAspectRatio="xMidYMid meet" version="1.0"><defs><g/><clipPath id="5523593141"><path d="M 50 154.945312 L 125 154.945312 L 125 222 L 50 222 Z M 50 154.945312 " clip-rule="nonzero"/></clipPath><clipPath id="83e9727ddc"><path d="M 37 219 L 128.96875 219 L 128.96875 226.945312 L 37 226.945312 Z M 37 219 " clip-rule="nonzero"/></clipPath><clipPath id="2b47c4c465"><path d="M 34.46875 170 L 128.96875 170 L 128.96875 225 L 34.46875 225 Z M 34.46875 170 " clip-rule="nonzero"/></clipPath><clipPath id="637d511a85"><path d="M 116.71875 148.757812 L 129.089844 148.757812 L 129.089844 161.132812 L 116.71875 161.132812 Z M 116.71875 148.757812 " clip-rule="nonzero"/></clipPath><clipPath id="fa052aadad"><path d="M 122.90625 148.757812 C 119.488281 148.757812 116.71875 151.527344 116.71875 154.945312 C 116.71875 158.363281 119.488281 161.132812 122.90625 161.132812 C 126.320312 161.132812 129.089844 158.363281 129.089844 154.945312 C 129.089844 151.527344 126.320312 148.757812 122.90625 148.757812 Z M 122.90625 148.757812 " clip-rule="nonzero"/></clipPath><clipPath id="e8dc673250"><path d="M 0.71875 0.757812 L 13.089844 0.757812 L 13.089844 13.132812 L 0.71875 13.132812 Z M 0.71875 0.757812 " clip-rule="nonzero"/></clipPath><clipPath id="14ba06b08a"><path d="M 6.90625 0.757812 C 3.488281 0.757812 0.71875 3.527344 0.71875 6.945312 C 0.71875 10.363281 3.488281 13.132812 6.90625 13.132812 C 10.320312 13.132812 13.089844 10.363281 13.089844 6.945312 C 13.089844 3.527344 10.320312 0.757812 6.90625 0.757812 Z M 6.90625 0.757812 " clip-rule="nonzero"/></clipPath><clipPath id="bf65a1d344"><rect x="0" width="14" y="0" height="14"/></clipPath><clipPath id="be562c641b"><rect x="0" width="219" y="0" height="48"/></clipPath><clipPath id="1256096cce"><path d="M 0.558594 10 L 1 10 L 1 11 L 0.558594 11 Z M 0.558594 10 " clip-rule="nonzero"/></clipPath><clipPath id="439772a2c8"><rect x="0" width="50" y="0" height="13"/></clipPath></defs><rect x="-37.5" width="450" fill="#ffffff" y="-37.499999" height="449.999989" fill-opacity="1"/><rect x="-37.5" width="450" fill="#ffffff" y="-37.499999" height="449.999989" fill-opacity="1"/><g clip-path="url(#5523593141)"><path fill="#fa9c04" d="M 87.695312 154.949219 C 67.15625 154.949219 50.511719 171.609375 50.511719 192.167969 C 50.511719 204.234375 56.25 214.957031 65.140625 221.753906 L 110.246094 221.753906 C 119.140625 214.953125 124.878906 204.234375 124.878906 192.167969 C 124.878906 187.476562 124.007812 182.988281 122.425781 178.859375 C 120.164062 179.089844 118.765625 179.125 118.226562 178.980469 C 117.324219 178.664062 116.550781 178.554688 115.914062 178.660156 C 115.027344 179.078125 114.277344 179.09375 113.667969 178.707031 C 102.835938 178.445312 99.074219 178.207031 102.371094 177.988281 C 110.226562 177.90625 114.371094 177.820312 114.804688 177.726562 C 115.5 177.652344 116.023438 177.519531 116.378906 177.332031 C 116.949219 176.925781 118.261719 176.902344 120.316406 177.253906 C 120.890625 177.382812 121.410156 177.457031 121.871094 177.488281 C 121.386719 176.355469 120.847656 175.257812 120.257812 174.1875 C 95.027344 174.242188 82.402344 173.882812 82.390625 173.109375 C 84.019531 173.011719 91.335938 172.878906 104.347656 172.71875 C 105.566406 172.738281 106.523438 172.5625 107.210938 172.207031 C 108.574219 171.140625 109.992188 171.007812 111.472656 171.800781 C 112.296875 172.148438 112.886719 172.019531 113.246094 171.414062 C 113.726562 170.683594 114.515625 170.484375 115.625 170.824219 C 116.292969 171.503906 116.976562 171.53125 117.664062 170.914062 C 117.746094 170.75 117.839844 170.617188 117.941406 170.507812 C 111.191406 161.082031 100.160156 154.945312 87.699219 154.945312 Z M 87.695312 154.949219 " fill-opacity="1" fill-rule="evenodd"/></g><g clip-path="url(#83e9727ddc)"><path fill="#000000" d="M 83.253906 219.171875 C 108.273438 219.171875 128.550781 220.914062 128.550781 223.058594 C 128.550781 225.203125 108.269531 226.945312 83.253906 226.945312 C 58.230469 226.945312 37.953125 225.203125 37.953125 223.058594 C 37.953125 220.914062 58.234375 219.171875 83.253906 219.171875 Z M 83.253906 219.171875 " fill-opacity="1" fill-rule="evenodd"/></g><g clip-path="url(#2b47c4c465)"><path fill="#ffffff" d="M 40.695312 171.632812 L 41.234375 172.417969 L 54.246094 175.097656 C 54.890625 174.453125 55.8125 174.597656 56.625 174.730469 L 56.628906 174.730469 L 56.648438 174.734375 L 56.707031 174.742188 L 73.089844 178.414062 C 73.246094 178.328125 73.398438 178.257812 73.554688 178.210938 C 73.9375 178.089844 74.320312 178.082031 74.699219 178.1875 L 74.847656 178.230469 L 74.96875 178.300781 L 80.226562 181.414062 C 80.660156 181.425781 81.046875 181.472656 81.429688 181.5625 C 81.917969 181.671875 82.378906 181.855469 82.867188 182.132812 C 84.566406 183.082031 86.167969 184.242188 87.628906 185.558594 C 89.152344 186.925781 90.523438 188.453125 91.707031 190.070312 C 93.058594 191.914062 93.996094 193.21875 94.46875 193.890625 C 94.761719 193.867188 95.09375 193.84375 95.4375 193.820312 C 95.925781 193.792969 96.453125 193.769531 96.921875 193.765625 C 98.632812 193.75 99.933594 193.742188 100.921875 193.738281 C 101.902344 193.734375 102.570312 193.738281 103.023438 193.742188 C 103.679688 193.746094 104.867188 193.9375 105.832031 194.246094 C 106.722656 194.53125 107.507812 194.960938 107.832031 195.539062 L 107.914062 195.6875 L 107.945312 195.851562 L 108.128906 196.757812 L 122.78125 197.105469 C 123.554688 197.101562 124.1875 197.292969 124.6875 197.679688 C 125.21875 198.089844 125.546875 198.679688 125.671875 199.441406 L 125.675781 199.46875 L 126.3125 199.488281 L 126.464844 199.492188 L 126.59375 199.527344 C 127.28125 199.730469 127.804688 200.019531 128.164062 200.394531 C 128.613281 200.859375 128.8125 201.40625 128.753906 202.039062 C 128.835938 203.863281 128.894531 205.578125 128.925781 207.179688 C 128.957031 208.789062 128.960938 210.25 128.933594 211.570312 L 128.933594 211.636719 C 128.882812 212.269531 128.726562 212.796875 128.46875 213.222656 C 128.15625 213.730469 127.71875 214.074219 127.152344 214.246094 L 127 214.292969 L 126.835938 214.292969 L 121.058594 214.3125 C 121.347656 214.710938 121.582031 215.164062 121.757812 215.652344 C 121.894531 216.023438 122 216.417969 122.070312 216.824219 C 122.316406 219.675781 121.410156 221.574219 119.347656 222.527344 C 119.347656 222.527344 107.875 222.015625 84.929688 220.992188 C 84.929688 220.992188 81.925781 221.878906 75.925781 223.652344 C 73.359375 222.652344 72.199219 220.753906 72.4375 217.949219 C 72.636719 216.710938 73.160156 215.585938 73.992188 214.855469 C 74.746094 214.1875 76.160156 213.605469 77.710938 213.144531 C 78.925781 212.777344 80.25 212.480469 81.394531 212.261719 L 81.371094 207.710938 L 81.367188 207.199219 L 81.75 206.875 L 83.960938 204.988281 L 80.570312 198.277344 L 80.519531 198.179688 L 80.488281 198.0625 C 80.390625 197.691406 80.351562 197.339844 80.363281 197.011719 C 80.367188 196.84375 80.386719 196.6875 80.417969 196.535156 L 79.804688 195.316406 C 78.765625 194.496094 77.386719 193.761719 75.949219 193.140625 C 73.871094 192.234375 71.679688 191.570312 70.179688 191.222656 L 52 187.359375 L 60.652344 207.691406 L 60.707031 207.8125 L 60.730469 207.941406 L 60.886719 208.894531 L 61.554688 209.386719 L 61.988281 209.707031 L 62 210.253906 L 62.007812 210.707031 C 62.292969 210.847656 62.5 211.03125 62.640625 211.257812 L 62.675781 211.316406 L 63.914062 213.679688 L 64.230469 213.820312 L 64.5625 213.972656 L 64.738281 214.285156 L 66.496094 217.417969 L 66.574219 217.558594 L 66.613281 217.734375 C 66.65625 217.929688 66.667969 218.066406 66.675781 218.203125 L 66.675781 218.207031 L 66.636719 218.210938 L 66.632812 218.207031 L 66.574219 218.210938 L 66.632812 218.207031 C 66.574219 218.183594 66.488281 218.128906 66.574219 218.207031 L 66.574219 218.210938 L 69.539062 221.175781 L 69.652344 221.222656 L 71.839844 223.367188 C 71.839844 223.367188 65.070312 223.589844 51.535156 224.027344 C 48.414062 223.496094 46.757812 220.800781 47.519531 217.734375 C 47.898438 216.671875 48.578125 215.710938 49.480469 214.929688 L 49.800781 213.511719 L 47.84375 210.9375 C 47.40625 210.546875 47.117188 210.09375 46.980469 209.574219 C 46.871094 209.171875 46.855469 208.753906 46.9375 208.316406 L 45.539062 205.753906 C 45.347656 205.65625 45.179688 205.554688 45.035156 205.445312 C 44.730469 205.222656 44.503906 204.96875 44.351562 204.679688 L 44.347656 204.675781 L 37.222656 190.910156 L 37.066406 190.605469 L 37.109375 190.28125 C 37.003906 190.199219 36.910156 190.109375 36.828125 190.019531 C 36.535156 189.707031 36.347656 189.34375 36.277344 188.941406 L 35.066406 183.414062 L 35.050781 183.34375 L 35.046875 183.25 L 34.535156 175.425781 C 34.476562 174.53125 34.664062 173.667969 35.050781 172.9375 C 35.445312 172.183594 36.058594 171.570312 36.828125 171.199219 C 37.359375 170.941406 38.011719 170.78125 38.667969 170.804688 C 39.269531 170.824219 39.878906 170.988281 40.417969 171.359375 L 40.582031 171.476562 L 40.699219 171.644531 Z M 50.890625 205.652344 L 49.628906 203.816406 C 49.617188 203.863281 49.605469 203.914062 49.59375 203.960938 L 50.558594 205.753906 L 50.566406 205.753906 Z M 46.847656 177.597656 L 47.015625 177.742188 L 47.230469 177.679688 Z M 46.847656 177.597656 " fill-opacity="1" fill-rule="evenodd"/></g><path fill="#000000" d="M 39.792969 172.253906 L 40.582031 173.398438 L 54.765625 176.316406 C 55.035156 175.570312 55.8125 175.703125 56.46875 175.808594 C 67.699219 178.324219 73.316406 179.582031 73.316406 179.582031 C 73.703125 179.261719 74.070312 179.144531 74.414062 179.242188 C 78.171875 181.46875 79.925781 182.503906 79.925781 182.503906 C 80.851562 182.492188 81.550781 182.644531 82.335938 183.082031 C 85.664062 184.9375 88.582031 187.644531 90.828125 190.710938 C 92.839844 193.460938 93.9375 195.03125 93.9375 195.03125 C 94.523438 194.96875 95.964844 194.863281 96.929688 194.851562 C 100.355469 194.820312 102.117188 194.828125 103.015625 194.832031 C 104.011719 194.835938 106.476562 195.359375 106.871094 196.070312 C 107.144531 197.410156 107.230469 197.832031 107.230469 197.832031 C 117.585938 198.074219 122.761719 198.199219 122.761719 198.199219 C 123.824219 198.1875 124.433594 198.660156 124.59375 199.617188 C 124.652344 200.230469 124.683594 200.535156 124.683594 200.535156 C 125.746094 200.5625 126.285156 200.578125 126.285156 200.578125 C 127.289062 200.875 127.746094 201.347656 127.65625 201.996094 C 127.828125 205.746094 127.890625 208.929688 127.839844 211.550781 C 127.769531 212.46875 127.429688 213.015625 126.835938 213.199219 C 118.824219 213.230469 114.820312 213.246094 114.820312 213.246094 C 116.371094 213.46875 117.519531 213.609375 118.25 213.738281 C 122.359375 214.472656 121.773438 222.660156 118.050781 223.039062 C 112.722656 223.597656 107.082031 224.089844 101.125 224.515625 C 100.472656 224.558594 99.878906 224.570312 99.226562 224.570312 C 97.308594 224.570312 96.214844 224.570312 95.527344 224.570312 C 94.714844 224.570312 93.890625 224.351562 93.398438 223.53125 C 84.722656 223.867188 80.636719 224.023438 80.636719 224.023438 C 78.839844 223.96875 77.894531 223.9375 77.207031 223.914062 C 73.121094 223.785156 72.464844 217.648438 74.714844 215.671875 C 76.230469 214.335938 81.503906 213.25 83.554688 213.027344 C 82.839844 212.691406 82.484375 212.523438 82.484375 212.523438 C 82.46875 209.308594 82.460938 207.699219 82.460938 207.699219 L 85.328125 205.253906 L 81.546875 197.777344 C 81.40625 197.234375 81.417969 196.789062 81.59375 196.425781 C 80.921875 195.101562 80.667969 194.601562 80.667969 194.601562 C 77.988281 192.386719 73.097656 190.769531 70.398438 190.140625 C 56.90625 187.273438 50.164062 185.839844 50.164062 185.839844 C 56.480469 200.6875 59.640625 208.113281 59.640625 208.113281 C 59.796875 209.042969 59.871094 209.507812 59.871094 209.507812 C 60.554688 210.011719 60.898438 210.261719 60.898438 210.261719 C 60.914062 211.082031 60.917969 211.496094 60.917969 211.496094 C 61.367188 211.59375 61.628906 211.703125 61.695312 211.816406 C 62.640625 213.613281 63.113281 214.511719 63.113281 214.511719 C 63.554688 214.710938 63.777344 214.808594 63.777344 214.808594 C 64.949219 216.898438 65.535156 217.941406 65.535156 217.941406 C 65.605469 218.289062 65.550781 218.734375 65.785156 218.96875 C 67.859375 221.039062 68.890625 222.078125 68.890625 222.078125 C 71.261719 223.109375 72.445312 223.621094 72.445312 223.621094 C 72.3125 224.0625 71.976562 224.578125 71.703125 224.824219 C 66.992188 224.894531 64.246094 224.855469 64.246094 224.855469 C 60.296875 224.917969 56.644531 224.777344 53.28125 224.421875 C 51.386719 224.140625 49.757812 223.503906 48.902344 222.011719 C 47.570312 219.679688 48.421875 217.089844 50.453125 215.527344 C 50.757812 214.195312 50.972656 213.242188 50.972656 213.242188 C 49.421875 211.199219 48.640625 210.175781 48.640625 210.175781 C 48 209.644531 47.816406 208.976562 48.09375 208.164062 C 46.90625 205.984375 46.3125 204.898438 46.3125 204.898438 C 45.78125 204.675781 45.445312 204.429688 45.308594 204.164062 C 40.554688 194.988281 38.183594 190.398438 38.183594 190.398438 C 38.242188 189.941406 38.273438 189.714844 38.273438 189.714844 C 37.707031 189.453125 37.394531 189.121094 37.335938 188.707031 C 36.53125 185.019531 36.125 183.175781 36.125 183.175781 C 35.855469 179.050781 35.6875 176.445312 35.613281 175.351562 C 35.523438 173.972656 36.175781 172.714844 37.292969 172.175781 C 38.007812 171.828125 39.019531 171.722656 39.789062 172.253906 Z M 54.417969 211.53125 C 54.78125 211.285156 55.171875 210.96875 55.59375 210.570312 L 54.199219 208.535156 C 53.648438 208.652344 53.125 208.859375 52.628906 209.152344 L 54.421875 211.527344 Z M 52.621094 206.242188 L 43.585938 193.09375 C 46.96875 199.707031 48.546875 202.796875 48.546875 202.796875 C 48.675781 203.328125 48.535156 203.816406 48.386719 204.035156 C 49.414062 205.941406 49.925781 206.894531 49.925781 206.894531 L 49.9375 206.898438 C 50.285156 206.855469 50.539062 206.839844 50.703125 206.859375 L 52.617188 206.246094 Z M 84.085938 196.953125 C 84.601562 197.308594 85.304688 197.839844 85.304688 197.839844 C 87.332031 201.46875 88.234375 203.085938 88.234375 203.085938 C 87.851562 203.433594 87.675781 203.628906 87.675781 203.628906 C 85.558594 199.742188 84.085938 196.957031 84.085938 196.957031 Z M 42.777344 175.613281 L 46.761719 178.953125 C 47.617188 178.710938 48.039062 178.589844 48.039062 178.589844 L 61.65625 180.269531 C 57.304688 179.433594 56.09375 179.199219 55.621094 179.109375 C 54.984375 178.988281 54.472656 178.707031 54.441406 178.089844 Z M 42.777344 175.613281 " fill-opacity="1" fill-rule="evenodd"/><path fill="#ffffff" d="M 40.519531 174.5625 C 44.628906 178.207031 46.683594 180.03125 46.683594 180.03125 C 46.683594 180.03125 47.285156 179.855469 48.488281 179.503906 L 77.152344 183 L 73.417969 181.980469 C 74.234375 181.433594 73.109375 179.753906 74.597656 180.214844 C 74.597656 180.214844 76.355469 181.292969 79.875 183.460938 C 80.394531 183.394531 81.042969 183.5 81.515625 183.714844 C 84.097656 184.894531 86.417969 186.847656 88.898438 189.765625 C 88.898438 189.765625 90.132812 191.433594 92.921875 195.179688 C 92.6875 195.203125 92.472656 195.226562 92.28125 195.25 L 88.972656 190.792969 C 87.136719 188.316406 83.832031 184.828125 80.671875 184.296875 C 80.671875 184.296875 69.875 182.875 48.613281 180.101562 C 48.066406 180.253906 47.074219 180.582031 47.074219 180.582031 C 66.378906 183.171875 77.992188 184.847656 80.234375 185.148438 C 83.183594 185.542969 86.460938 188.761719 88.15625 191.085938 C 89.8125 193.363281 90.855469 194.8125 91.324219 195.449219 C 90.988281 195.535156 90.945312 195.589844 90.78125 195.707031 C 90.523438 195.902344 90.519531 196.109375 90.453125 196.875 C 90.425781 197.070312 91.03125 197.15625 90.894531 197.597656 C 90.84375 197.78125 90.765625 197.964844 90.585938 198.550781 C 90.585938 198.550781 89.308594 197.777344 87.574219 196.648438 C 87.574219 196.648438 88.488281 198.324219 89.675781 200.671875 C 89.847656 201.011719 89.660156 201.644531 89.117188 202.5625 C 89.117188 202.5625 88.320312 201.109375 86.339844 197.496094 C 86.515625 197.398438 86.722656 197.167969 86.960938 196.808594 C 86.710938 196.960938 86.410156 197.027344 86.046875 197.015625 C 86.046875 197.015625 85.96875 196.882812 85.816406 196.625 C 85.75 196.421875 85.835938 196.207031 86.066406 195.984375 C 86.066406 195.984375 84.667969 193.132812 81.875 187.433594 C 81.875 187.433594 81.957031 187.277344 82.117188 186.972656 C 81.6875 186.960938 81.464844 186.714844 81.453125 186.242188 C 81.453125 186.242188 81.414062 186.425781 81.339844 186.789062 C 81.035156 186.597656 80.980469 186.203125 81.179688 185.601562 C 80.261719 185.535156 79.949219 186.164062 80.242188 187.5 C 80.085938 187.539062 79.828125 187.410156 79.464844 187.109375 C 79.75 188.046875 80.21875 188.4375 81.316406 188.183594 C 81.316406 188.183594 82.292969 190.164062 84.226562 194.039062 C 81.121094 191.4375 77.234375 189.832031 73.308594 188.957031 C 70.097656 188.238281 61.476562 186.40625 47.441406 183.46875 C 47.441406 183.46875 46.9375 182.984375 45.933594 182.007812 C 45.550781 181.546875 45.421875 181.15625 45.542969 180.839844 C 45.167969 180.917969 44.925781 181.15625 44.8125 181.550781 C 44.746094 182.167969 45.421875 183.054688 46.84375 184.203125 C 46.84375 184.203125 47.515625 184.507812 48.855469 185.117188 C 48.855469 185.117188 52.191406 192.824219 58.859375 208.230469 C 58.859375 208.230469 58.925781 208.675781 59.0625 209.554688 C 59.039062 209.710938 59.105469 209.855469 59.269531 209.992188 C 59.269531 209.992188 59.582031 210.234375 60.207031 210.722656 C 60.207031 210.722656 60.230469 211.179688 60.273438 212.097656 C 60.273438 212.097656 60.519531 212.140625 61.007812 212.234375 C 61.007812 212.234375 61.597656 213.324219 62.785156 215.503906 C 62.785156 215.503906 62.960938 215.546875 63.3125 215.640625 C 63.3125 215.640625 63.8125 216.550781 64.816406 218.363281 C 64.816406 218.363281 64.871094 218.636719 64.980469 219.183594 C 64.980469 219.183594 65.960938 220.210938 67.925781 222.269531 C 67.925781 222.269531 67.402344 222.691406 66.347656 223.527344 C 66.347656 223.527344 67.054688 223.304688 68.472656 222.863281 C 68.472656 222.863281 69.328125 223.191406 71.03125 223.847656 C 70.996094 224.027344 70.863281 224.136719 70.644531 224.164062 C 70.644531 224.164062 68.648438 224.136719 64.65625 224.074219 C 64.65625 224.074219 64.535156 223.875 64.289062 223.484375 C 64.289062 223.484375 64.074219 223.652344 63.648438 223.984375 C 60.933594 224.136719 55.367188 224.363281 54.519531 220.890625 C 54.105469 219.207031 54.484375 216.582031 56.40625 215.757812 C 56.28125 215.835938 56.601562 214.992188 57.378906 213.234375 C 57.582031 213.210938 57.832031 213.1875 58.109375 213.160156 C 60.566406 218.085938 62.414062 220.824219 63.535156 221.792969 C 63.535156 221.792969 61.859375 218.601562 58.507812 212.214844 C 58.507812 212.214844 58.113281 212.222656 57.316406 212.242188 C 56.6875 212.207031 56.28125 212.316406 56.105469 212.5625 C 56.105469 212.5625 55.886719 213.132812 55.445312 214.277344 C 55.414062 214.175781 55.609375 214.394531 56.035156 214.941406 C 56.035156 214.941406 55.570312 214.835938 54.640625 214.621094 C 54.640625 214.621094 54.65625 215.269531 54.6875 216.566406 C 54.6875 216.566406 54.375 216.601562 53.75 216.679688 C 53.75 216.679688 53.808594 215.417969 53.933594 212.882812 C 53.933594 212.882812 53.742188 212.9375 53.363281 213.046875 C 53.363281 213.046875 52.578125 212.136719 51.007812 210.324219 C 51.308594 210.0625 51.613281 209.75 51.925781 209.386719 C 51.925781 209.386719 52.707031 210.332031 54.277344 212.222656 C 56.128906 211.953125 58.121094 211.128906 58.273438 209.421875 C 58.273438 209.421875 57.316406 209.964844 56.871094 210.132812 C 56.871094 210.132812 56.574219 209.660156 55.601562 208.105469 C 55.867188 208.015625 56.230469 207.839844 56.699219 207.578125 C 54.882812 207.421875 53.222656 207.816406 51.722656 208.769531 C 51.257812 209.417969 50.425781 209.976562 49.792969 209.1875 C 49.296875 208.574219 49.289062 207.398438 50.828125 207.488281 C 50.828125 207.488281 51.992188 207.117188 54.3125 206.378906 C 54.3125 206.378906 48.796875 197.667969 37.863281 181.453125 C 37.863281 181.453125 37.765625 180.1875 37.476562 176.449219 C 37.460938 176.0625 37.683594 175.640625 38.140625 175.195312 C 37.800781 175.328125 37.503906 175.527344 37.25 175.785156 C 37.25 175.785156 37.167969 175.542969 36.996094 175.054688 C 36.882812 174.203125 37.1875 173.4375 37.925781 172.757812 C 38.332031 172.539062 38.789062 172.546875 39.296875 172.78125 C 39.296875 172.78125 39.628906 173.21875 40.300781 174.09375 C 49.757812 175.984375 54.484375 176.929688 54.484375 176.929688 C 54.671875 177.003906 54.65625 177.230469 54.539062 177.390625 C 45.191406 175.503906 40.515625 174.5625 40.515625 174.5625 Z M 38.847656 181.417969 C 40.609375 184.09375 40.777344 184.222656 39.347656 181.808594 C 39.347656 181.808594 39.222656 180.476562 38.980469 177.808594 C 39.003906 177.535156 39.230469 177.4375 39.667969 177.511719 C 39.667969 177.511719 41.503906 178.132812 45.171875 179.367188 C 45.171875 179.367188 43.230469 177.523438 41.496094 176.015625 C 40.78125 175.335938 41.917969 176.726562 42.632812 177.496094 C 39.753906 176.582031 39.253906 176.714844 39.253906 176.714844 C 38.761719 176.675781 38.488281 176.828125 38.433594 177.171875 C 38.707031 180.007812 38.847656 181.421875 38.847656 181.421875 Z M 52.453125 213.125 C 50.960938 211.691406 50.214844 210.972656 50.214844 210.972656 C 51.320312 212.386719 51.871094 213.089844 51.871094 213.089844 C 51.628906 214.234375 51.503906 214.804688 51.503906 214.804688 C 52.136719 213.683594 52.453125 213.125 52.453125 213.125 Z M 47.820312 203.097656 C 47.75 203.480469 47.710938 203.667969 47.710938 203.667969 C 47.460938 203.613281 47.128906 203.714844 46.730469 203.976562 C 46.730469 203.976562 46.699219 203.921875 46.640625 203.804688 C 46.546875 203.683594 46.726562 203.496094 47.175781 203.246094 C 47.175781 203.246094 46.96875 203.269531 46.554688 203.3125 C 46.554688 203.3125 44.304688 198.917969 39.792969 190.121094 C 39.792969 190.121094 39.625 190.046875 39.292969 189.894531 C 40.273438 189.410156 40.835938 189.34375 40.984375 189.6875 C 45.398438 198.375 47.820312 203.097656 47.820312 203.097656 Z M 40.863281 188.542969 C 41.273438 188.496094 41.480469 188.476562 41.480469 188.476562 C 41.480469 188.476562 40.269531 186.707031 37.847656 183.171875 C 38.425781 186.371094 38.71875 187.972656 38.71875 187.972656 C 38.980469 188.730469 39.386719 189.039062 39.929688 188.886719 C 40.554688 188.660156 40.867188 188.546875 40.867188 188.546875 Z M 39.792969 187.332031 C 39.914062 187.332031 40.027344 187.382812 40.109375 187.464844 C 40.101562 187.464844 40.089844 187.464844 40.082031 187.464844 C 39.886719 187.464844 39.738281 187.632812 39.746094 187.835938 C 39.75 188.023438 39.882812 188.179688 40.058594 188.207031 C 39.988281 188.25 39.910156 188.277344 39.824219 188.277344 C 39.578125 188.277344 39.375 188.066406 39.367188 187.808594 C 39.359375 187.546875 39.554688 187.339844 39.796875 187.339844 Z M 38.546875 173.375 C 38.667969 173.375 38.777344 173.433594 38.859375 173.53125 C 38.851562 173.53125 38.84375 173.53125 38.835938 173.53125 C 38.640625 173.53125 38.488281 173.722656 38.496094 173.960938 C 38.5 174.171875 38.636719 174.355469 38.808594 174.382812 C 38.742188 174.4375 38.664062 174.464844 38.574219 174.464844 C 38.328125 174.464844 38.125 174.222656 38.117188 173.921875 C 38.109375 173.621094 38.304688 173.378906 38.550781 173.378906 Z M 74.460938 180.789062 C 74.558594 180.789062 74.648438 180.835938 74.71875 180.914062 C 74.710938 180.914062 74.703125 180.914062 74.695312 180.914062 C 74.539062 180.914062 74.417969 181.070312 74.421875 181.261719 C 74.425781 181.433594 74.535156 181.578125 74.671875 181.601562 C 74.621094 181.644531 74.550781 181.667969 74.484375 181.667969 C 74.285156 181.667969 74.121094 181.472656 74.113281 181.230469 C 74.105469 180.988281 74.265625 180.792969 74.460938 180.792969 Z M 47.058594 181.429688 C 46.933594 181.703125 46.875 181.84375 46.875 181.84375 C 46.496094 182.035156 46.203125 181.878906 45.992188 181.382812 C 45.902344 180.929688 46.171875 180.726562 46.792969 180.765625 C 46.363281 180.894531 46.300781 181.144531 46.609375 181.519531 C 46.78125 181.59375 46.925781 181.566406 47.054688 181.429688 Z M 47.058594 181.429688 " fill-opacity="1" fill-rule="evenodd"/><path fill="#ffffff" d="M 49.324219 207.277344 C 49.050781 207.382812 48.894531 207.585938 48.855469 207.882812 C 48.855469 207.882812 48.261719 206.703125 47.074219 204.347656 C 47.527344 204.113281 47.769531 204.09375 47.804688 204.292969 C 48.816406 206.28125 49.324219 207.273438 49.324219 207.273438 Z M 49.324219 207.277344 " fill-opacity="1" fill-rule="evenodd"/><path fill="#ffffff" d="M 50.179688 221.878906 C 50.292969 222.359375 50.578125 222.8125 51.023438 223.226562 C 48.714844 221.628906 48.289062 218.433594 50.523438 216.460938 C 50.144531 217.082031 49.988281 217.488281 50.066406 217.671875 C 52.621094 217.730469 53.652344 217.757812 53.652344 217.757812 C 53.347656 218.589844 53.417969 219.664062 53.546875 220.601562 C 53.78125 222.074219 54.609375 222.976562 55.84375 223.664062 C 54.835938 223.386719 53.902344 222.785156 53.394531 221.941406 L 50.179688 221.882812 Z M 50.179688 221.878906 " fill-opacity="1" fill-rule="evenodd"/><path fill="#ffffff" d="M 82.800781 196.425781 C 82.660156 196.617188 82.535156 196.667969 82.421875 196.585938 C 82.421875 196.585938 82.132812 195.914062 81.550781 194.574219 C 81.949219 194.878906 82.144531 195.035156 82.144531 195.035156 C 82.578125 195.964844 82.796875 196.429688 82.796875 196.429688 Z M 82.800781 196.425781 " fill-opacity="1" fill-rule="evenodd"/><path fill="#ffffff" d="M 88.003906 207.605469 C 88.292969 208.019531 88.625 208.164062 88.988281 208.039062 C 88.988281 208.039062 87.078125 204.351562 83.265625 196.976562 C 83.226562 196.929688 83.113281 196.894531 82.933594 196.875 C 82.726562 197.1875 82.5 197.332031 82.246094 197.3125 C 82.542969 197.496094 82.726562 197.574219 82.796875 197.539062 C 86.265625 204.253906 88 207.609375 88 207.609375 Z M 88.003906 207.605469 " fill-opacity="1" fill-rule="evenodd"/><path fill="#ffffff" d="M 89.433594 205 L 88.851562 204.058594 L 88.164062 204.617188 C 88.523438 205.363281 88.875 206.085938 89.230469 206.796875 L 89.4375 206.613281 L 89.4375 205.003906 Z M 86.480469 205.964844 L 83.847656 208.082031 C 83.824219 209.613281 83.816406 210.378906 83.816406 210.378906 C 84.210938 210.820312 84.40625 211.042969 84.40625 211.042969 C 84.40625 210.386719 84.40625 210.058594 84.40625 210.058594 C 85.59375 210.015625 86.1875 209.992188 86.1875 209.992188 C 86.378906 209.273438 86.507812 208.816406 86.578125 208.617188 C 86.667969 209.46875 86.714844 209.898438 86.714844 209.898438 C 86.90625 210.335938 87.203125 210.519531 87.609375 210.445312 L 87.628906 208.246094 Z M 86.480469 205.964844 " fill-opacity="1" fill-rule="evenodd"/><path fill="#ffffff" d="M 106.324219 197.722656 L 105.371094 197.75 C 105.1875 196.566406 103.847656 196.386719 102.839844 196.285156 C 102.839844 196.285156 100.667969 196.289062 96.320312 196.296875 C 96.320312 196.296875 96.089844 196.179688 95.632812 195.945312 C 95.632812 195.945312 95.679688 196.046875 95.769531 196.25 C 95.769531 196.25 94.25 196.34375 92.089844 196.507812 L 91.609375 197.351562 L 91.757812 196.535156 L 91.148438 196.582031 C 91.148438 196.582031 91.171875 196.484375 91.214844 196.285156 C 91.238281 196.167969 91.324219 196.101562 91.492188 196.089844 L 95.945312 195.671875 C 97.617188 195.550781 99.859375 195.597656 102.746094 195.582031 C 104.125 195.621094 105.253906 195.902344 106.128906 196.429688 C 106.199219 196.898438 106.261719 197.328125 106.328125 197.730469 Z M 106.324219 197.722656 " fill-opacity="1" fill-rule="evenodd"/><path fill="#ffffff" d="M 106.714844 201.679688 C 105.929688 202.363281 103.796875 204.042969 100.683594 206.324219 C 100.683594 206.324219 98.863281 206.757812 95.222656 207.625 C 95.222656 207.625 95.09375 208.421875 94.835938 210.023438 C 94.898438 203.882812 95.394531 199.445312 96.328125 196.707031 C 99.265625 196.675781 101.617188 196.65625 103.1875 196.738281 C 103.164062 201.585938 103.152344 204.011719 103.152344 204.011719 C 104.960938 202.5625 105.792969 201.902344 105.792969 201.902344 C 105.707031 200.390625 105.597656 198.9375 105.484375 198.160156 C 106.089844 198.160156 106.398438 198.160156 106.398438 198.160156 C 106.613281 200.507812 106.71875 201.675781 106.71875 201.675781 Z M 102.523438 204.3125 L 102.527344 203.746094 L 95.554688 204.183594 C 95.476562 205.09375 95.414062 206.039062 95.371094 207.019531 C 98.660156 206.273438 100.464844 205.851562 100.464844 205.851562 C 101.992188 204.683594 102.519531 204.3125 102.519531 204.3125 Z M 102.53125 203.308594 C 102.558594 199.316406 102.589844 197.167969 102.589844 197.167969 C 102.589844 197.167969 100.597656 197.175781 96.605469 197.191406 C 96.152344 199.140625 95.8125 201.320312 95.59375 203.738281 L 102.527344 203.3125 Z M 102.53125 203.308594 " fill-opacity="1" fill-rule="evenodd"/><path fill="#ffffff" d="M 121.257812 210.128906 C 115.492188 210.046875 111.3125 210.121094 111.3125 210.121094 C 111.3125 210.121094 110.382812 209.238281 108.527344 207.46875 L 107.496094 207.453125 L 107.460938 201.421875 C 107.660156 201.292969 107.863281 201.25 108.074219 201.296875 C 113.21875 201.492188 115.796875 201.589844 115.796875 201.589844 C 116 201.582031 116.414062 201.804688 116.410156 202.332031 C 116.394531 204.730469 116.386719 205.9375 116.386719 205.9375 C 119.84375 208.90625 121.261719 210.125 121.261719 210.125 Z M 107.027344 207.449219 L 101.761719 207.359375 C 101.789062 207.464844 101.613281 207.195312 101.238281 206.558594 C 101.238281 206.558594 103.089844 205.140625 106.789062 202.308594 C 106.851562 202.265625 106.917969 202.214844 106.980469 202.152344 L 107.027344 207.453125 Z M 107.027344 207.449219 " fill-opacity="1" fill-rule="evenodd"/><path fill="#ffffff" d="M 72.457031 181.066406 C 72.765625 181.15625 72.929688 181.296875 72.949219 181.488281 C 73.238281 180.902344 73.203125 180.453125 72.847656 180.148438 C 72.847656 180.148438 67.195312 178.847656 55.886719 176.242188 C 55.023438 176.246094 55.542969 177.195312 55.144531 177.589844 C 55.453125 177.492188 55.613281 177.441406 55.613281 177.441406 C 66.84375 179.859375 72.457031 181.066406 72.457031 181.066406 Z M 72.457031 181.066406 " fill-opacity="1" fill-rule="evenodd"/><path fill="#ffffff" d="M 126.214844 210.070312 C 125.867188 210.617188 125.203125 210.855469 124.640625 211.121094 C 124.640625 211.121094 124.636719 211.363281 124.625 211.855469 C 124.625 211.890625 123.710938 211.925781 122.367188 211.960938 L 122.367188 212.273438 C 124.414062 212.265625 126.039062 212.257812 126.421875 212.246094 C 126.605469 212.230469 126.75 211.996094 126.84375 211.539062 C 126.984375 209.164062 126.894531 205.414062 126.730469 202.105469 C 126.613281 201.847656 126.191406 201.675781 125.472656 201.582031 C 125.445312 201.582031 122.710938 201.558594 117.273438 201.511719 C 117.457031 201.621094 117.476562 201.859375 117.476562 201.859375 C 120.8125 201.933594 122.367188 201.964844 122.367188 201.964844 C 122.664062 202.039062 122.824219 202.179688 122.847656 202.402344 C 122.832031 206.546875 122.824219 208.621094 122.824219 208.621094 C 122.820312 208.789062 122.71875 208.894531 122.515625 208.953125 C 121.617188 208.9375 121.167969 208.929688 121.167969 208.929688 C 121.921875 209.683594 122.296875 210.0625 122.296875 210.0625 C 124.910156 210.0625 126.214844 210.0625 126.214844 210.0625 Z M 121.839844 211.980469 C 118.027344 212.078125 111.644531 212.1875 111.640625 212.300781 C 111.640625 212.300781 117.480469 212.292969 121.839844 212.28125 Z M 121.839844 211.980469 " fill-opacity="1" fill-rule="evenodd"/><path fill="#ffffff" d="M 108.253906 207.96875 C 109.488281 209.292969 110.105469 209.957031 110.105469 209.957031 L 107.519531 209.949219 L 107.507812 207.960938 Z M 107.054688 209.949219 L 95.527344 209.914062 C 95.527344 209.914062 95.617188 208.746094 95.769531 208.035156 C 95.769531 208.035156 97.285156 207.6875 100.53125 206.941406 C 100.929688 207.582031 101.125 207.902344 101.125 207.902344 L 107.035156 207.957031 Z M 107.054688 209.949219 " fill-opacity="1" fill-rule="evenodd"/><path fill="#ffffff" d="M 89.621094 211.976562 C 112.175781 212.234375 114.234375 211.8125 90.144531 211.609375 C 90.03125 211.636719 89.898438 211.582031 89.785156 211.378906 C 89.785156 211.378906 89.789062 211.257812 89.804688 210.726562 C 89.804688 210.726562 90.058594 210.421875 90.324219 210.316406 C 90.765625 210.144531 93 209.929688 94.246094 209.925781 C 91.8125 209.859375 91.167969 209.902344 90.429688 209.914062 C 90.472656 208.257812 90.589844 206.40625 90.78125 204.390625 L 94.257812 204.253906 L 90.820312 204.003906 C 91.003906 202.144531 91.242188 200.152344 91.539062 198.0625 C 90.699219 200.828125 89.875 207.273438 89.894531 210.007812 C 89.46875 210.28125 89.253906 210.5 89.253906 210.5 C 89.238281 211.214844 89.230469 211.570312 89.230469 211.570312 C 89.308594 211.832031 89.441406 211.964844 89.621094 211.972656 Z M 89.621094 211.976562 " fill-opacity="1" fill-rule="evenodd"/><path fill="#ffffff" d="M 84.949219 213.441406 C 85.203125 213.4375 85.4375 213.433594 85.664062 213.429688 C 81.917969 214.140625 79.445312 215.175781 78.238281 216.527344 C 80.164062 215.003906 83.367188 213.96875 87.84375 213.421875 C 89.011719 213.445312 88.980469 213.542969 87.738281 213.714844 C 82.914062 214.480469 79.949219 215.523438 78.84375 216.839844 C 78.15625 217.660156 78.046875 220.1875 78.597656 221.785156 C 78.867188 222.570312 79.261719 222.820312 79.90625 223.132812 C 79.210938 223.082031 78.253906 222.601562 77.898438 221.574219 C 77.519531 220.460938 77.371094 218.558594 77.640625 217.511719 C 77.640625 217.511719 76.679688 217.511719 74.445312 217.511719 C 74.785156 216.613281 75.242188 216.058594 75.816406 215.839844 C 77.265625 214.976562 80.308594 214.179688 84.953125 213.441406 Z M 84.949219 213.441406 " fill-opacity="1" fill-rule="evenodd"/><path fill="#ffffff" d="M 119.1875 219.773438 C 119.023438 219.957031 118.824219 220.015625 118.59375 219.957031 C 118.265625 219.816406 118.03125 219.496094 117.886719 218.996094 C 117.886719 218.996094 117.871094 219.238281 117.84375 219.726562 C 117.449219 219.320312 117.351562 218.652344 117.546875 217.714844 C 117.546875 217.714844 117.691406 217.722656 117.980469 217.738281 C 118.039062 217.421875 118.203125 217.242188 118.460938 217.214844 C 118.953125 217.113281 119.203125 217.726562 119.214844 219.066406 C 119.214844 219.066406 119.496094 219.042969 120.058594 219 C 120.058594 219 120.179688 218.5625 120.425781 217.699219 C 120.535156 220.214844 119.765625 221.714844 118.117188 222.203125 C 118.117188 222.203125 112.171875 222.640625 100.277344 223.519531 C 98.527344 223.648438 98.144531 221.257812 98.058594 219.960938 C 98.058594 219.960938 96.816406 219.945312 94.0625 219.914062 C 93.722656 219.933594 93.648438 220.089844 93.539062 220.441406 C 93.476562 219.027344 93.675781 217.199219 94.753906 216.121094 C 96.199219 214.671875 99.445312 213.714844 104.207031 213.257812 C 105.585938 213.117188 107.1875 213.054688 109.015625 213.058594 C 104.828125 213.402344 101.847656 214.253906 100.070312 215.617188 C 103.015625 214.023438 107.363281 213.277344 113.105469 213.378906 C 113.871094 213.535156 114.613281 213.710938 115.332031 213.898438 C 111.605469 213.582031 108.128906 213.734375 104.914062 214.355469 C 101.074219 215.378906 99.070312 216.695312 98.90625 218.308594 C 99.136719 217.757812 99.441406 217.4375 99.820312 217.347656 C 101.175781 217.273438 101.851562 217.234375 101.851562 217.234375 C 102.296875 217.585938 102.503906 217.777344 102.46875 217.804688 C 111.941406 217.578125 116.675781 217.464844 116.675781 217.464844 C 116.828125 217.617188 116.898438 217.75 116.882812 217.855469 C 116.925781 219.199219 116.949219 219.867188 116.949219 219.867188 C 116.660156 219.699219 116.515625 219.613281 116.515625 219.613281 C 105.855469 220.222656 100.523438 220.53125 100.523438 220.53125 C 101.605469 220.820312 102.148438 220.964844 102.148438 220.964844 C 102.164062 221.363281 102.171875 221.558594 102.171875 221.558594 C 101.558594 222.152344 101.253906 222.453125 101.253906 222.453125 C 112.175781 221.691406 117.632812 221.308594 117.632812 221.308594 C 118.421875 221.214844 118.941406 220.703125 119.183594 219.777344 Z M 119.1875 219.773438 " fill-opacity="1" fill-rule="evenodd"/><path fill="#ffffff" d="M 107.40625 199.121094 C 107.355469 198.726562 107.34375 198.550781 107.34375 198.550781 C 117.605469 198.8125 122.824219 198.941406 122.824219 198.941406 C 123.253906 198.953125 123.683594 199.121094 123.730469 199.65625 C 123.78125 200.21875 123.8125 200.558594 123.8125 200.558594 C 123.3125 200.542969 122.09375 200.574219 122.09375 200.574219 C 122.4375 200.511719 123.101562 200.390625 123.097656 200.347656 C 123.085938 200.148438 123.074219 200.003906 123.066406 199.910156 C 123.042969 199.667969 122.949219 199.503906 122.667969 199.5 C 112.492188 199.25 107.40625 199.125 107.40625 199.125 Z M 107.40625 199.121094 " fill-opacity="1" fill-rule="evenodd"/><g clip-path="url(#637d511a85)"><g clip-path="url(#fa052aadad)"><g transform="matrix(1, 0, 0, 1, 116, 148)"><g clip-path="url(#bf65a1d344)"><g clip-path="url(#e8dc673250)"><g clip-path="url(#14ba06b08a)"><path fill="#fa9c04" d="M 0.71875 0.757812 L 13.089844 0.757812 L 13.089844 13.132812 L 0.71875 13.132812 Z M 0.71875 0.757812 " fill-opacity="1" fill-rule="nonzero"/></g></g></g></g></g></g><g transform="matrix(1, 0, 0, 1, 142, 163)"><g clip-path="url(#be562c641b)"><g fill="#000000" fill-opacity="1"><g transform="translate(0.641323, 38.248678)"><g><path d="M 27.875 0 L 21.453125 0 L 13.71875 -13.59375 L 9.390625 -8.375 L 9.390625 0 L 3.265625 0 L 3.265625 -29.203125 L 9.390625 -29.203125 L 9.390625 -15.828125 L 20.03125 -29.203125 L 26.796875 -29.203125 L 17.9375 -17.890625 Z M 27.875 0 "/></g></g></g><g fill="#000000" fill-opacity="1"><g transform="translate(28.709946, 38.248678)"><g><path d="M 8.578125 0.40625 C 7.242188 0.40625 6.046875 0.15625 4.984375 -0.34375 C 3.921875 -0.84375 3.078125 -1.566406 2.453125 -2.515625 C 1.835938 -3.460938 1.53125 -4.617188 1.53125 -5.984375 C 1.53125 -8.265625 2.382812 -10 4.09375 -11.1875 C 5.8125 -12.382812 8.515625 -13.003906 12.203125 -13.046875 L 14.796875 -13.09375 L 14.796875 -14.34375 C 14.796875 -15.289062 14.515625 -16.023438 13.953125 -16.546875 C 13.398438 -17.066406 12.539062 -17.320312 11.375 -17.3125 C 10.507812 -17.289062 9.6875 -17.082031 8.90625 -16.6875 C 8.132812 -16.300781 7.609375 -15.625 7.328125 -14.65625 L 2.421875 -14.65625 C 2.503906 -16.164062 2.941406 -17.410156 3.734375 -18.390625 C 4.523438 -19.367188 5.601562 -20.09375 6.96875 -20.5625 C 8.34375 -21.039062 9.894531 -21.28125 11.625 -21.28125 C 13.769531 -21.28125 15.488281 -21.015625 16.78125 -20.484375 C 18.070312 -19.953125 19.003906 -19.191406 19.578125 -18.203125 C 20.160156 -17.210938 20.453125 -16.039062 20.453125 -14.6875 L 20.453125 0 L 15.53125 0 L 15.046875 -3.59375 C 14.328125 -2.082031 13.429688 -1.035156 12.359375 -0.453125 C 11.296875 0.117188 10.035156 0.40625 8.578125 0.40625 Z M 10.5625 -3.46875 C 11.101562 -3.46875 11.625 -3.566406 12.125 -3.765625 C 12.632812 -3.960938 13.085938 -4.222656 13.484375 -4.546875 C 13.878906 -4.878906 14.195312 -5.253906 14.4375 -5.671875 C 14.675781 -6.085938 14.796875 -6.519531 14.796875 -6.96875 L 14.796875 -10.0625 L 12.6875 -10.015625 C 11.695312 -10.003906 10.773438 -9.882812 9.921875 -9.65625 C 9.078125 -9.4375 8.394531 -9.078125 7.875 -8.578125 C 7.363281 -8.078125 7.109375 -7.40625 7.109375 -6.5625 C 7.109375 -5.59375 7.441406 -4.832031 8.109375 -4.28125 C 8.785156 -3.738281 9.601562 -3.46875 10.5625 -3.46875 Z M 10.5625 -3.46875 "/></g></g></g><g fill="#000000" fill-opacity="1"><g transform="translate(50.983069, 38.248678)"><g><path d="M 5.78125 6.671875 C 4.351562 6.671875 3.34375 6.550781 2.75 6.3125 C 2.164062 6.070312 1.875 5.953125 1.875 5.953125 L 1.875 2.203125 L 3.9375 2.28125 C 4.84375 2.332031 5.570312 2.285156 6.125 2.140625 C 6.675781 2.003906 7.09375 1.820312 7.375 1.59375 C 7.664062 1.363281 7.867188 1.125 7.984375 0.875 C 8.109375 0.625 8.203125 0.425781 8.265625 0.28125 L 8.640625 -0.875 L 0.53125 -20.875 L 6.359375 -20.875 L 11.375 -7.265625 L 16.4375 -20.875 L 22.1875 -20.875 L 13.734375 0.125 C 13.003906 1.894531 12.234375 3.25 11.421875 4.1875 C 10.617188 5.132812 9.75 5.785156 8.8125 6.140625 C 7.875 6.492188 6.863281 6.671875 5.78125 6.671875 Z M 5.78125 6.671875 "/></g></g></g><g fill="#000000" fill-opacity="1"><g transform="translate(72.811934, 38.248678)"><g><path d="M 8.578125 0.40625 C 7.242188 0.40625 6.046875 0.15625 4.984375 -0.34375 C 3.921875 -0.84375 3.078125 -1.566406 2.453125 -2.515625 C 1.835938 -3.460938 1.53125 -4.617188 1.53125 -5.984375 C 1.53125 -8.265625 2.382812 -10 4.09375 -11.1875 C 5.8125 -12.382812 8.515625 -13.003906 12.203125 -13.046875 L 14.796875 -13.09375 L 14.796875 -14.34375 C 14.796875 -15.289062 14.515625 -16.023438 13.953125 -16.546875 C 13.398438 -17.066406 12.539062 -17.320312 11.375 -17.3125 C 10.507812 -17.289062 9.6875 -17.082031 8.90625 -16.6875 C 8.132812 -16.300781 7.609375 -15.625 7.328125 -14.65625 L 2.421875 -14.65625 C 2.503906 -16.164062 2.941406 -17.410156 3.734375 -18.390625 C 4.523438 -19.367188 5.601562 -20.09375 6.96875 -20.5625 C 8.34375 -21.039062 9.894531 -21.28125 11.625 -21.28125 C 13.769531 -21.28125 15.488281 -21.015625 16.78125 -20.484375 C 18.070312 -19.953125 19.003906 -19.191406 19.578125 -18.203125 C 20.160156 -17.210938 20.453125 -16.039062 20.453125 -14.6875 L 20.453125 0 L 15.53125 0 L 15.046875 -3.59375 C 14.328125 -2.082031 13.429688 -1.035156 12.359375 -0.453125 C 11.296875 0.117188 10.035156 0.40625 8.578125 0.40625 Z M 10.5625 -3.46875 C 11.101562 -3.46875 11.625 -3.566406 12.125 -3.765625 C 12.632812 -3.960938 13.085938 -4.222656 13.484375 -4.546875 C 13.878906 -4.878906 14.195312 -5.253906 14.4375 -5.671875 C 14.675781 -6.085938 14.796875 -6.519531 14.796875 -6.96875 L 14.796875 -10.0625 L 12.6875 -10.015625 C 11.695312 -10.003906 10.773438 -9.882812 9.921875 -9.65625 C 9.078125 -9.4375 8.394531 -9.078125 7.875 -8.578125 C 7.363281 -8.078125 7.109375 -7.40625 7.109375 -6.5625 C 7.109375 -5.59375 7.441406 -4.832031 8.109375 -4.28125 C 8.785156 -3.738281 9.601562 -3.46875 10.5625 -3.46875 Z M 10.5625 -3.46875 "/></g></g></g><g fill="#000000" fill-opacity="1"><g transform="translate(95.085057, 38.248678)"><g/></g></g><g fill="#000000" fill-opacity="1"><g transform="translate(102.758353, 38.248678)"><g><path d="M 3.265625 -29.203125 L 9.15625 -29.203125 L 9.15625 0 L 3.265625 0 Z M 3.421875 -32.234375 L 3.421875 -37.046875 L 9.0625 -37.046875 L 9.0625 -32.234375 Z M 3.421875 -32.234375 "/></g></g></g><g fill="#000000" fill-opacity="1"><g transform="translate(114.288586, 38.248678)"><g><path d="M 2.53125 0 L 2.53125 -20.875 L 8.328125 -20.875 L 8.328125 -17.9375 C 8.648438 -18.445312 9.066406 -18.941406 9.578125 -19.421875 C 10.097656 -19.898438 10.753906 -20.289062 11.546875 -20.59375 C 12.347656 -20.90625 13.289062 -21.0625 14.375 -21.0625 C 15.65625 -21.0625 16.847656 -20.8125 17.953125 -20.3125 C 19.066406 -19.8125 19.96875 -19.023438 20.65625 -17.953125 C 21.34375 -16.890625 21.6875 -15.492188 21.6875 -13.765625 L 21.6875 0 L 15.796875 0 L 15.796875 -13.046875 C 15.796875 -14.179688 15.457031 -15.03125 14.78125 -15.59375 C 14.101562 -16.15625 13.28125 -16.4375 12.3125 -16.4375 C 11.664062 -16.4375 11.039062 -16.320312 10.4375 -16.09375 C 9.84375 -15.863281 9.359375 -15.519531 8.984375 -15.0625 C 8.609375 -14.601562 8.421875 -14.039062 8.421875 -13.375 L 8.421875 0 Z M 2.53125 0 "/></g></g></g><g fill="#000000" fill-opacity="1"><g transform="translate(137.349245, 38.248678)"><g><path d="M 10.78125 0.40625 C 9.332031 0.40625 7.929688 0.164062 6.578125 -0.3125 C 5.234375 -0.789062 4.097656 -1.546875 3.171875 -2.578125 C 2.242188 -3.609375 1.648438 -4.941406 1.390625 -6.578125 L 6.5 -6.578125 C 6.675781 -5.835938 6.992188 -5.253906 7.453125 -4.828125 C 7.921875 -4.398438 8.453125 -4.09375 9.046875 -3.90625 C 9.640625 -3.726562 10.207031 -3.640625 10.75 -3.640625 C 11.875 -3.640625 12.78125 -3.816406 13.46875 -4.171875 C 14.164062 -4.523438 14.515625 -5.070312 14.515625 -5.8125 C 14.515625 -6.382812 14.304688 -6.835938 13.890625 -7.171875 C 13.484375 -7.503906 12.8125 -7.757812 11.875 -7.9375 L 8.203125 -8.703125 C 6.359375 -9.097656 4.875 -9.757812 3.75 -10.6875 C 2.632812 -11.625 2.066406 -12.957031 2.046875 -14.6875 C 2.046875 -15.9375 2.375 -17.054688 3.03125 -18.046875 C 3.695312 -19.046875 4.679688 -19.832031 5.984375 -20.40625 C 7.296875 -20.988281 8.898438 -21.28125 10.796875 -21.28125 C 13.367188 -21.28125 15.425781 -20.710938 16.96875 -19.578125 C 18.507812 -18.453125 19.296875 -16.859375 19.328125 -14.796875 L 14.40625 -14.796875 C 14.25 -15.609375 13.84375 -16.234375 13.1875 -16.671875 C 12.539062 -17.109375 11.726562 -17.328125 10.75 -17.328125 C 9.71875 -17.328125 8.875 -17.144531 8.21875 -16.78125 C 7.5625 -16.414062 7.234375 -15.863281 7.234375 -15.125 C 7.234375 -14.570312 7.5 -14.132812 8.03125 -13.8125 C 8.570312 -13.5 9.410156 -13.226562 10.546875 -13 L 13.9375 -12.234375 C 15.101562 -11.953125 16.050781 -11.566406 16.78125 -11.078125 C 17.519531 -10.585938 18.09375 -10.050781 18.5 -9.46875 C 18.90625 -8.894531 19.179688 -8.3125 19.328125 -7.71875 C 19.484375 -7.132812 19.5625 -6.609375 19.5625 -6.140625 C 19.5625 -4.753906 19.191406 -3.570312 18.453125 -2.59375 C 17.710938 -1.613281 16.679688 -0.867188 15.359375 -0.359375 C 14.046875 0.148438 12.519531 0.40625 10.78125 0.40625 Z M 15.28125 5.3125 C 15.28125 6 15.054688 6.585938 14.609375 7.078125 C 14.171875 7.566406 13.582031 7.9375 12.84375 8.1875 C 12.113281 8.445312 11.316406 8.578125 10.453125 8.578125 C 9.609375 8.578125 8.789062 8.492188 8 8.328125 C 7.207031 8.171875 6.476562 7.894531 5.8125 7.5 L 6.609375 5.515625 C 7.035156 5.765625 7.515625 5.988281 8.046875 6.1875 C 8.578125 6.394531 9.140625 6.5 9.734375 6.5 C 10.378906 6.5 10.875 6.390625 11.21875 6.171875 C 11.570312 5.953125 11.75 5.644531 11.75 5.25 C 11.75 4.726562 11.492188 4.320312 10.984375 4.03125 C 10.472656 3.75 9.582031 3.601562 8.3125 3.59375 C 8.15625 3.59375 8.046875 3.566406 7.984375 3.515625 C 7.921875 3.472656 7.921875 3.375 7.984375 3.21875 L 9.46875 -0.203125 L 12.09375 -0.203125 L 11.1875 2.15625 C 12.207031 2.1875 13.015625 2.363281 13.609375 2.6875 C 14.203125 3.007812 14.628906 3.410156 14.890625 3.890625 C 15.148438 4.367188 15.28125 4.84375 15.28125 5.3125 Z M 15.28125 5.3125 "/></g></g></g><g fill="#000000" fill-opacity="1"><g transform="translate(157.623215, 38.248678)"><g><path d="M 8.578125 0.40625 C 7.242188 0.40625 6.046875 0.15625 4.984375 -0.34375 C 3.921875 -0.84375 3.078125 -1.566406 2.453125 -2.515625 C 1.835938 -3.460938 1.53125 -4.617188 1.53125 -5.984375 C 1.53125 -8.265625 2.382812 -10 4.09375 -11.1875 C 5.8125 -12.382812 8.515625 -13.003906 12.203125 -13.046875 L 14.796875 -13.09375 L 14.796875 -14.34375 C 14.796875 -15.289062 14.515625 -16.023438 13.953125 -16.546875 C 13.398438 -17.066406 12.539062 -17.320312 11.375 -17.3125 C 10.507812 -17.289062 9.6875 -17.082031 8.90625 -16.6875 C 8.132812 -16.300781 7.609375 -15.625 7.328125 -14.65625 L 2.421875 -14.65625 C 2.503906 -16.164062 2.941406 -17.410156 3.734375 -18.390625 C 4.523438 -19.367188 5.601562 -20.09375 6.96875 -20.5625 C 8.34375 -21.039062 9.894531 -21.28125 11.625 -21.28125 C 13.769531 -21.28125 15.488281 -21.015625 16.78125 -20.484375 C 18.070312 -19.953125 19.003906 -19.191406 19.578125 -18.203125 C 20.160156 -17.210938 20.453125 -16.039062 20.453125 -14.6875 L 20.453125 0 L 15.53125 0 L 15.046875 -3.59375 C 14.328125 -2.082031 13.429688 -1.035156 12.359375 -0.453125 C 11.296875 0.117188 10.035156 0.40625 8.578125 0.40625 Z M 10.5625 -3.46875 C 11.101562 -3.46875 11.625 -3.566406 12.125 -3.765625 C 12.632812 -3.960938 13.085938 -4.222656 13.484375 -4.546875 C 13.878906 -4.878906 14.195312 -5.253906 14.4375 -5.671875 C 14.675781 -6.085938 14.796875 -6.519531 14.796875 -6.96875 L 14.796875 -10.0625 L 12.6875 -10.015625 C 11.695312 -10.003906 10.773438 -9.882812 9.921875 -9.65625 C 9.078125 -9.4375 8.394531 -9.078125 7.875 -8.578125 C 7.363281 -8.078125 7.109375 -7.40625 7.109375 -6.5625 C 7.109375 -5.59375 7.441406 -4.832031 8.109375 -4.28125 C 8.785156 -3.738281 9.601562 -3.46875 10.5625 -3.46875 Z M 10.5625 -3.46875 "/></g></g></g><g fill="#000000" fill-opacity="1"><g transform="translate(179.896338, 38.248678)"><g><path d="M 8.578125 0.40625 C 7.242188 0.40625 6.046875 0.15625 4.984375 -0.34375 C 3.921875 -0.84375 3.078125 -1.566406 2.453125 -2.515625 C 1.835938 -3.460938 1.53125 -4.617188 1.53125 -5.984375 C 1.53125 -8.265625 2.382812 -10 4.09375 -11.1875 C 5.8125 -12.382812 8.515625 -13.003906 12.203125 -13.046875 L 14.796875 -13.09375 L 14.796875 -14.34375 C 14.796875 -15.289062 14.515625 -16.023438 13.953125 -16.546875 C 13.398438 -17.066406 12.539062 -17.320312 11.375 -17.3125 C 10.507812 -17.289062 9.6875 -17.082031 8.90625 -16.6875 C 8.132812 -16.300781 7.609375 -15.625 7.328125 -14.65625 L 2.421875 -14.65625 C 2.503906 -16.164062 2.941406 -17.410156 3.734375 -18.390625 C 4.523438 -19.367188 5.601562 -20.09375 6.96875 -20.5625 C 8.34375 -21.039062 9.894531 -21.28125 11.625 -21.28125 C 13.769531 -21.28125 15.488281 -21.015625 16.78125 -20.484375 C 18.070312 -19.953125 19.003906 -19.191406 19.578125 -18.203125 C 20.160156 -17.210938 20.453125 -16.039062 20.453125 -14.6875 L 20.453125 0 L 15.53125 0 L 15.046875 -3.59375 C 14.328125 -2.082031 13.429688 -1.035156 12.359375 -0.453125 C 11.296875 0.117188 10.035156 0.40625 8.578125 0.40625 Z M 10.5625 -3.46875 C 11.101562 -3.46875 11.625 -3.566406 12.125 -3.765625 C 12.632812 -3.960938 13.085938 -4.222656 13.484375 -4.546875 C 13.878906 -4.878906 14.195312 -5.253906 14.4375 -5.671875 C 14.675781 -6.085938 14.796875 -6.519531 14.796875 -6.96875 L 14.796875 -10.0625 L 12.6875 -10.015625 C 11.695312 -10.003906 10.773438 -9.882812 9.921875 -9.65625 C 9.078125 -9.4375 8.394531 -9.078125 7.875 -8.578125 C 7.363281 -8.078125 7.109375 -7.40625 7.109375 -6.5625 C 7.109375 -5.59375 7.441406 -4.832031 8.109375 -4.28125 C 8.785156 -3.738281 9.601562 -3.46875 10.5625 -3.46875 Z M 10.5625 -3.46875 "/></g></g></g><g fill="#000000" fill-opacity="1"><g transform="translate(202.169461, 38.248678)"><g><path d="M 15.25 -16.78125 L 10.609375 -16.78125 L 10.640625 -5.65625 C 10.640625 -5.144531 10.703125 -4.765625 10.828125 -4.515625 C 10.960938 -4.265625 11.164062 -4.101562 11.4375 -4.03125 C 11.71875 -3.957031 12.070312 -3.921875 12.5 -3.921875 L 15.3125 -3.921875 L 15.3125 -0.28125 C 15.039062 -0.15625 14.617188 -0.0390625 14.046875 0.0625 C 13.472656 0.164062 12.675781 0.21875 11.65625 0.21875 C 9.820312 0.21875 8.398438 -0.015625 7.390625 -0.484375 C 6.390625 -0.953125 5.691406 -1.609375 5.296875 -2.453125 C 4.910156 -3.304688 4.71875 -4.289062 4.71875 -5.40625 L 4.71875 -16.78125 L 1.328125 -16.78125 L 1.328125 -20.875 L 4.921875 -20.875 L 6.40625 -27.1875 L 10.609375 -27.1875 L 10.609375 -20.90625 L 15.25 -20.90625 Z M 15.25 -16.78125 "/></g></g></g></g></g><g transform="matrix(1, 0, 0, 1, 142, 211)"><g clip-path="url(#439772a2c8)"><g clip-path="url(#1256096cce)"><g fill="#000000" fill-opacity="1"><g transform="translate(0.641323, 10.198959)"><g/></g></g></g><g fill="#000000" fill-opacity="1"><g transform="translate(2.739084, 10.198959)"><g><path d="M 3.4375 0.09375 C 3.09375 0.09375 2.757812 0.0507812 2.4375 -0.03125 C 2.113281 -0.113281 1.820312 -0.238281 1.5625 -0.40625 C 1.300781 -0.582031 1.082031 -0.796875 0.90625 -1.046875 C 0.738281 -1.296875 0.628906 -1.59375 0.578125 -1.9375 L 1.5625 -1.9375 C 1.625 -1.65625 1.742188 -1.421875 1.921875 -1.234375 C 2.097656 -1.046875 2.316406 -0.90625 2.578125 -0.8125 C 2.835938 -0.71875 3.117188 -0.671875 3.421875 -0.671875 C 3.765625 -0.671875 4.070312 -0.71875 4.34375 -0.8125 C 4.613281 -0.914062 4.828125 -1.054688 4.984375 -1.234375 C 5.140625 -1.410156 5.21875 -1.617188 5.21875 -1.859375 C 5.21875 -2.078125 5.164062 -2.265625 5.0625 -2.421875 C 4.96875 -2.585938 4.828125 -2.722656 4.640625 -2.828125 C 4.453125 -2.941406 4.222656 -3.03125 3.953125 -3.09375 L 2.53125 -3.421875 C 1.988281 -3.535156 1.566406 -3.742188 1.265625 -4.046875 C 0.960938 -4.347656 0.804688 -4.75 0.796875 -5.25 C 0.796875 -5.664062 0.90625 -6.03125 1.125 -6.34375 C 1.351562 -6.664062 1.660156 -6.914062 2.046875 -7.09375 C 2.441406 -7.269531 2.890625 -7.359375 3.390625 -7.359375 C 3.972656 -7.359375 4.460938 -7.257812 4.859375 -7.0625 C 5.253906 -6.863281 5.550781 -6.601562 5.75 -6.28125 C 5.957031 -5.96875 6.0625 -5.625 6.0625 -5.25 L 5.109375 -5.25 C 5.078125 -5.582031 4.976562 -5.84375 4.8125 -6.03125 C 4.644531 -6.226562 4.4375 -6.367188 4.1875 -6.453125 C 3.945312 -6.535156 3.6875 -6.578125 3.40625 -6.578125 C 3.195312 -6.578125 2.992188 -6.550781 2.796875 -6.5 C 2.609375 -6.445312 2.4375 -6.367188 2.28125 -6.265625 C 2.125 -6.160156 2 -6.03125 1.90625 -5.875 C 1.820312 -5.71875 1.78125 -5.539062 1.78125 -5.34375 C 1.78125 -5.082031 1.867188 -4.867188 2.046875 -4.703125 C 2.222656 -4.535156 2.550781 -4.394531 3.03125 -4.28125 L 4.40625 -3.9375 C 4.769531 -3.863281 5.066406 -3.75 5.296875 -3.59375 C 5.523438 -3.445312 5.703125 -3.273438 5.828125 -3.078125 C 5.953125 -2.890625 6.039062 -2.691406 6.09375 -2.484375 C 6.144531 -2.273438 6.171875 -2.070312 6.171875 -1.875 C 6.171875 -1.507812 6.0625 -1.175781 5.84375 -0.875 C 5.625 -0.570312 5.3125 -0.332031 4.90625 -0.15625 C 4.5 0.0078125 4.007812 0.09375 3.4375 0.09375 Z M 3.4375 0.09375 "/></g></g></g><g fill="#000000" fill-opacity="1"><g transform="translate(9.288982, 10.198959)"><g><path d="M 1.78125 -5.203125 L 1.78125 0 L 0.875 0 L 0.875 -5.203125 Z M 1.796875 -7.265625 L 1.796875 -6.296875 L 0.84375 -6.296875 L 0.84375 -7.265625 Z M 1.796875 -7.265625 "/></g></g></g><g fill="#000000" fill-opacity="1"><g transform="translate(11.706799, 10.198959)"><g><path d="M 0.765625 0 L 0.765625 -5.203125 L 1.671875 -5.203125 L 1.671875 -4.453125 C 1.753906 -4.585938 1.867188 -4.71875 2.015625 -4.84375 C 2.171875 -4.976562 2.351562 -5.082031 2.5625 -5.15625 C 2.78125 -5.238281 3.023438 -5.28125 3.296875 -5.28125 C 3.628906 -5.28125 3.929688 -5.210938 4.203125 -5.078125 C 4.484375 -4.953125 4.707031 -4.75 4.875 -4.46875 C 5.039062 -4.195312 5.125 -3.84375 5.125 -3.40625 L 5.125 0 L 4.1875 0 L 4.1875 -3.3125 C 4.1875 -3.71875 4.078125 -4.019531 3.859375 -4.21875 C 3.648438 -4.414062 3.378906 -4.515625 3.046875 -4.515625 C 2.804688 -4.515625 2.582031 -4.472656 2.375 -4.390625 C 2.175781 -4.316406 2.015625 -4.203125 1.890625 -4.046875 C 1.765625 -3.898438 1.703125 -3.710938 1.703125 -3.484375 L 1.703125 0 Z M 0.765625 0 "/></g></g></g><g fill="#000000" fill-opacity="1"><g transform="translate(17.28651, 10.198959)"><g><path d="M 2.84375 -5.296875 C 3.21875 -5.296875 3.550781 -5.222656 3.84375 -5.078125 C 4.144531 -4.941406 4.390625 -4.742188 4.578125 -4.484375 C 4.765625 -4.222656 4.882812 -3.914062 4.9375 -3.5625 L 4.109375 -3.5625 C 4.078125 -3.738281 4.003906 -3.898438 3.890625 -4.046875 C 3.785156 -4.203125 3.644531 -4.320312 3.46875 -4.40625 C 3.289062 -4.5 3.082031 -4.546875 2.84375 -4.546875 C 2.394531 -4.546875 2.03125 -4.382812 1.75 -4.0625 C 1.476562 -3.75 1.34375 -3.257812 1.34375 -2.59375 C 1.34375 -1.988281 1.46875 -1.503906 1.71875 -1.140625 C 1.976562 -0.785156 2.359375 -0.609375 2.859375 -0.609375 C 3.097656 -0.609375 3.304688 -0.65625 3.484375 -0.75 C 3.660156 -0.84375 3.800781 -0.960938 3.90625 -1.109375 C 4.019531 -1.265625 4.085938 -1.429688 4.109375 -1.609375 L 4.921875 -1.609375 C 4.878906 -1.253906 4.757812 -0.945312 4.5625 -0.6875 C 4.375 -0.4375 4.128906 -0.242188 3.828125 -0.109375 C 3.535156 0.0234375 3.207031 0.09375 2.84375 0.09375 C 2.375 0.09375 1.957031 -0.00390625 1.59375 -0.203125 C 1.238281 -0.410156 0.957031 -0.710938 0.75 -1.109375 C 0.550781 -1.503906 0.453125 -1.992188 0.453125 -2.578125 C 0.453125 -3.117188 0.539062 -3.59375 0.71875 -4 C 0.90625 -4.414062 1.175781 -4.734375 1.53125 -4.953125 C 1.894531 -5.179688 2.332031 -5.296875 2.84375 -5.296875 Z M 2.84375 -5.296875 "/></g></g></g><g fill="#000000" fill-opacity="1"><g transform="translate(22.489208, 10.198959)"><g><path d="M 1.4375 -2.390625 C 1.4375 -2.054688 1.488281 -1.753906 1.59375 -1.484375 C 1.707031 -1.222656 1.875 -1.015625 2.09375 -0.859375 C 2.320312 -0.703125 2.601562 -0.625 2.9375 -0.625 C 3.269531 -0.625 3.554688 -0.695312 3.796875 -0.84375 C 4.035156 -1 4.1875 -1.222656 4.25 -1.515625 L 5.125 -1.515625 C 5.0625 -1.160156 4.921875 -0.863281 4.703125 -0.625 C 4.484375 -0.382812 4.21875 -0.203125 3.90625 -0.078125 C 3.601562 0.0351562 3.285156 0.09375 2.953125 0.09375 C 2.460938 0.09375 2.03125 -0.0078125 1.65625 -0.21875 C 1.289062 -0.425781 1.003906 -0.726562 0.796875 -1.125 C 0.597656 -1.519531 0.5 -1.992188 0.5 -2.546875 C 0.5 -3.097656 0.59375 -3.578125 0.78125 -3.984375 C 0.96875 -4.398438 1.238281 -4.722656 1.59375 -4.953125 C 1.945312 -5.179688 2.378906 -5.296875 2.890625 -5.296875 C 3.378906 -5.296875 3.789062 -5.191406 4.125 -4.984375 C 4.46875 -4.773438 4.722656 -4.476562 4.890625 -4.09375 C 5.066406 -3.707031 5.15625 -3.253906 5.15625 -2.734375 L 5.15625 -2.390625 Z M 1.4375 -3.015625 L 4.265625 -3.015625 C 4.265625 -3.316406 4.210938 -3.585938 4.109375 -3.828125 C 4.015625 -4.066406 3.863281 -4.253906 3.65625 -4.390625 C 3.445312 -4.523438 3.1875 -4.59375 2.875 -4.59375 C 2.550781 -4.59375 2.28125 -4.515625 2.0625 -4.359375 C 1.851562 -4.203125 1.695312 -4.003906 1.59375 -3.765625 C 1.488281 -3.523438 1.4375 -3.273438 1.4375 -3.015625 Z M 1.4375 -3.015625 "/></g></g></g><g fill="#000000" fill-opacity="1"><g transform="translate(27.928168, 10.198959)"><g/></g></g><g fill="#000000" fill-opacity="1"><g transform="translate(30.024265, 10.198959)"><g><path d="M 0.625 0 L 0.625 -0.859375 C 0.625 -1.234375 0.691406 -1.554688 0.828125 -1.828125 C 0.972656 -2.097656 1.160156 -2.332031 1.390625 -2.53125 C 1.617188 -2.738281 1.867188 -2.921875 2.140625 -3.078125 C 2.410156 -3.242188 2.679688 -3.398438 2.953125 -3.546875 C 3.234375 -3.703125 3.488281 -3.859375 3.71875 -4.015625 C 3.945312 -4.179688 4.128906 -4.367188 4.265625 -4.578125 C 4.398438 -4.785156 4.46875 -5.03125 4.46875 -5.3125 C 4.46875 -5.675781 4.335938 -5.972656 4.078125 -6.203125 C 3.816406 -6.441406 3.46875 -6.5625 3.03125 -6.5625 C 2.550781 -6.5625 2.164062 -6.425781 1.875 -6.15625 C 1.59375 -5.882812 1.429688 -5.523438 1.390625 -5.078125 L 0.46875 -5.078125 C 0.476562 -5.492188 0.582031 -5.875 0.78125 -6.21875 C 0.976562 -6.570312 1.265625 -6.851562 1.640625 -7.0625 C 2.023438 -7.269531 2.5 -7.375 3.0625 -7.375 C 3.550781 -7.375 3.972656 -7.285156 4.328125 -7.109375 C 4.691406 -6.941406 4.96875 -6.703125 5.15625 -6.390625 C 5.351562 -6.078125 5.453125 -5.71875 5.453125 -5.3125 C 5.453125 -4.9375 5.382812 -4.613281 5.25 -4.34375 C 5.113281 -4.070312 4.929688 -3.835938 4.703125 -3.640625 C 4.484375 -3.441406 4.238281 -3.265625 3.96875 -3.109375 C 3.695312 -2.960938 3.425781 -2.816406 3.15625 -2.671875 C 2.882812 -2.523438 2.632812 -2.375 2.40625 -2.21875 C 2.1875 -2.070312 2.003906 -1.894531 1.859375 -1.6875 C 1.722656 -1.488281 1.65625 -1.25 1.65625 -0.96875 L 1.65625 -0.828125 L 5.5 -0.828125 L 5.5 0 Z M 0.625 0 "/></g></g></g><g fill="#000000" fill-opacity="1"><g transform="translate(35.794999, 10.198959)"><g><path d="M 3.078125 -7.375 C 3.867188 -7.375 4.5 -7.054688 4.96875 -6.421875 C 5.4375 -5.796875 5.671875 -4.863281 5.671875 -3.625 C 5.671875 -2.394531 5.4375 -1.460938 4.96875 -0.828125 C 4.5 -0.203125 3.867188 0.109375 3.078125 0.109375 C 2.273438 0.109375 1.640625 -0.203125 1.171875 -0.828125 C 0.710938 -1.453125 0.484375 -2.378906 0.484375 -3.609375 C 0.484375 -4.429688 0.585938 -5.125 0.796875 -5.6875 C 1.015625 -6.25 1.316406 -6.671875 1.703125 -6.953125 C 2.097656 -7.234375 2.554688 -7.375 3.078125 -7.375 Z M 3.078125 -0.6875 C 3.597656 -0.6875 3.988281 -0.914062 4.25 -1.375 C 4.519531 -1.832031 4.65625 -2.582031 4.65625 -3.625 C 4.65625 -4.675781 4.519531 -5.429688 4.25 -5.890625 C 3.988281 -6.359375 3.597656 -6.59375 3.078125 -6.59375 C 2.566406 -6.59375 2.171875 -6.359375 1.890625 -5.890625 C 1.617188 -5.421875 1.484375 -4.664062 1.484375 -3.625 C 1.484375 -2.59375 1.617188 -1.84375 1.890625 -1.375 C 2.160156 -0.914062 2.554688 -0.6875 3.078125 -0.6875 Z M 3.078125 -0.6875 "/></g></g></g><g fill="#000000" fill-opacity="1"><g transform="translate(41.726594, 10.198959)"><g><path d="M 1.875 0 L 1.875 -5.796875 L 0.46875 -5.796875 L 0.46875 -6.40625 C 0.90625 -6.40625 1.242188 -6.4375 1.484375 -6.5 C 1.722656 -6.5625 1.894531 -6.65625 2 -6.78125 C 2.101562 -6.914062 2.160156 -7.082031 2.171875 -7.28125 L 2.828125 -7.28125 L 2.828125 0 Z M 1.875 0 "/></g></g></g><g fill="#000000" fill-opacity="1"><g transform="translate(45.597173, 10.198959)"><g><path d="M 1.875 0 L 1.875 -5.796875 L 0.46875 -5.796875 L 0.46875 -6.40625 C 0.90625 -6.40625 1.242188 -6.4375 1.484375 -6.5 C 1.722656 -6.5625 1.894531 -6.65625 2 -6.78125 C 2.101562 -6.914062 2.160156 -7.082031 2.171875 -7.28125 L 2.828125 -7.28125 L 2.828125 0 Z M 1.875 0 "/></g></g></g></g></g></svg>